<?xml version="1.0" encoding="UTF-8" standalone="no"?>
<!-- Created with Inkscape (http://www.inkscape.org/) -->

<svg
   xmlns:dc="http://purl.org/dc/elements/1.1/"
   xmlns:cc="http://creativecommons.org/ns#"
   xmlns:rdf="http://www.w3.org/1999/02/22-rdf-syntax-ns#"
   xmlns:svg="http://www.w3.org/2000/svg"
   xmlns="http://www.w3.org/2000/svg"
   xmlns:sodipodi="http://sodipodi.sourceforge.net/DTD/sodipodi-0.dtd"
   xmlns:inkscape="http://www.inkscape.org/namespaces/inkscape"
   width="210mm"
   height="297mm"
   viewBox="0 0 210 297"
   version="1.1"
   id="svg2691"
   inkscape:version="0.92.2 5c3e80d, 2017-08-06"
   sodipodi:docname="DTFT_resampler_b.svg">
  <sodipodi:namedview
     id="base"
     pagecolor="#ffffff"
     bordercolor="#666666"
     borderopacity="1.0"
     inkscape:pageopacity="0.0"
     inkscape:pageshadow="2"
     inkscape:zoom="2.8"
     inkscape:cx="606.81049"
     inkscape:cy="958.97358"
     inkscape:document-units="mm"
     inkscape:current-layer="layer1"
     showgrid="true"
     inkscape:window-width="1440"
     inkscape:window-height="790"
     inkscape:window-x="0"
     inkscape:window-y="1"
     inkscape:window-maximized="1">
    <inkscape:grid
       type="xygrid"
       id="grid3236" />
  </sodipodi:namedview>
  <defs
     id="defs2685">
    <inkscape:path-effect
       only_selected="false"
       apply_with_weight="true"
       apply_no_weight="true"
       helper_size="0"
       steps="2"
       weight="33.333333"
       is_visible="true"
       id="path-effect4804"
       effect="bspline" />
    <inkscape:path-effect
       only_selected="false"
       apply_with_weight="true"
       apply_no_weight="true"
       helper_size="0"
       steps="2"
       weight="33.333333"
       is_visible="true"
       id="path-effect4800"
       effect="bspline" />
    <inkscape:path-effect
       only_selected="false"
       apply_with_weight="true"
       apply_no_weight="true"
       helper_size="0"
       steps="2"
       weight="33.333333"
       is_visible="true"
       id="path-effect2967"
       effect="bspline" />
    <inkscape:path-effect
       only_selected="false"
       apply_with_weight="true"
       apply_no_weight="true"
       helper_size="0"
       steps="2"
       weight="33.333333"
       is_visible="true"
       id="path-effect2963"
       effect="bspline" />
    <inkscape:path-effect
       only_selected="false"
       apply_with_weight="true"
       apply_no_weight="true"
       helper_size="0"
       steps="2"
       weight="33.333333"
       is_visible="true"
       id="path-effect2959"
       effect="bspline" />
    <inkscape:path-effect
       only_selected="false"
       apply_with_weight="true"
       apply_no_weight="true"
       helper_size="0"
       steps="2"
       weight="33.333333"
       is_visible="true"
       id="path-effect2955"
       effect="bspline" />
    <inkscape:path-effect
       only_selected="false"
       apply_with_weight="true"
       apply_no_weight="true"
       helper_size="0"
       steps="2"
       weight="33.333333"
       is_visible="true"
       id="path-effect2951"
       effect="bspline" />
    <inkscape:path-effect
       only_selected="false"
       apply_with_weight="true"
       apply_no_weight="true"
       helper_size="0"
       steps="2"
       weight="33.333333"
       is_visible="true"
       id="path-effect2947"
       effect="bspline" />
    <inkscape:path-effect
       only_selected="false"
       apply_with_weight="true"
       apply_no_weight="true"
       helper_size="0"
       steps="2"
       weight="33.333333"
       is_visible="true"
       id="path-effect2943"
       effect="bspline" />
    <inkscape:path-effect
       only_selected="false"
       apply_with_weight="true"
       apply_no_weight="true"
       helper_size="0"
       steps="2"
       weight="33.333333"
       is_visible="true"
       id="path-effect2939"
       effect="bspline" />
    <inkscape:path-effect
       only_selected="false"
       apply_with_weight="true"
       apply_no_weight="true"
       helper_size="0"
       steps="2"
       weight="33.333333"
       is_visible="true"
       id="path-effect2935"
       effect="bspline" />
    <inkscape:path-effect
       only_selected="false"
       apply_with_weight="true"
       apply_no_weight="true"
       helper_size="0"
       steps="2"
       weight="33.333333"
       is_visible="true"
       id="path-effect2931"
       effect="bspline" />
    <inkscape:path-effect
       only_selected="false"
       apply_with_weight="true"
       apply_no_weight="true"
       helper_size="0"
       steps="2"
       weight="33.333333"
       is_visible="true"
       id="path-effect2927"
       effect="bspline" />
    <inkscape:path-effect
       only_selected="false"
       apply_with_weight="true"
       apply_no_weight="true"
       helper_size="0"
       steps="2"
       weight="33.333333"
       is_visible="true"
       id="path-effect2923"
       effect="bspline" />
    <inkscape:path-effect
       only_selected="false"
       apply_with_weight="true"
       apply_no_weight="true"
       helper_size="0"
       steps="2"
       weight="33.333333"
       is_visible="true"
       id="path-effect1584"
       effect="bspline" />
    <inkscape:path-effect
       only_selected="false"
       apply_with_weight="true"
       apply_no_weight="true"
       helper_size="0"
       steps="2"
       weight="33.333333"
       is_visible="true"
       id="path-effect1580"
       effect="bspline" />
    <inkscape:path-effect
       only_selected="false"
       apply_with_weight="true"
       apply_no_weight="true"
       helper_size="0"
       steps="2"
       weight="33.333333"
       is_visible="true"
       id="path-effect1576"
       effect="bspline" />
    <inkscape:path-effect
       only_selected="false"
       apply_with_weight="true"
       apply_no_weight="true"
       helper_size="0"
       steps="2"
       weight="33.333333"
       is_visible="true"
       id="path-effect1572"
       effect="bspline" />
    <inkscape:path-effect
       effect="bspline"
       id="path-effect1062"
       is_visible="true"
       weight="33.333333"
       steps="2"
       helper_size="0"
       apply_no_weight="true"
       apply_with_weight="true"
       only_selected="false" />
    <inkscape:path-effect
       effect="bspline"
       id="path-effect1058"
       is_visible="true"
       weight="33.333333"
       steps="2"
       helper_size="0"
       apply_no_weight="true"
       apply_with_weight="true"
       only_selected="false" />
    <inkscape:path-effect
       effect="bspline"
       id="path-effect1054"
       is_visible="true"
       weight="33.333333"
       steps="2"
       helper_size="0"
       apply_no_weight="true"
       apply_with_weight="true"
       only_selected="false" />
    <inkscape:path-effect
       effect="bspline"
       id="path-effect1050"
       is_visible="true"
       weight="33.333333"
       steps="2"
       helper_size="0"
       apply_no_weight="true"
       apply_with_weight="true"
       only_selected="false" />
    <inkscape:path-effect
       effect="bspline"
       id="path-effect1046"
       is_visible="true"
       weight="33.333333"
       steps="2"
       helper_size="0"
       apply_no_weight="true"
       apply_with_weight="true"
       only_selected="false" />
    <inkscape:path-effect
       effect="bspline"
       id="path-effect1042"
       is_visible="true"
       weight="33.333333"
       steps="2"
       helper_size="0"
       apply_no_weight="true"
       apply_with_weight="true"
       only_selected="false" />
    <inkscape:path-effect
       effect="bspline"
       id="path-effect1038"
       is_visible="true"
       weight="33.333333"
       steps="2"
       helper_size="0"
       apply_no_weight="true"
       apply_with_weight="true"
       only_selected="false" />
    <inkscape:path-effect
       effect="bspline"
       id="path-effect3264"
       is_visible="true"
       weight="33.333333"
       steps="2"
       helper_size="0"
       apply_no_weight="true"
       apply_with_weight="true"
       only_selected="false" />
    <inkscape:path-effect
       effect="bspline"
       id="path-effect3260"
       is_visible="true"
       weight="33.333333"
       steps="2"
       helper_size="0"
       apply_no_weight="true"
       apply_with_weight="true"
       only_selected="false" />
    <inkscape:path-effect
       effect="bspline"
       id="path-effect3256"
       is_visible="true"
       weight="33.333333"
       steps="2"
       helper_size="0"
       apply_no_weight="true"
       apply_with_weight="true"
       only_selected="false" />
    <inkscape:path-effect
       effect="bspline"
       id="path-effect3252"
       is_visible="true"
       weight="33.333333"
       steps="2"
       helper_size="0"
       apply_no_weight="true"
       apply_with_weight="true"
       only_selected="false" />
    <inkscape:path-effect
       effect="bspline"
       id="path-effect3248"
       is_visible="true"
       weight="33.333333"
       steps="2"
       helper_size="0"
       apply_no_weight="true"
       apply_with_weight="true"
       only_selected="false" />
    <inkscape:path-effect
       effect="bspline"
       id="path-effect3244"
       is_visible="true"
       weight="33.333333"
       steps="2"
       helper_size="0"
       apply_no_weight="true"
       apply_with_weight="true"
       only_selected="false" />
    <inkscape:path-effect
       effect="bspline"
       id="path-effect3240"
       is_visible="true"
       weight="33.333333"
       steps="2"
       helper_size="0"
       apply_no_weight="true"
       apply_with_weight="true"
       only_selected="false" />
  </defs>
  <metadata
     id="metadata2688">
    <rdf:RDF>
      <cc:Work
         rdf:about="">
        <dc:format>image/svg+xml</dc:format>
        <dc:type
           rdf:resource="http://purl.org/dc/dcmitype/StillImage" />
        <dc:title />
      </cc:Work>
    </rdf:RDF>
  </metadata>
  <g
     inkscape:label="Layer 1"
     inkscape:groupmode="layer"
     id="layer1">
    <path
       style="fill:none;stroke:#000000;stroke-width:0.2;stroke-linecap:butt;stroke-linejoin:miter;stroke-opacity:1;stroke-miterlimit:4;stroke-dasharray:none"
       d="m 31.75,43.000001 c 49.389153,0 98.77804,0 148.16666,0"
       id="path3242"
       inkscape:connector-curvature="0"
       inkscape:path-effect="#path-effect3244"
       inkscape:original-d="m 31.75,43.000001 c 49.389153,-2.65e-4 98.77804,-2.65e-4 148.16666,0" />
    <path
       style="fill:none;stroke:#000000;stroke-width:0.2;stroke-linecap:butt;stroke-linejoin:miter;stroke-opacity:1;stroke-miterlimit:4;stroke-dasharray:none"
       d="m 105.83333,43.000001 c 0,-9.701654 0,-19.403044 0,-29.104168"
       id="path3250"
       inkscape:connector-curvature="0"
       inkscape:path-effect="#path-effect3252"
       inkscape:original-d="m 105.83333,43.000001 c 2.7e-4,-9.701654 2.7e-4,-19.403044 0,-29.104168" />
    <g
       transform="matrix(0.27734425,0,0,0.35750659,77.985243,-6.1365642)"
       id="g1106">
      <g
         style="font-style:normal;font-variant:normal;font-weight:normal;font-stretch:normal;letter-spacing:normal;word-spacing:normal;text-anchor:start;fill:none;fill-opacity:1;fill-rule:evenodd;stroke:#000000;stroke-linecap:butt;stroke-linejoin:miter;stroke-miterlimit:10.43299961;stroke-dasharray:none;stroke-dashoffset:0;stroke-opacity:1"
         id="content"
         transform="matrix(0.3,0,0,-0.3,-52.5,222.75)"
         xml:space="preserve"
         stroke-miterlimit="10.433"
         font-style="normal"
         font-variant="normal"
         font-weight="normal"
         font-stretch="normal"
         font-size-adjust="none"
         letter-spacing="normal"
         word-spacing="normal"><path
           style="fill:#000000;stroke-width:0"
           inkscape:connector-curvature="0"
           d="m 477.75,447.92 v 0.04 0.04 0.05 0.04 0.03 0.04 0.04 0.03 l -0.01,0.04 v 0.03 0.03 0.03 0.03 l -0.01,0.03 v 0.03 l -0.01,0.02 v 0.03 0.02 l -0.01,0.03 v 0.02 l -0.02,0.04 -0.01,0.04 -0.02,0.03 -0.02,0.03 -0.02,0.03 -0.02,0.03 -0.03,0.02 -0.03,0.02 -0.04,0.02 -0.03,0.01 -0.04,0.01 -0.05,0.02 h -0.02 -0.03 l -0.02,0.01 h -0.03 l -0.03,0.01 h -0.02 -0.03 -0.03 -0.04 l -0.03,0.01 h -0.03 -0.04 -0.04 -0.03 -0.04 -0.04 -0.04 -0.05 -0.04 -0.05 c -2.23,-2.2 -5.39,-2.23 -6.82,-2.23 v -1.25 c 0.84,0 3.14,0 5.04,0.97 v -17.77 c 0,-1.16 0,-1.61 -3.48,-1.61 h -1.32 v -1.25 c 0.63,0.03 4.91,0.14 6.21,0.14 1.08,0 5.47,-0.11 6.23,-0.14 v 1.25 h -1.33 c -3.48,0 -3.48,0.45 -3.48,1.61 z"
           id="path1099" /><polyline
           style="fill:#000000;fill-rule:nonzero;stroke-width:0"
           points="462,418 490.92,418 490.92,420.04 462,420.04 "
           id="polyline1101" /><path
           style="fill:#000000;stroke-width:0"
           inkscape:connector-curvature="0"
           d="m 478.46,410.12 0.01,0.04 0.01,0.05 0.01,0.04 0.01,0.05 0.01,0.04 0.01,0.04 0.01,0.04 0.01,0.04 0.02,0.07 0.02,0.07 0.02,0.06 0.02,0.06 0.02,0.06 0.02,0.05 0.02,0.05 0.02,0.04 0.02,0.04 0.03,0.04 0.02,0.04 0.03,0.03 0.02,0.03 0.03,0.02 0.04,0.03 0.03,0.02 0.04,0.02 0.03,0.02 0.04,0.01 0.05,0.02 0.04,0.01 0.05,0.01 0.05,0.01 0.06,0.01 0.06,0.01 h 0.06 l 0.07,0.01 h 0.07 c 0.17,0.04 1.39,0.04 2.09,0.04 2.12,0 3.03,0 3.89,-0.29 1.58,-0.48 1.64,-1.5 1.64,-2.75 0,-0.54 0,-1 -0.23,-2.81 l -0.08,-0.39 c 0,-0.34 0.25,-0.51 0.59,-0.51 0.53,0 0.6,0.31 0.67,0.86 l 0.94,6.65 c 0,0.5 -0.42,0.5 -1.05,0.5 h -21.43 c -0.86,0 -0.94,0 -1.18,-0.73 l -2.2,-6.17 c -0.03,-0.15 -0.17,-0.46 -0.17,-0.63 0,-0.14 0.06,-0.48 0.59,-0.48 0.46,0 0.52,0.17 0.74,0.82 2.01,5.58 3.17,5.93 8.47,5.93 h 1.45 c 1.05,0 1.08,-0.04 1.08,-0.35 0,-0.03 0,-0.2 -0.14,-0.73 l -4.6,-18.33 c -0.31,-1.28 -0.42,-1.64 -4.07,-1.64 -1.25,0 -1.57,0 -1.57,-0.77 0,-0.09 0.07,-0.48 0.6,-0.48 0.97,0 2.01,0.11 2.98,0.11 0.99,0 2.03,0.03 3,0.03 0.99,0 2.17,0 3.14,-0.03 0.94,-0.05 1.99,-0.11 2.92,-0.11 0.28,0 0.82,0 0.82,0.76 0,0.49 -0.36,0.49 -1.44,0.49 -0.66,0 -1.36,0.05 -2.02,0.08 -1.18,0.09 -1.25,0.23 -1.25,0.65 0,0.25 0,0.32 0.13,0.8 z"
           id="path1103" /></g>    </g>
    <path
       inkscape:original-d="m 52.916666,42.99999 c 2.65e-4,-0.441235 2.65e-4,-0.882208 0,-1.322916"
       inkscape:path-effect="#path-effect1572"
       inkscape:connector-curvature="0"
       id="path1570"
       d="m 52.916666,42.99999 c 0,-0.441235 0,-0.882208 0,-1.322916"
       style="fill:none;stroke:#000000;stroke-width:0.2;stroke-linecap:butt;stroke-linejoin:miter;stroke-opacity:1;stroke-miterlimit:4;stroke-dasharray:none" />
    <path
       inkscape:original-d="m 79.374999,42.99999 c 0.01601,-0.425487 2.65e-4,-0.882208 0,-1.322916"
       inkscape:path-effect="#path-effect1576"
       inkscape:connector-curvature="0"
       id="path1574"
       d="m 79.374999,42.99999 c 0,-0.425487 0,-0.882208 0,-1.322916"
       style="fill:none;stroke:#000000;stroke-width:0.2;stroke-linecap:butt;stroke-linejoin:miter;stroke-opacity:1;stroke-miterlimit:4;stroke-dasharray:none" />
    <path
       inkscape:original-d="m 132.29166,42.99999 c 2.7e-4,-0.441235 2.7e-4,-0.882208 0,-1.322916"
       inkscape:path-effect="#path-effect1580"
       inkscape:connector-curvature="0"
       id="path1578"
       d="m 132.29166,42.99999 c 0,-0.441235 0,-0.882208 0,-1.322916"
       style="fill:none;stroke:#000000;stroke-width:0.2;stroke-linecap:butt;stroke-linejoin:miter;stroke-opacity:1;stroke-miterlimit:4;stroke-dasharray:none" />
    <path
       inkscape:original-d="m 158.75,42.99999 c 2.6e-4,-0.441235 2.6e-4,-0.882208 0,-1.322916"
       inkscape:path-effect="#path-effect1584"
       inkscape:connector-curvature="0"
       id="path1582"
       d="m 158.75,42.99999 c 0,-0.441235 0,-0.882208 0,-1.322916"
       style="fill:none;stroke:#000000;stroke-width:0.2;stroke-linecap:butt;stroke-linejoin:miter;stroke-opacity:1;stroke-miterlimit:4;stroke-dasharray:none" />
    <g
       transform="matrix(0.29618894,0,0,0.29297977,81.406313,-13.862836)"
       id="g2434">
      <g
         style="font-style:normal;font-variant:normal;font-weight:normal;font-stretch:normal;letter-spacing:normal;word-spacing:normal;text-anchor:start;fill:none;fill-opacity:1;fill-rule:evenodd;stroke:#000000;stroke-linecap:butt;stroke-linejoin:miter;stroke-miterlimit:10.43299961;stroke-dasharray:none;stroke-dashoffset:0;stroke-opacity:1"
         id="g2432"
         transform="matrix(0.3,0,0,-0.3,-52.5,222.75)"
         xml:space="preserve"
         stroke-miterlimit="10.433"
         font-style="normal"
         font-variant="normal"
         font-weight="normal"
         font-stretch="normal"
         font-size-adjust="none"
         letter-spacing="normal"
         word-spacing="normal"><path
           style="fill:#000000;stroke-width:0"
           inkscape:connector-curvature="0"
           d="m 479.68,426.68 -4.18,9.91 c -0.15,0.41 -0.25,0.59 -0.25,0.64 0,0.31 0.85,1.25 2.94,1.45 0.5,0.05 1,0.1 1,0.96 0,0.59 -0.61,0.59 -0.75,0.59 -2.05,0 -4.19,-0.16 -6.28,-0.16 -1.25,0 -4.33,0.16 -5.58,0.16 -0.29,0 -0.9,0 -0.9,-1 0,-0.55 0.5,-0.55 1.15,-0.55 2.99,0 3.28,-0.5 3.74,-1.59 l 5.87,-13.91 -10.51,-11.31 -0.64,-0.55 c -2.44,-2.64 -4.79,-3.43 -7.33,-3.57 -0.64,-0.05 -1.1,-0.05 -1.1,-1 0,-0.05 0,-0.55 0.66,-0.55 1.48,0 3.12,0.16 4.67,0.16 1.85,0 3.8,-0.16 5.58,-0.16 0.31,0 0.91,0 0.91,1 0,0.5 -0.5,0.55 -0.6,0.55 -0.45,0.04 -2,0.14 -2,1.54 0,0.8 0.75,1.6 1.35,2.24 l 5.07,5.39 4.49,4.87 5.03,-11.9 c 0.2,-0.55 0.25,-0.6 0.25,-0.71 0,-0.39 -0.94,-1.23 -2.89,-1.43 -0.55,-0.05 -0.99,-0.11 -0.99,-0.96 0,-0.59 0.55,-0.59 0.74,-0.59 1.41,0 4.89,0.16 6.28,0.16 1.25,0 4.28,-0.16 5.53,-0.16 0.35,0 0.95,0 0.95,0.95 0,0.6 -0.5,0.6 -0.9,0.6 -3.33,0.04 -3.44,0.2 -4.28,2.18 -1.94,4.64 -5.28,12.41 -6.42,15.39 3.39,3.5 8.6,9.43 10.2,10.82 1.45,1.2 3.34,2.39 6.33,2.54 0.65,0.05 1.09,0.05 1.09,1 0,0.05 0,0.55 -0.64,0.55 -1.5,0 -3.14,-0.16 -4.69,-0.16 -1.84,0 -3.73,0.16 -5.53,0.16 -0.3,0 -0.94,0 -0.94,-1 0,-0.34 0.25,-0.5 0.6,-0.55 0.45,-0.04 2,-0.15 2,-1.54 0,-0.71 -0.55,-1.35 -0.96,-1.8 z"
           id="path2416" /><path
           style="fill:#000000;stroke-width:0"
           inkscape:connector-curvature="0"
           d="m 511.54,404.4 -0.02,-0.06 -0.02,-0.07 -0.02,-0.08 -0.02,-0.07 -0.01,-0.08 -0.02,-0.08 -0.02,-0.08 -0.02,-0.08 -0.05,-0.17 -0.04,-0.17 -0.04,-0.17 -0.02,-0.08 -0.02,-0.08 -0.02,-0.08 -0.02,-0.07 -0.02,-0.07 -0.02,-0.07 -0.01,-0.07 -0.02,-0.06 -0.02,-0.06 -0.01,-0.06 -0.02,-0.05 -0.01,-0.04 -0.02,-0.04 -0.01,-0.04 v -0.01 l -0.01,-0.01 v -0.01 L 511,402.38 v -0.01 l -0.01,-0.01 v 0 0 c -0.67,-1.08 -2.06,-2.97 -4.22,-2.97 -2.41,0 -2.41,2.26 -2.41,2.89 0,2.06 0.97,4.53 1.96,7.08 0.28,0.7 0.48,1.21 0.48,1.78 0,1.81 -1.53,2.98 -3.31,2.98 -3.49,0 -5.05,-4.76 -5.05,-5.33 0,-0.45 0.49,-0.45 0.6,-0.45 0.48,0 0.51,0.17 0.62,0.56 0.83,2.86 2.38,4.25 3.72,4.25 0.59,0 0.87,-0.39 0.87,-1.22 0,-0.79 -0.28,-1.53 -0.62,-2.32 -1.88,-4.82 -1.88,-5.83 -1.88,-6.77 0,-0.59 0,-2.2 1.29,-3.31 1.01,-0.83 2.37,-1.11 3.59,-1.11 2.19,0 3.37,1.19 4.53,2.29 0.77,-2.23 3.09,-2.29 3.52,-2.29 1.18,0 2.09,0.69 2.75,1.84 0.76,1.36 1.25,3.38 1.25,3.49 0,0.45 -0.49,0.45 -0.58,0.45 -0.5,0 -0.53,-0.14 -0.78,-1.08 -0.41,-1.64 -1.08,-3.73 -2.54,-3.73 -0.9,0 -1.15,0.79 -1.15,1.7 0,0.59 0.28,1.86 0.53,2.77 0.24,0.93 0.58,2.35 0.77,3.12 l 0.79,3.11 c 0.21,0.87 0.6,2.41 0.6,2.58 0,0.69 -0.57,1.11 -1.16,1.11 -1.28,0 -1.53,-1.02 -1.81,-2.13 z"
           id="path2418" /><path
           style="fill:#000000;stroke-width:0"
           inkscape:connector-curvature="0"
           d="m 539.32,394.25 v 0.02 0.03 0.01 0.02 0.01 l -0.01,0.02 v 0.01 l -0.01,0.02 -0.01,0.02 -0.01,0.02 -0.01,0.02 -0.02,0.03 -0.01,0.02 -0.02,0.03 -0.02,0.03 -0.03,0.03 -0.02,0.03 -0.03,0.04 -0.02,0.02 -0.01,0.02 -0.02,0.02 -0.02,0.02 -0.02,0.02 -0.02,0.03 -0.02,0.02 -0.02,0.02 -0.02,0.03 -0.03,0.02 -0.02,0.03 -0.03,0.03 -0.03,0.03 -0.02,0.03 -0.03,0.03 -0.03,0.03 -0.03,0.03 -0.03,0.03 -0.04,0.04 -0.03,0.03 -0.04,0.04 -0.03,0.03 -0.04,0.04 -0.04,0.04 c -6.22,6.28 -7.81,15.69 -7.81,23.31 0,8.67 1.89,17.35 8.01,23.56 0.64,0.61 0.64,0.71 0.64,0.86 0,0.35 -0.18,0.49 -0.48,0.49 -0.5,0 -4.99,-3.38 -7.92,-9.7 -2.55,-5.49 -3.14,-11.02 -3.14,-15.21 0,-3.89 0.54,-9.9 3.28,-15.54 2.98,-6.13 7.28,-9.36 7.78,-9.36 0.3,0 0.48,0.14 0.48,0.5 z"
           id="path2420" /><path
           style="fill:#000000;stroke-width:0"
           inkscape:connector-curvature="0"
           d="m 551.47,417.71 0.14,0.01 h 0.16 0.16 0.18 l 0.19,0.01 h 0.2 l 0.21,0.01 0.21,0.01 0.23,0.01 0.23,0.01 0.24,0.01 0.24,0.02 0.26,0.02 0.25,0.02 0.52,0.05 0.54,0.07 0.54,0.07 0.55,0.1 0.54,0.11 0.53,0.12 0.26,0.07 0.26,0.08 0.26,0.08 0.24,0.08 0.25,0.09 0.23,0.1 c 3.49,1.5 3.74,4.43 3.74,5.12 0,2.2 -1.89,4.23 -5.33,4.23 v -1.09 c 2.34,0 3.69,-1.44 3.69,-3.14 0,-5.17 -7.97,-5.17 -10.02,-5.17 h -2.05 c 1.96,7.56 7.08,8.31 8.38,8.31 v 1.09 c -5.53,0 -13.05,-4.82 -13.05,-13.54 0,-5.08 2.94,-9.02 7.82,-9.02 7.12,0 11.31,5.28 11.31,5.88 0,0.29 -0.3,0.65 -0.6,0.65 -0.25,0 -0.34,-0.11 -0.65,-0.5 -3.94,-4.93 -9.36,-4.93 -9.95,-4.93 -3.9,0 -4.35,4.18 -4.35,5.78 0,0.59 0.05,2.14 0.8,5.18 z"
           id="path2422" /><path
           style="fill:#000000;stroke-width:0"
           inkscape:connector-curvature="0"
           d="m 580.62,445.98 v 0.06 l -0.01,0.05 v 0.06 l -0.01,0.06 -0.02,0.06 -0.01,0.05 -0.02,0.06 -0.02,0.06 -0.02,0.06 -0.03,0.05 -0.02,0.06 -0.04,0.05 -0.03,0.06 -0.04,0.05 -0.03,0.05 -0.05,0.05 -0.04,0.04 -0.05,0.05 -0.05,0.04 -0.05,0.05 -0.06,0.03 -0.06,0.04 -0.06,0.03 -0.06,0.03 -0.07,0.03 -0.07,0.03 -0.07,0.02 -0.07,0.02 -0.08,0.01 -0.08,0.01 -0.09,0.01 h -0.08 c -1.02,0 -1.96,-0.99 -1.96,-1.92 0,-0.57 0.43,-1.33 1.39,-1.33 0.94,0 1.96,0.9 1.96,1.92 z"
           id="path2424" /><path
           style="fill:#000000;stroke-width:0"
           inkscape:connector-curvature="0"
           d="m 573.23,422.5 -0.06,-0.23 -0.07,-0.22 -0.07,-0.22 -0.08,-0.21 -0.09,-0.22 -0.09,-0.21 -0.1,-0.2 -0.11,-0.2 -0.11,-0.2 -0.11,-0.19 -0.13,-0.18 -0.12,-0.18 -0.14,-0.17 -0.13,-0.17 -0.14,-0.16 -0.15,-0.16 -0.15,-0.14 -0.16,-0.14 -0.15,-0.14 -0.17,-0.12 -0.16,-0.12 -0.17,-0.1 -0.17,-0.1 -0.18,-0.09 -0.17,-0.08 -0.18,-0.07 -0.19,-0.06 -0.18,-0.05 -0.19,-0.04 -0.19,-0.03 -0.19,-0.02 -0.19,-0.01 c -0.45,0 -0.87,0.07 -1.26,0.21 0.9,0.42 1.18,1.25 1.18,1.78 0,0.83 -0.65,1.28 -1.36,1.28 -1.07,0 -1.98,-0.94 -1.98,-2.05 0,-1.33 1.36,-2.2 3.45,-2.2 2.1,0 6.16,1.25 7.25,5.5 l 3.13,12.48 c 0.11,0.38 0.17,0.69 0.17,1.22 0,1.91 -1.62,3.27 -3.72,3.27 -3.87,0 -6.09,-4.85 -6.09,-5.33 0,-0.45 0.48,-0.45 0.59,-0.45 0.41,0 0.45,0.11 0.69,0.62 0.87,2.03 2.69,4.19 4.7,4.19 0.88,0 1.19,-0.59 1.19,-1.7 0,-0.39 -0.06,-0.88 -0.11,-1.05 z"
           id="path2426" /><path
           style="fill:#000000;stroke-width:0"
           inkscape:connector-curvature="0"
           d="m 607.59,437.09 v 0.1 0.1 l -0.01,0.1 -0.01,0.11 -0.01,0.1 -0.02,0.11 -0.02,0.1 -0.02,0.11 -0.02,0.1 -0.03,0.11 -0.04,0.1 -0.03,0.1 -0.04,0.1 -0.05,0.1 -0.05,0.09 -0.05,0.1 -0.06,0.09 -0.06,0.08 -0.06,0.09 -0.07,0.07 -0.08,0.08 -0.08,0.07 -0.08,0.06 -0.09,0.06 -0.09,0.05 -0.1,0.05 -0.1,0.04 -0.11,0.04 -0.12,0.02 -0.06,0.01 -0.06,0.01 -0.06,0.01 h -0.06 l -0.07,0.01 h -0.06 c -0.84,0 -1.78,-1.03 -1.78,-1.91 0,-1.15 1.87,-1.39 1.87,-3.76 0,-2.24 -2.22,-7.25 -6.12,-7.25 -1.67,0 -3.07,1.15 -3.57,2.68 0.46,0.77 1.3,3.18 1.3,4.08 0,0.52 -0.31,1.05 -0.9,1.05 -1.79,0 -1.93,-3.77 -1.93,-4.99 -0.97,-1.26 -2.71,-2.82 -4.98,-2.82 -1.88,0 -3.27,1.7 -3.27,4.04 0,4.03 3.58,7.43 3.58,7.94 0,0.42 -0.34,0.81 -0.72,0.81 -0.36,0 -0.56,-0.18 -0.81,-0.5 -0.45,-0.51 -0.91,-1.28 -1.31,-1.98 -1.22,-2.09 -2.1,-5.05 -2.1,-7.56 0,-2.78 1.11,-5.53 4.32,-5.53 2.34,0 4.36,1.53 5.61,3.4 0.67,-2.09 2.2,-3.37 4.43,-3.37 6.13,0 8.25,10.31 8.25,13.2 z"
           id="path2428" /><path
           style="fill:#000000;stroke-width:0"
           inkscape:connector-curvature="0"
           d="m 627.11,418.65 v 0.37 l -0.01,0.39 -0.01,0.39 -0.01,0.41 -0.04,0.84 -0.06,0.88 -0.08,0.92 -0.11,0.95 -0.13,0.97 -0.17,1.01 -0.19,1.02 -0.23,1.03 -0.27,1.05 -0.31,1.06 -0.34,1.07 -0.4,1.07 -0.21,0.53 -0.22,0.53 -0.24,0.53 -0.25,0.53 c -2.99,6.12 -7.27,9.36 -7.77,9.36 -0.29,0 -0.5,-0.19 -0.5,-0.49 0,-0.15 0,-0.25 0.94,-1.15 4.89,-4.92 7.73,-12.85 7.73,-23.27 0,-8.51 -1.84,-17.28 -8.03,-23.56 -0.64,-0.59 -0.64,-0.7 -0.64,-0.84 0,-0.3 0.21,-0.5 0.5,-0.5 0.5,0 4.97,3.39 7.92,9.71 2.54,5.47 3.13,11 3.13,15.19 z"
           id="path2430" /></g>    </g>
    <path
       inkscape:original-d="m 105.83333,32.416657 c 4.36747,3.38065 8.81971,7.055292 13.22917,10.583333"
       inkscape:path-effect="#path-effect2923"
       inkscape:connector-curvature="0"
       id="path2921"
       d="m 105.83333,32.416657 c 4.31219,3.449751 8.81948,7.055581 13.22917,10.583333"
       style="fill:none;stroke:#000000;stroke-width:0.5;stroke-linecap:butt;stroke-linejoin:miter;stroke-opacity:1;stroke-miterlimit:4;stroke-dasharray:none" />
    <path
       inkscape:original-d="m 132.29166,32.416657 c 4.40999,3.527515 8.81971,7.055292 13.22917,10.583333"
       inkscape:path-effect="#path-effect2927"
       inkscape:connector-curvature="0"
       id="path2925"
       d="m 132.29166,32.416657 c 4.40976,3.527805 8.81948,7.055581 13.22917,10.583333"
       style="fill:none;stroke:#000000;stroke-width:0.5;stroke-linecap:butt;stroke-linejoin:miter;stroke-opacity:1;stroke-miterlimit:4;stroke-dasharray:none" />
    <path
       inkscape:original-d="m 158.75,32.416657 c 4.40999,3.527515 8.81971,7.055292 13.22916,10.583333"
       inkscape:path-effect="#path-effect2931"
       inkscape:connector-curvature="0"
       id="path2929"
       d="m 158.75,32.416657 c 4.40976,3.527807 8.81948,7.055584 13.22916,10.583333"
       style="fill:none;stroke:#000000;stroke-width:0.5;stroke-linecap:butt;stroke-linejoin:miter;stroke-opacity:1;stroke-miterlimit:4;stroke-dasharray:none" />
    <path
       inkscape:original-d="m 119.0625,42.99999 c 4.40999,-3.528041 8.81971,-7.055818 13.22916,-10.583333"
       inkscape:path-effect="#path-effect2935"
       inkscape:connector-curvature="0"
       id="path2933"
       d="m 119.0625,42.99999 c 4.41001,-3.528012 8.81973,-7.05579 13.22916,-10.583333"
       style="fill:none;stroke:#000000;stroke-width:0.5;stroke-linecap:butt;stroke-linejoin:miter;stroke-opacity:1;stroke-miterlimit:4;stroke-dasharray:none" />
    <path
       inkscape:original-d="m 145.52083,42.99999 c 4.40999,-3.528041 8.81971,-7.055818 13.22917,-10.583333"
       inkscape:path-effect="#path-effect2939"
       inkscape:connector-curvature="0"
       id="path2937"
       d="m 145.52083,42.99999 c 4.41001,-3.528011 8.81974,-7.055786 13.22917,-10.583333"
       style="fill:none;stroke:#000000;stroke-width:0.5;stroke-linecap:butt;stroke-linejoin:miter;stroke-opacity:1;stroke-miterlimit:4;stroke-dasharray:none" />
    <path
       inkscape:original-d="m 105.83333,32.416657 c -4.40946,3.527515 -8.819177,7.055292 -13.229164,10.583333"
       inkscape:path-effect="#path-effect2943"
       inkscape:connector-curvature="0"
       id="path2941"
       d="M 105.83333,32.416657 C 101.4239,35.944205 97.014178,39.47198 92.604166,42.99999"
       style="fill:none;stroke:#000000;stroke-width:0.5;stroke-linecap:butt;stroke-linejoin:miter;stroke-opacity:1;stroke-miterlimit:4;stroke-dasharray:none" />
    <path
       inkscape:original-d="M 92.604166,42.99999 C 88.194707,39.471949 83.784987,35.944172 79.374999,32.416657"
       inkscape:path-effect="#path-effect2947"
       inkscape:connector-curvature="0"
       id="path2945"
       d="M 92.604166,42.99999 C 88.194476,39.472238 83.784755,35.944462 79.374999,32.416657"
       style="fill:none;stroke:#000000;stroke-width:0.5;stroke-linecap:butt;stroke-linejoin:miter;stroke-opacity:1;stroke-miterlimit:4;stroke-dasharray:none" />
    <path
       inkscape:original-d="M 66.145832,42.99999 C 70.55717,39.556539 74.965541,35.944172 79.374999,32.416657"
       inkscape:path-effect="#path-effect2951"
       inkscape:connector-curvature="0"
       id="path2949"
       d="m 66.145832,42.99999 c 4.369573,-3.495658 8.819734,-7.055787 13.229167,-10.583333"
       style="fill:none;stroke:#000000;stroke-width:0.5;stroke-linecap:butt;stroke-linejoin:miter;stroke-opacity:1;stroke-miterlimit:4;stroke-dasharray:none" />
    <path
       inkscape:original-d="m 39.6875,42.99999 c 4.409987,-3.528041 8.819708,-7.055818 13.229166,-10.583333"
       inkscape:path-effect="#path-effect2955"
       inkscape:connector-curvature="0"
       id="path2953"
       d="m 39.6875,42.99999 c 4.410012,-3.52801 8.819733,-7.055787 13.229166,-10.583333"
       style="fill:none;stroke:#000000;stroke-width:0.5;stroke-linecap:butt;stroke-linejoin:miter;stroke-opacity:1;stroke-miterlimit:4;stroke-dasharray:none" />
    <path
       inkscape:original-d="M 66.145832,42.99999 C 61.737274,39.556539 57.326654,35.944172 52.916666,32.416657"
       inkscape:path-effect="#path-effect2959"
       inkscape:connector-curvature="0"
       id="path2957"
       d="M 66.145832,42.99999 C 61.777955,39.505688 57.326422,35.944462 52.916666,32.416657"
       style="fill:none;stroke:#000000;stroke-width:0.5;stroke-linecap:butt;stroke-linejoin:miter;stroke-opacity:1;stroke-miterlimit:4;stroke-dasharray:none" />
    <path
       inkscape:original-d="m 171.97916,42.99999 c 2.6461,-2.646098 5.29194,-5.291931 7.9375,-7.9375"
       inkscape:path-effect="#path-effect2963"
       inkscape:connector-curvature="0"
       id="path2961"
       d="m 171.97916,42.99999 c 2.6461,-2.646099 5.29194,-5.291936 7.9375,-7.9375"
       style="fill:none;stroke:#000000;stroke-width:0.5;stroke-linecap:butt;stroke-linejoin:miter;stroke-opacity:1;stroke-miterlimit:4;stroke-dasharray:none" />
    <path
       inkscape:original-d="M 39.6875,42.99999 C 37.041931,40.794865 34.396097,38.590005 31.75,36.385407"
       inkscape:path-effect="#path-effect2967"
       inkscape:connector-curvature="0"
       id="path2965"
       d="M 39.6875,42.99999 C 37.041693,40.795151 34.39586,38.59029 31.75,36.385407"
       style="fill:none;stroke:#000000;stroke-width:0.5;stroke-linecap:butt;stroke-linejoin:miter;stroke-opacity:1;stroke-miterlimit:4;stroke-dasharray:none" />
    <g
       transform="matrix(0.30503348,0,0,0.39571968,23.060405,8.8374995)"
       id="g3491">
      <g
         style="font-style:normal;font-variant:normal;font-weight:normal;font-stretch:normal;letter-spacing:normal;word-spacing:normal;text-anchor:start;fill:none;fill-opacity:1;fill-rule:evenodd;stroke:#000000;stroke-linecap:butt;stroke-linejoin:miter;stroke-miterlimit:10.43299961;stroke-dasharray:none;stroke-dashoffset:0;stroke-opacity:1"
         word-spacing="normal"
         letter-spacing="normal"
         font-size-adjust="none"
         font-stretch="normal"
         font-weight="normal"
         font-variant="normal"
         font-style="normal"
         stroke-miterlimit="10.433"
         xml:space="preserve"
         transform="matrix(0.3,0,0,-0.3,-52.5,222.75)"
         id="g3489"><path
           style="fill:#000000;stroke-width:0"
           inkscape:connector-curvature="0"
           id="path3479"
           d="m 488.35,417.65 h 0.16 0.16 l 0.15,0.01 h 0.08 l 0.08,0.01 h 0.07 l 0.08,0.01 0.07,0.01 0.07,0.01 0.07,0.02 0.07,0.02 0.07,0.02 0.06,0.02 0.06,0.02 0.06,0.03 0.05,0.03 0.06,0.04 0.05,0.03 0.04,0.05 0.04,0.04 0.04,0.05 0.02,0.03 0.02,0.03 0.01,0.03 0.02,0.03 0.01,0.03 0.02,0.03 0.01,0.04 0.01,0.03 0.01,0.04 v 0.04 l 0.01,0.04 0.01,0.04 v 0.04 l 0.01,0.04 v 0.05 0.04 c 0,1 -0.91,1 -1.75,1 h -26.96 c -0.84,0 -1.73,0 -1.73,-1 0,-1 0.89,-1 1.73,-1 z" /><path
           style="fill:#000000;stroke-width:0"
           inkscape:connector-curvature="0"
           id="path3481"
           d="m 518.72,431.48 v 1.25 h -3.88 v 15.55 c 0,0.72 0,0.97 -0.76,0.97 -0.42,0 -0.56,0 -0.91,-0.49 l -11.53,-16.03 v -1.25 h 10.25 l 0.23,1.25 h -9.2 l 9.2,12.75 v -12.75 l -0.23,-1.25 v -2.86 c 0,-1.19 0,-1.61 -2.83,-1.61 h -0.94 v -1.25 c 1.74,0.06 3.97,0.14 5.22,0.14 1.3,0 3.52,-0.08 5.27,-0.14 v 1.25 h -0.94 c -2.83,0 -2.83,0.42 -2.83,1.61 v 2.86 z" /><path
           style="fill:#000000;stroke-width:0"
           inkscape:connector-curvature="0"
           id="path3483"
           d="m 530.92,438.42 h 4.14 c -0.53,-2.1 -1.29,-5.27 -1.29,-8.02 0,-1.4 0.18,-2.34 0.39,-3.11 0.56,-1.73 1.01,-1.87 1.56,-1.87 0.81,0 1.64,0.73 1.64,1.56 0,0.28 -0.06,0.42 -0.28,0.77 -0.66,1.29 -1.28,3.28 -1.28,6.14 0,0.65 0,2.04 0.48,4.53 h 4.36 c 0.63,0 0.91,0 1.28,0.26 0.49,0.36 0.6,0.91 0.6,1.08 0,1.02 -0.91,1.02 -1.5,1.02 h -13.13 c -1.44,0 -2.41,-0.32 -3.98,-1.78 -0.91,-0.8 -2.27,-2.68 -2.27,-2.99 0,-0.42 0.45,-0.42 0.59,-0.42 0.39,0 0.43,0.06 0.63,0.37 1.78,2.46 3.94,2.46 4.7,2.46 h 2.13 c -1.08,-3.85 -2.96,-7.96 -4,-10.05 -0.21,-0.45 -0.57,-1.19 -0.66,-1.31 -0.05,-0.14 -0.11,-0.28 -0.11,-0.53 0,-0.57 0.42,-1.11 1.22,-1.11 1.39,0 1.78,1.56 2.61,4.7 z" /><polyline
           style="fill:#000000;fill-rule:nonzero;stroke-width:0"
           id="polyline3485"
           points="500,418 544.52,418 544.52,420.04 500,420.04 " /><path
           style="fill:#000000;stroke-width:0"
           inkscape:connector-curvature="0"
           id="path3487"
           d="m 523.16,409.98 0.03,0.11 0.03,0.11 0.03,0.11 0.02,0.1 0.03,0.09 0.04,0.1 0.03,0.08 0.04,0.08 0.04,0.08 0.04,0.07 0.05,0.07 0.06,0.06 0.06,0.06 0.07,0.06 0.08,0.05 0.08,0.05 0.09,0.04 0.1,0.04 0.11,0.04 0.12,0.03 0.07,0.02 0.06,0.01 0.07,0.01 0.08,0.02 0.07,0.01 0.08,0.01 0.09,0.01 0.08,0.01 0.09,0.01 0.09,0.01 0.1,0.01 0.1,0.01 h 0.1 l 0.11,0.01 h 0.11 l 0.11,0.01 h 0.12 l 0.12,0.01 h 0.13 0.13 0.13 0.14 l 0.15,0.01 h 0.14 c 1.08,0 1.43,0 1.43,0.76 0,0.03 -0.03,0.49 -0.6,0.49 -0.79,0 -1.73,-0.07 -2.58,-0.11 -0.87,-0.03 -1.9,-0.03 -2.78,-0.03 -0.73,0 -1.67,0.03 -2.4,0.03 -0.74,0 -1.57,0.11 -2.27,0.11 -0.2,0 -0.73,0 -0.73,-0.77 0,-0.48 0.42,-0.48 1.12,-0.48 0.03,0 0.69,0 1.31,-0.08 0.74,-0.06 0.82,-0.14 0.82,-0.49 0,-0.06 0,-0.23 -0.14,-0.76 l -4.64,-18.5 c -0.32,-1.19 -0.39,-1.47 -3.07,-1.47 -0.59,0 -1.04,0 -1.04,-0.74 0,-0.51 0.42,-0.51 1.04,-0.51 h 17.52 c 0.88,0 0.91,0.03 1.19,0.7 0.36,0.94 2.97,7.69 2.97,7.97 0,0.11 -0.08,0.5 -0.6,0.5 -0.42,0 -0.48,-0.19 -0.7,-0.73 -1.31,-3.32 -2.86,-7.19 -9.23,-7.19 h -3.94 c -1.08,0 -1.11,0.05 -1.11,0.36 0,0.03 0,0.2 0.14,0.72 z" /></g>    </g>
    <g
       transform="matrix(0.31290747,0,0,0.38227517,48.216131,10.13604)"
       id="g3701">
      <g
         style="font-style:normal;font-variant:normal;font-weight:normal;font-stretch:normal;letter-spacing:normal;word-spacing:normal;text-anchor:start;fill:none;fill-opacity:1;fill-rule:evenodd;stroke:#000000;stroke-linecap:butt;stroke-linejoin:miter;stroke-miterlimit:10.43299961;stroke-dasharray:none;stroke-dashoffset:0;stroke-opacity:1"
         id="g3699"
         transform="matrix(0.3,0,0,-0.3,-52.5,222.75)"
         xml:space="preserve"
         stroke-miterlimit="10.433"
         font-style="normal"
         font-variant="normal"
         font-weight="normal"
         font-stretch="normal"
         font-size-adjust="none"
         letter-spacing="normal"
         word-spacing="normal"><path
           style="fill:#000000;stroke-width:0"
           inkscape:connector-curvature="0"
           d="m 488.35,417.65 h 0.16 0.16 l 0.15,0.01 h 0.08 l 0.08,0.01 h 0.07 l 0.08,0.01 0.07,0.01 0.07,0.01 0.07,0.02 0.07,0.02 0.07,0.02 0.06,0.02 0.06,0.02 0.06,0.03 0.05,0.03 0.06,0.04 0.05,0.03 0.04,0.05 0.04,0.04 0.04,0.05 0.02,0.03 0.02,0.03 0.01,0.03 0.02,0.03 0.01,0.03 0.02,0.03 0.01,0.04 0.01,0.03 0.01,0.04 v 0.04 l 0.01,0.04 0.01,0.04 v 0.04 l 0.01,0.04 v 0.05 0.04 c 0,1 -0.91,1 -1.75,1 h -26.96 c -0.84,0 -1.73,0 -1.73,-1 0,-1 0.89,-1 1.73,-1 z"
           id="path3689" /><path
           style="fill:#000000;stroke-width:0"
           inkscape:connector-curvature="0"
           d="m 517.88,432.11 h -1.19 c -0.1,-0.77 -0.46,-2.83 -0.91,-3.18 -0.26,-0.2 -2.95,-0.2 -3.44,-0.2 h -6.42 c 3.66,3.23 4.88,4.2 6.97,5.84 2.58,2.07 4.99,4.22 4.99,7.54 0,4.21 -3.69,6.79 -8.16,6.79 -4.31,0 -7.25,-3.03 -7.25,-6.23 0,-1.78 1.5,-1.96 1.86,-1.96 0.83,0 1.84,0.6 1.84,1.85 0,0.62 -0.25,1.84 -2.06,1.84 1.08,2.47 3.45,3.24 5.09,3.24 3.49,0 5.3,-2.71 5.3,-5.53 0,-3.04 -2.16,-5.44 -3.28,-6.69 l -8.39,-8.3 c -0.36,-0.31 -0.36,-0.39 -0.36,-1.36 h 14.36 z"
           id="path3691" /><path
           style="fill:#000000;stroke-width:0"
           inkscape:connector-curvature="0"
           d="m 530.92,438.42 h 4.14 c -0.53,-2.1 -1.29,-5.27 -1.29,-8.02 0,-1.4 0.18,-2.34 0.39,-3.11 0.56,-1.73 1.01,-1.87 1.56,-1.87 0.81,0 1.64,0.73 1.64,1.56 0,0.28 -0.06,0.42 -0.28,0.77 -0.66,1.29 -1.28,3.28 -1.28,6.14 0,0.65 0,2.04 0.48,4.53 h 4.36 c 0.63,0 0.91,0 1.28,0.26 0.49,0.36 0.6,0.91 0.6,1.08 0,1.02 -0.91,1.02 -1.5,1.02 h -13.13 c -1.44,0 -2.41,-0.32 -3.98,-1.78 -0.91,-0.8 -2.27,-2.68 -2.27,-2.99 0,-0.42 0.45,-0.42 0.59,-0.42 0.39,0 0.43,0.06 0.63,0.37 1.78,2.46 3.94,2.46 4.7,2.46 h 2.13 c -1.08,-3.85 -2.96,-7.96 -4,-10.05 -0.21,-0.45 -0.57,-1.19 -0.66,-1.31 -0.05,-0.14 -0.11,-0.28 -0.11,-0.53 0,-0.57 0.42,-1.11 1.22,-1.11 1.39,0 1.78,1.56 2.61,4.7 z"
           id="path3693" /><polyline
           style="fill:#000000;fill-rule:nonzero;stroke-width:0"
           points="500,418 544.52,418 544.52,420.04 500,420.04 "
           id="polyline3695" /><path
           style="fill:#000000;stroke-width:0"
           inkscape:connector-curvature="0"
           d="m 523.16,409.98 0.03,0.11 0.03,0.11 0.03,0.11 0.02,0.1 0.03,0.09 0.04,0.1 0.03,0.08 0.04,0.08 0.04,0.08 0.04,0.07 0.05,0.07 0.06,0.06 0.06,0.06 0.07,0.06 0.08,0.05 0.08,0.05 0.09,0.04 0.1,0.04 0.11,0.04 0.12,0.03 0.07,0.02 0.06,0.01 0.07,0.01 0.08,0.02 0.07,0.01 0.08,0.01 0.09,0.01 0.08,0.01 0.09,0.01 0.09,0.01 0.1,0.01 0.1,0.01 h 0.1 l 0.11,0.01 h 0.11 l 0.11,0.01 h 0.12 l 0.12,0.01 h 0.13 0.13 0.13 0.14 l 0.15,0.01 h 0.14 c 1.08,0 1.43,0 1.43,0.76 0,0.03 -0.03,0.49 -0.6,0.49 -0.79,0 -1.73,-0.07 -2.58,-0.11 -0.87,-0.03 -1.9,-0.03 -2.78,-0.03 -0.73,0 -1.67,0.03 -2.4,0.03 -0.74,0 -1.57,0.11 -2.27,0.11 -0.2,0 -0.73,0 -0.73,-0.77 0,-0.48 0.42,-0.48 1.12,-0.48 0.03,0 0.69,0 1.31,-0.08 0.74,-0.06 0.82,-0.14 0.82,-0.49 0,-0.06 0,-0.23 -0.14,-0.76 l -4.64,-18.5 c -0.32,-1.19 -0.39,-1.47 -3.07,-1.47 -0.59,0 -1.04,0 -1.04,-0.74 0,-0.51 0.42,-0.51 1.04,-0.51 h 17.52 c 0.88,0 0.91,0.03 1.19,0.7 0.36,0.94 2.97,7.69 2.97,7.97 0,0.11 -0.08,0.5 -0.6,0.5 -0.42,0 -0.48,-0.19 -0.7,-0.73 -1.31,-3.32 -2.86,-7.19 -9.23,-7.19 h -3.94 c -1.08,0 -1.11,0.05 -1.11,0.36 0,0.03 0,0.2 0.14,0.72 z"
           id="path3697" /></g>    </g>
    <g
       transform="matrix(0.31599847,0,0,0.36403322,62.375586,11.794691)"
       id="g3923">
      <g
         style="font-style:normal;font-variant:normal;font-weight:normal;font-stretch:normal;letter-spacing:normal;word-spacing:normal;text-anchor:start;fill:none;fill-opacity:1;fill-rule:evenodd;stroke:#000000;stroke-linecap:butt;stroke-linejoin:miter;stroke-miterlimit:10.43299961;stroke-dasharray:none;stroke-dashoffset:0;stroke-opacity:1"
         word-spacing="normal"
         letter-spacing="normal"
         font-size-adjust="none"
         font-stretch="normal"
         font-weight="normal"
         font-variant="normal"
         font-style="normal"
         stroke-miterlimit="10.433"
         xml:space="preserve"
         transform="matrix(0.3,0,0,-0.3,-52.5,222.75)"
         id="g3921"><path
           style="fill:#000000;stroke-width:0"
           inkscape:connector-curvature="0"
           id="path3913"
           d="m 488.35,417.65 h 0.16 0.16 l 0.15,0.01 h 0.08 l 0.08,0.01 h 0.07 l 0.08,0.01 0.07,0.01 0.07,0.01 0.07,0.02 0.07,0.02 0.07,0.02 0.06,0.02 0.06,0.02 0.06,0.03 0.05,0.03 0.06,0.04 0.05,0.03 0.04,0.05 0.04,0.04 0.04,0.05 0.02,0.03 0.02,0.03 0.01,0.03 0.02,0.03 0.01,0.03 0.02,0.03 0.01,0.04 0.01,0.03 0.01,0.04 v 0.04 l 0.01,0.04 0.01,0.04 v 0.04 l 0.01,0.04 v 0.05 0.04 c 0,1 -0.91,1 -1.75,1 h -26.96 c -0.84,0 -1.73,0 -1.73,-1 0,-1 0.89,-1 1.73,-1 z" /><path
           style="fill:#000000;stroke-width:0"
           inkscape:connector-curvature="0"
           id="path3915"
           d="m 512.45,438.42 h 4.14 c -0.54,-2.1 -1.3,-5.27 -1.3,-8.02 0,-1.4 0.19,-2.34 0.39,-3.11 0.56,-1.73 1.02,-1.87 1.56,-1.87 0.81,0 1.64,0.73 1.64,1.56 0,0.28 -0.06,0.42 -0.28,0.77 -0.65,1.29 -1.28,3.28 -1.28,6.14 0,0.65 0,2.04 0.48,4.53 h 4.36 c 0.63,0 0.91,0 1.29,0.26 0.48,0.36 0.59,0.91 0.59,1.08 0,1.02 -0.91,1.02 -1.5,1.02 h -13.13 c -1.43,0 -2.4,-0.32 -3.98,-1.78 -0.91,-0.8 -2.27,-2.68 -2.27,-2.99 0,-0.42 0.46,-0.42 0.6,-0.42 0.39,0 0.42,0.06 0.62,0.37 1.78,2.46 3.94,2.46 4.71,2.46 h 2.12 c -1.08,-3.85 -2.95,-7.96 -4,-10.05 -0.2,-0.45 -0.56,-1.19 -0.66,-1.31 -0.04,-0.14 -0.1,-0.28 -0.1,-0.53 0,-0.57 0.42,-1.11 1.21,-1.11 1.39,0 1.79,1.56 2.61,4.7 z" /><polyline
           style="fill:#000000;fill-rule:nonzero;stroke-width:0"
           id="polyline3917"
           points="500,418 527.36,418 527.36,420.04 500,420.04 " /><path
           style="fill:#000000;stroke-width:0"
           inkscape:connector-curvature="0"
           id="path3919"
           d="m 514.64,409.98 0.03,0.11 0.03,0.11 0.03,0.11 0.02,0.1 0.04,0.09 0.03,0.1 0.03,0.08 0.04,0.08 0.04,0.08 0.04,0.07 0.05,0.07 0.06,0.06 0.06,0.06 0.07,0.06 0.08,0.05 0.08,0.05 0.09,0.04 0.1,0.04 0.11,0.04 0.12,0.03 0.07,0.02 0.07,0.01 0.07,0.01 0.07,0.02 0.07,0.01 0.08,0.01 0.09,0.01 0.08,0.01 0.09,0.01 0.09,0.01 0.1,0.01 0.1,0.01 h 0.1 l 0.11,0.01 h 0.11 l 0.11,0.01 h 0.12 l 0.12,0.01 h 0.13 0.13 0.14 0.13 l 0.15,0.01 h 0.15 c 1.07,0 1.42,0 1.42,0.76 0,0.03 -0.03,0.49 -0.6,0.49 -0.79,0 -1.73,-0.07 -2.57,-0.11 -0.88,-0.03 -1.91,-0.03 -2.79,-0.03 -0.73,0 -1.67,0.03 -2.4,0.03 -0.74,0 -1.56,0.11 -2.27,0.11 -0.2,0 -0.73,0 -0.73,-0.77 0,-0.48 0.42,-0.48 1.12,-0.48 0.03,0 0.69,0 1.32,-0.08 0.73,-0.06 0.81,-0.14 0.81,-0.49 0,-0.06 0,-0.23 -0.14,-0.76 l -4.64,-18.5 c -0.32,-1.19 -0.39,-1.47 -3.07,-1.47 -0.59,0 -1.04,0 -1.04,-0.74 0,-0.51 0.42,-0.51 1.04,-0.51 h 17.52 c 0.87,0 0.91,0.03 1.19,0.7 0.36,0.94 2.97,7.69 2.97,7.97 0,0.11 -0.08,0.5 -0.6,0.5 -0.42,0 -0.48,-0.19 -0.7,-0.73 -1.31,-3.32 -2.86,-7.19 -9.23,-7.19 h -3.94 c -1.08,0 -1.11,0.05 -1.11,0.36 0,0.03 0,0.2 0.14,0.72 z" /></g>    </g>
    <g
       transform="matrix(0.32522178,0,0,0.37065987,89.631733,11.230558)"
       id="g4155">
      <g
         style="font-style:normal;font-variant:normal;font-weight:normal;font-stretch:normal;letter-spacing:normal;word-spacing:normal;text-anchor:start;fill:none;fill-opacity:1;fill-rule:evenodd;stroke:#000000;stroke-linecap:butt;stroke-linejoin:miter;stroke-miterlimit:10.43299961;stroke-dasharray:none;stroke-dashoffset:0;stroke-opacity:1"
         id="g4153"
         transform="matrix(0.3,0,0,-0.3,-52.5,222.75)"
         xml:space="preserve"
         stroke-miterlimit="10.433"
         font-style="normal"
         font-variant="normal"
         font-weight="normal"
         font-stretch="normal"
         font-size-adjust="none"
         letter-spacing="normal"
         word-spacing="normal"><path
           style="fill:#000000;stroke-width:0"
           inkscape:connector-curvature="0"
           d="m 473.8,438.42 h 4.15 c -0.54,-2.1 -1.3,-5.27 -1.3,-8.02 0,-1.4 0.19,-2.34 0.39,-3.11 0.56,-1.73 1.01,-1.87 1.56,-1.87 0.81,0 1.64,0.73 1.64,1.56 0,0.28 -0.06,0.42 -0.28,0.77 -0.66,1.29 -1.28,3.28 -1.28,6.14 0,0.65 0,2.04 0.48,4.53 h 4.36 c 0.63,0 0.91,0 1.28,0.26 0.49,0.36 0.6,0.91 0.6,1.08 0,1.02 -0.91,1.02 -1.5,1.02 h -13.13 c -1.43,0 -2.4,-0.32 -3.98,-1.78 -0.91,-0.8 -2.27,-2.68 -2.27,-2.99 0,-0.42 0.46,-0.42 0.6,-0.42 0.39,0 0.42,0.06 0.62,0.37 1.78,2.46 3.94,2.46 4.71,2.46 h 2.12 c -1.08,-3.85 -2.95,-7.96 -4,-10.05 -0.2,-0.45 -0.56,-1.19 -0.66,-1.31 -0.04,-0.14 -0.11,-0.28 -0.11,-0.53 0,-0.57 0.43,-1.11 1.22,-1.11 1.39,0 1.78,1.56 2.61,4.7 z"
           id="path4147" /><polyline
           style="fill:#000000;fill-rule:nonzero;stroke-width:0"
           points="462,418 489.36,418 489.36,420.04 462,420.04 "
           id="polyline4149" /><path
           style="fill:#000000;stroke-width:0"
           inkscape:connector-curvature="0"
           d="m 475.88,409.98 0.03,0.11 0.03,0.11 0.02,0.11 0.03,0.1 0.03,0.09 0.03,0.1 0.04,0.08 0.04,0.08 0.04,0.08 0.04,0.07 0.05,0.07 0.06,0.06 0.06,0.06 0.07,0.06 0.07,0.05 0.09,0.05 0.09,0.04 0.1,0.04 0.11,0.04 0.12,0.03 0.07,0.02 0.06,0.01 0.07,0.01 0.08,0.02 0.07,0.01 0.08,0.01 0.08,0.01 0.09,0.01 0.09,0.01 0.09,0.01 0.1,0.01 0.1,0.01 h 0.1 l 0.11,0.01 h 0.11 l 0.11,0.01 h 0.12 l 0.12,0.01 h 0.13 0.13 0.13 0.14 l 0.15,0.01 h 0.14 c 1.08,0 1.43,0 1.43,0.76 0,0.03 -0.04,0.49 -0.6,0.49 -0.79,0 -1.73,-0.07 -2.58,-0.11 -0.87,-0.03 -1.9,-0.03 -2.78,-0.03 -0.73,0 -1.67,0.03 -2.4,0.03 -0.74,0 -1.57,0.11 -2.27,0.11 -0.2,0 -0.73,0 -0.73,-0.77 0,-0.48 0.42,-0.48 1.12,-0.48 0.03,0 0.69,0 1.31,-0.08 0.74,-0.06 0.82,-0.14 0.82,-0.49 0,-0.06 0,-0.23 -0.14,-0.76 l -4.64,-18.5 c -0.32,-1.19 -0.4,-1.47 -3.07,-1.47 -0.59,0 -1.04,0 -1.04,-0.74 0,-0.51 0.42,-0.51 1.04,-0.51 h 17.52 c 0.87,0 0.9,0.03 1.19,0.7 0.36,0.94 2.96,7.69 2.96,7.97 0,0.11 -0.07,0.5 -0.59,0.5 -0.42,0 -0.48,-0.19 -0.7,-0.73 -1.31,-3.32 -2.86,-7.19 -9.24,-7.19 h -3.93 c -1.08,0 -1.11,0.05 -1.11,0.36 0,0.03 0,0.2 0.14,0.72 z"
           id="path4151" /></g>    </g>
    <g
       transform="matrix(0.29993294,0,0,0.34746647,103.4465,13.555373)"
       id="g4399">
      <g
         style="font-style:normal;font-variant:normal;font-weight:normal;font-stretch:normal;letter-spacing:normal;word-spacing:normal;text-anchor:start;fill:none;fill-opacity:1;fill-rule:evenodd;stroke:#000000;stroke-linecap:butt;stroke-linejoin:miter;stroke-miterlimit:10.43299961;stroke-dasharray:none;stroke-dashoffset:0;stroke-opacity:1"
         word-spacing="normal"
         letter-spacing="normal"
         font-size-adjust="none"
         font-stretch="normal"
         font-weight="normal"
         font-variant="normal"
         font-style="normal"
         stroke-miterlimit="10.433"
         xml:space="preserve"
         transform="matrix(0.3,0,0,-0.3,-52.5,222.75)"
         id="g4397"><path
           style="fill:#000000;stroke-width:0"
           inkscape:connector-curvature="0"
           id="path4389"
           d="m 479.11,432.11 h -1.18 c -0.1,-0.77 -0.46,-2.83 -0.91,-3.18 -0.27,-0.2 -2.95,-0.2 -3.44,-0.2 h -6.42 c 3.66,3.23 4.88,4.2 6.97,5.84 2.58,2.07 4.98,4.22 4.98,7.54 0,4.21 -3.68,6.79 -8.15,6.79 -4.32,0 -7.25,-3.03 -7.25,-6.23 0,-1.78 1.5,-1.96 1.86,-1.96 0.82,0 1.84,0.6 1.84,1.85 0,0.62 -0.25,1.84 -2.06,1.84 1.08,2.47 3.45,3.24 5.09,3.24 3.49,0 5.3,-2.71 5.3,-5.53 0,-3.04 -2.16,-5.44 -3.28,-6.69 l -8.39,-8.3 c -0.36,-0.31 -0.36,-0.39 -0.36,-1.36 h 14.36 z" /><path
           style="fill:#000000;stroke-width:0"
           inkscape:connector-curvature="0"
           id="path4391"
           d="m 492.16,438.42 h 4.14 c -0.53,-2.1 -1.3,-5.27 -1.3,-8.02 0,-1.4 0.19,-2.34 0.39,-3.11 0.57,-1.73 1.02,-1.87 1.57,-1.87 0.81,0 1.64,0.73 1.64,1.56 0,0.28 -0.06,0.42 -0.28,0.77 -0.66,1.29 -1.28,3.28 -1.28,6.14 0,0.65 0,2.04 0.48,4.53 h 4.36 c 0.62,0 0.91,0 1.28,0.26 0.48,0.36 0.59,0.91 0.59,1.08 0,1.02 -0.9,1.02 -1.5,1.02 h -13.12 c -1.44,0 -2.41,-0.32 -3.99,-1.78 -0.9,-0.8 -2.26,-2.68 -2.26,-2.99 0,-0.42 0.45,-0.42 0.59,-0.42 0.39,0 0.42,0.06 0.63,0.37 1.78,2.46 3.94,2.46 4.7,2.46 h 2.13 c -1.08,-3.85 -2.96,-7.96 -4,-10.05 -0.21,-0.45 -0.57,-1.19 -0.66,-1.31 -0.05,-0.14 -0.11,-0.28 -0.11,-0.53 0,-0.57 0.42,-1.11 1.22,-1.11 1.39,0 1.78,1.56 2.61,4.7 z" /><polyline
           style="fill:#000000;fill-rule:nonzero;stroke-width:0"
           id="polyline4393"
           points="462,418 506.52,418 506.52,420.04 462,420.04 " /><path
           style="fill:#000000;stroke-width:0"
           inkscape:connector-curvature="0"
           id="path4395"
           d="m 484.4,409.98 0.03,0.11 0.03,0.11 0.02,0.11 0.03,0.1 0.03,0.09 0.03,0.1 0.04,0.08 0.04,0.08 0.04,0.08 0.04,0.07 0.05,0.07 0.06,0.06 0.06,0.06 0.07,0.06 0.07,0.05 0.09,0.05 0.09,0.04 0.1,0.04 0.11,0.04 0.12,0.03 0.07,0.02 0.06,0.01 0.07,0.01 0.08,0.02 0.07,0.01 0.08,0.01 0.08,0.01 0.09,0.01 0.09,0.01 0.09,0.01 0.1,0.01 0.1,0.01 h 0.1 l 0.11,0.01 h 0.11 l 0.11,0.01 h 0.12 l 0.12,0.01 h 0.13 0.13 0.13 0.14 l 0.15,0.01 h 0.14 c 1.08,0 1.43,0 1.43,0.76 0,0.03 -0.04,0.49 -0.6,0.49 -0.8,0 -1.73,-0.07 -2.58,-0.11 -0.87,-0.03 -1.9,-0.03 -2.78,-0.03 -0.73,0 -1.67,0.03 -2.4,0.03 -0.74,0 -1.57,0.11 -2.27,0.11 -0.2,0 -0.73,0 -0.73,-0.77 0,-0.48 0.42,-0.48 1.12,-0.48 0.03,0 0.69,0 1.31,-0.08 0.74,-0.06 0.82,-0.14 0.82,-0.49 0,-0.06 0,-0.23 -0.14,-0.76 l -4.65,-18.5 c -0.31,-1.19 -0.39,-1.47 -3.06,-1.47 -0.59,0 -1.04,0 -1.04,-0.74 0,-0.51 0.42,-0.51 1.04,-0.51 h 17.52 c 0.87,0 0.9,0.03 1.19,0.7 0.35,0.94 2.96,7.69 2.96,7.97 0,0.11 -0.07,0.5 -0.59,0.5 -0.42,0 -0.48,-0.19 -0.7,-0.73 -1.32,-3.32 -2.86,-7.19 -9.24,-7.19 h -3.93 c -1.08,0 -1.11,0.05 -1.11,0.36 0,0.03 0,0.2 0.14,0.72 z" /></g>    </g>
    <g
       transform="matrix(0.28449593,0,0,0.33482728,127.07705,14.786762)"
       id="g4663">
      <g
         style="font-style:normal;font-variant:normal;font-weight:normal;font-stretch:normal;letter-spacing:normal;word-spacing:normal;text-anchor:start;fill:none;fill-opacity:1;fill-rule:evenodd;stroke:#000000;stroke-linecap:butt;stroke-linejoin:miter;stroke-miterlimit:10.43299961;stroke-dasharray:none;stroke-dashoffset:0;stroke-opacity:1"
         id="g4661"
         transform="matrix(0.3,0,0,-0.3,-52.5,222.75)"
         xml:space="preserve"
         stroke-miterlimit="10.433"
         font-style="normal"
         font-variant="normal"
         font-weight="normal"
         font-stretch="normal"
         font-size-adjust="none"
         letter-spacing="normal"
         word-spacing="normal"><path
           style="fill:#000000;stroke-width:0"
           inkscape:connector-curvature="0"
           d="m 479.96,431.48 v 1.25 h -3.88 v 15.55 c 0,0.72 0,0.97 -0.76,0.97 -0.43,0 -0.57,0 -0.91,-0.49 l -11.53,-16.03 v -1.25 h 10.25 l 0.23,1.25 h -9.2 l 9.2,12.75 v -12.75 l -0.23,-1.25 v -2.86 c 0,-1.19 0,-1.61 -2.83,-1.61 h -0.94 v -1.25 c 1.74,0.06 3.97,0.14 5.22,0.14 1.3,0 3.52,-0.08 5.27,-0.14 v 1.25 h -0.94 c -2.83,0 -2.83,0.42 -2.83,1.61 v 2.86 z"
           id="path4645" /><path
           style="fill:#000000;stroke-width:0"
           inkscape:connector-curvature="0"
           d="m 492.16,438.42 h 4.14 c -0.53,-2.1 -1.3,-5.27 -1.3,-8.02 0,-1.4 0.19,-2.34 0.39,-3.11 0.57,-1.73 1.02,-1.87 1.57,-1.87 0.81,0 1.64,0.73 1.64,1.56 0,0.28 -0.06,0.42 -0.28,0.77 -0.66,1.29 -1.28,3.28 -1.28,6.14 0,0.65 0,2.04 0.48,4.53 h 4.36 c 0.62,0 0.91,0 1.28,0.26 0.48,0.36 0.59,0.91 0.59,1.08 0,1.02 -0.9,1.02 -1.5,1.02 h -13.12 c -1.44,0 -2.41,-0.32 -3.99,-1.78 -0.9,-0.8 -2.26,-2.68 -2.26,-2.99 0,-0.42 0.45,-0.42 0.59,-0.42 0.39,0 0.42,0.06 0.63,0.37 1.78,2.46 3.94,2.46 4.7,2.46 h 2.13 c -1.08,-3.85 -2.96,-7.96 -4,-10.05 -0.21,-0.45 -0.57,-1.19 -0.66,-1.31 -0.05,-0.14 -0.11,-0.28 -0.11,-0.53 0,-0.57 0.42,-1.11 1.22,-1.11 1.39,0 1.78,1.56 2.61,4.7 z"
           id="path4647" /><polyline
           style="fill:#000000;fill-rule:nonzero;stroke-width:0"
           points="462,418 506.52,418 506.52,420.04 462,420.04 "
           id="polyline4649" /><path
           style="fill:#000000;stroke-width:0"
           inkscape:connector-curvature="0"
           d="m 484.4,409.98 0.03,0.11 0.03,0.11 0.02,0.11 0.03,0.1 0.03,0.09 0.03,0.1 0.04,0.08 0.04,0.08 0.04,0.08 0.04,0.07 0.05,0.07 0.06,0.06 0.06,0.06 0.07,0.06 0.07,0.05 0.09,0.05 0.09,0.04 0.1,0.04 0.11,0.04 0.12,0.03 0.07,0.02 0.06,0.01 0.07,0.01 0.08,0.02 0.07,0.01 0.08,0.01 0.08,0.01 0.09,0.01 0.09,0.01 0.09,0.01 0.1,0.01 0.1,0.01 h 0.1 l 0.11,0.01 h 0.11 l 0.11,0.01 h 0.12 l 0.12,0.01 h 0.13 0.13 0.13 0.14 l 0.15,0.01 h 0.14 c 1.08,0 1.43,0 1.43,0.76 0,0.03 -0.04,0.49 -0.6,0.49 -0.8,0 -1.73,-0.07 -2.58,-0.11 -0.87,-0.03 -1.9,-0.03 -2.78,-0.03 -0.73,0 -1.67,0.03 -2.4,0.03 -0.74,0 -1.57,0.11 -2.27,0.11 -0.2,0 -0.73,0 -0.73,-0.77 0,-0.48 0.42,-0.48 1.12,-0.48 0.03,0 0.69,0 1.31,-0.08 0.74,-0.06 0.82,-0.14 0.82,-0.49 0,-0.06 0,-0.23 -0.14,-0.76 l -4.65,-18.5 c -0.31,-1.19 -0.39,-1.47 -3.06,-1.47 -0.59,0 -1.04,0 -1.04,-0.74 0,-0.51 0.42,-0.51 1.04,-0.51 h 17.52 c 0.87,0 0.9,0.03 1.19,0.7 0.35,0.94 2.96,7.69 2.96,7.97 0,0.11 -0.07,0.5 -0.59,0.5 -0.42,0 -0.48,-0.19 -0.7,-0.73 -1.32,-3.32 -2.86,-7.19 -9.24,-7.19 h -3.93 c -1.08,0 -1.11,0.05 -1.11,0.36 0,0.03 0,0.2 0.14,0.72 z"
           id="path4651" /><path
           style="fill:#000000;stroke-width:0"
           inkscape:connector-curvature="0"
           d="m 559.95,422.5 h 0.14 0.15 0.14 l 0.07,0.01 h 0.08 l 0.07,0.01 0.07,0.01 0.07,0.01 0.07,0.01 0.07,0.01 0.06,0.02 0.07,0.02 0.06,0.02 0.06,0.02 0.06,0.03 0.06,0.03 0.05,0.04 0.05,0.03 0.05,0.05 0.04,0.04 0.04,0.05 0.02,0.03 0.02,0.03 0.01,0.02 0.02,0.03 0.01,0.03 0.02,0.04 0.01,0.03 0.01,0.04 0.01,0.03 0.01,0.04 v 0.04 l 0.01,0.04 v 0.04 l 0.01,0.04 v 0.04 0.05 c 0,1 -0.95,1 -1.64,1 h -29.84 c -0.71,0 -1.64,0 -1.64,-1 0,-0.98 0.93,-0.98 1.68,-0.98 z"
           id="path4653" /><path
           style="fill:#000000;stroke-width:0"
           inkscape:connector-curvature="0"
           d="m 560,412.82 h 0.07 0.06 l 0.14,0.01 h 0.14 0.07 l 0.07,0.01 0.07,0.01 h 0.07 l 0.06,0.01 0.07,0.02 0.07,0.01 0.06,0.02 0.07,0.02 0.06,0.02 0.06,0.02 0.06,0.03 0.05,0.03 0.05,0.04 0.05,0.04 0.05,0.04 0.04,0.05 0.02,0.02 0.02,0.03 0.02,0.02 0.02,0.03 0.01,0.03 0.02,0.03 0.01,0.03 0.02,0.03 0.01,0.04 0.01,0.03 0.01,0.04 0.01,0.04 v 0.04 l 0.01,0.04 v 0.04 l 0.01,0.04 v 0.05 0.04 c 0,1 -0.95,1 -1.69,1 H 530.2 c -0.75,0 -1.68,0 -1.68,-1 0,-1 0.93,-1 1.64,-1 z"
           id="path4655" /><path
           style="fill:#000000;stroke-width:0"
           inkscape:connector-curvature="0"
           d="m 584.6,410.04 5.29,5.13 c 7.76,6.87 10.76,9.56 10.76,14.54 0,5.69 -4.48,9.68 -10.56,9.68 -5.64,0 -9.33,-4.6 -9.33,-9.03 0,-2.79 2.5,-2.79 2.64,-2.79 0.86,0 2.6,0.6 2.6,2.64 0,1.3 -0.9,2.6 -2.65,2.6 -0.38,0 -0.5,0 -0.63,-0.05 1.13,3.24 3.82,5.08 6.71,5.08 4.54,0 6.69,-4.05 6.69,-8.13 0,-3.98 -2.5,-7.92 -5.23,-11.01 l -9.57,-10.66 c -0.56,-0.54 -0.56,-0.64 -0.56,-1.84 h 18.49 l 1.4,8.67 h -1.25 c -0.25,-1.5 -0.59,-3.69 -1.09,-4.44 -0.36,-0.39 -3.64,-0.39 -4.74,-0.39 z"
           id="path4657" /><path
           style="fill:#000000;stroke-width:0"
           inkscape:connector-curvature="0"
           d="m 616.44,424.78 h 5.62 c -1.64,-7.38 -2.09,-9.52 -2.09,-12.85 0,-0.75 0,-2.09 0.41,-3.79 0.5,-2.19 1.04,-2.49 1.79,-2.49 0.99,0 2.03,0.89 2.03,1.89 0,0.3 0,0.41 -0.29,1.1 -1.44,3.59 -1.44,6.82 -1.44,8.22 0,2.64 0.34,5.34 0.89,7.92 h 5.69 c 0.64,0 2.43,0 2.43,1.7 0,1.19 -1.04,1.19 -2,1.19 H 612.8 c -1.1,0 -2.99,0 -5.18,-2.35 -1.74,-1.93 -3.04,-4.23 -3.04,-4.48 0,-0.05 0,-0.48 0.59,-0.48 0.41,0 0.5,0.18 0.8,0.59 2.45,3.83 5.34,3.83 6.33,3.83 h 2.84 c -1.59,-6.02 -4.28,-12.05 -6.37,-16.58 -0.41,-0.75 -0.41,-0.86 -0.41,-1.2 0,-0.96 0.8,-1.35 1.45,-1.35 1.5,0 1.89,1.39 2.49,3.24 0.7,2.29 0.7,2.39 1.34,4.89 z"
           id="path4659" /></g>    </g>
    <path
       inkscape:original-d="m 92.604166,42.99999 c 2.64e-4,-0.441235 2.64e-4,-0.882208 0,-1.322916"
       inkscape:path-effect="#path-effect4800"
       inkscape:connector-curvature="0"
       id="path4798"
       d="m 92.604166,42.99999 c 0,-0.441235 0,-0.882208 0,-1.322916"
       style="fill:none;stroke:#000000;stroke-width:0.2;stroke-linecap:butt;stroke-linejoin:miter;stroke-opacity:1;stroke-miterlimit:4;stroke-dasharray:none" />
    <path
       inkscape:original-d="m 119.0625,42.99999 c 0.002,-0.458941 2.6e-4,-0.882208 0,-1.322916"
       inkscape:path-effect="#path-effect4804"
       inkscape:connector-curvature="0"
       id="path4802"
       d="m 119.0625,42.99999 c 0,-0.458941 0,-0.882208 0,-1.322916"
       style="fill:none;stroke:#000000;stroke-width:0.2;stroke-linecap:butt;stroke-linejoin:miter;stroke-opacity:1;stroke-miterlimit:4;stroke-dasharray:none" />
    <g
       id="g4941"
       transform="matrix(0.25710425,0,0,0.25900511,149.38299,21.599132)">
      <g
         word-spacing="normal"
         letter-spacing="normal"
         font-size-adjust="none"
         font-stretch="normal"
         font-weight="normal"
         font-variant="normal"
         font-style="normal"
         stroke-miterlimit="10.433"
         xml:space="preserve"
         transform="matrix(0.3,0,0,-0.3,-52.5,222.75)"
         id="g4939"
         style="font-style:normal;font-variant:normal;font-weight:normal;font-stretch:normal;letter-spacing:normal;word-spacing:normal;text-anchor:start;fill:none;fill-opacity:1;fill-rule:evenodd;stroke:#000000;stroke-linecap:butt;stroke-linejoin:miter;stroke-miterlimit:10.43299961;stroke-dasharray:none;stroke-dashoffset:0;stroke-opacity:1"><path
           id="path4925"
           d="m 485.66,424.73 v 0.21 l -0.01,0.2 -0.01,0.2 -0.02,0.19 -0.02,0.18 -0.03,0.18 -0.03,0.17 -0.04,0.16 -0.04,0.16 -0.04,0.16 -0.05,0.14 -0.05,0.14 -0.05,0.13 -0.06,0.13 -0.07,0.12 -0.06,0.12 -0.07,0.1 -0.07,0.1 -0.08,0.1 -0.08,0.09 -0.08,0.08 -0.08,0.07 -0.08,0.07 -0.09,0.06 -0.09,0.05 -0.09,0.05 -0.1,0.04 -0.09,0.03 -0.1,0.02 -0.1,0.02 -0.1,0.01 h -0.1 c -1.3,0 -2.64,-1.18 -2.64,-2.34 0,-0.48 0.23,-1.03 0.73,-1.48 0.86,-0.75 1.75,-2.1 1.75,-4.19 0,-2 -0.95,-4.83 -2.48,-7.13 -1.5,-2.14 -3.35,-3.82 -5.69,-3.82 -2.85,0 -4.39,1.78 -4.83,4.46 0.55,1.3 1.69,4.49 1.69,5.9 0,0.59 -0.25,1.09 -0.89,1.09 -0.41,0 -0.96,-0.11 -1.35,-0.84 -0.54,-1 -1.15,-4.24 -1.15,-6.04 -1.64,-2.34 -3.63,-4.57 -6.77,-4.57 -3.3,0 -4.34,2.93 -4.34,5.71 0,6.24 5.09,11.47 5.09,12.11 0,0.55 -0.41,0.96 -0.95,0.96 -0.66,0 -1,-0.66 -1.3,-1.11 -2.55,-3.69 -4.44,-9.61 -4.44,-14.14 0,-3.44 1.16,-7.13 5.24,-7.13 3.53,0 5.87,2.49 7.67,5.24 0.45,-2.89 2.39,-5.24 5.48,-5.24 3.89,0 6.29,3.03 8.07,6.78 1.2,2.44 3.09,9.21 3.09,12.3 z"
           inkscape:connector-curvature="0"
           style="fill:#000000;stroke-width:0" /><path
           id="path4927"
           d="m 536.43,422.5 h 0.14 0.14 0.15 l 0.07,0.01 H 537 l 0.08,0.01 0.07,0.01 0.07,0.01 0.07,0.01 0.06,0.01 0.07,0.02 0.07,0.02 0.06,0.02 0.06,0.02 0.06,0.03 0.05,0.03 0.06,0.04 0.05,0.03 0.04,0.05 0.05,0.04 0.04,0.05 0.02,0.03 0.01,0.03 0.02,0.02 0.01,0.03 0.02,0.03 0.01,0.04 0.01,0.03 0.01,0.04 0.01,0.03 0.01,0.04 0.01,0.04 0.01,0.04 v 0.04 0.04 l 0.01,0.04 v 0.05 c 0,1 -0.96,1 -1.64,1 h -29.85 c -0.7,0 -1.64,0 -1.64,-1 0,-0.98 0.94,-0.98 1.69,-0.98 z"
           inkscape:connector-curvature="0"
           style="fill:#000000;stroke-width:0" /><path
           id="path4929"
           d="m 536.48,412.82 h 0.06 0.07 l 0.13,0.01 h 0.14 0.07 l 0.07,0.01 0.07,0.01 h 0.07 l 0.07,0.01 0.07,0.02 0.06,0.01 0.07,0.02 0.06,0.02 0.06,0.02 0.06,0.02 0.06,0.03 0.06,0.03 0.05,0.04 0.05,0.04 0.05,0.04 0.04,0.05 0.02,0.02 0.02,0.03 0.02,0.02 0.01,0.03 0.02,0.03 0.01,0.03 0.02,0.03 0.01,0.03 0.01,0.04 0.01,0.03 0.01,0.04 0.01,0.04 0.01,0.04 0.01,0.04 v 0.04 0.04 l 0.01,0.05 v 0.04 c 0,1 -0.96,1 -1.69,1 h -29.75 c -0.75,0 -1.69,0 -1.69,-1 0,-1 0.94,-1 1.64,-1 z"
           inkscape:connector-curvature="0"
           style="fill:#000000;stroke-width:0" /><path
           id="path4931"
           d="m 588.49,414.28 h -1.25 c -0.25,-1.3 -0.46,-2.46 -0.89,-3.64 -0.25,-0.8 -0.41,-1.21 -3.3,-1.21 h -3.98 c 0.64,2.8 2.18,5.19 4.43,8.47 2.35,3.55 4.38,6.99 4.38,10.92 0,6.93 -6.72,12.5 -15.14,12.5 -8.56,0 -15.19,-5.68 -15.19,-12.5 0,-3.93 2.03,-7.37 4.38,-10.92 2.18,-3.28 3.78,-5.67 4.43,-8.47 h -3.98 c -2.89,0 -3.05,0.41 -3.3,1.16 -0.39,1.14 -0.64,2.44 -0.89,3.69 h -1.25 l 1.66,-8.08 h 7.97 c 1.09,0 1.23,0 1.23,1.05 0,3.48 -1.53,7.87 -2.69,11.06 -1.04,2.89 -2.43,6.83 -2.43,10.56 0,7.97 5.48,11.36 10.01,11.36 4.78,0 10.06,-3.59 10.06,-11.36 0,-3.73 -1.34,-7.53 -2.79,-11.61 -0.74,-2.09 -2.33,-6.58 -2.33,-10.01 0,-1.05 0.14,-1.05 1.28,-1.05 h 7.92 z"
           inkscape:connector-curvature="0"
           style="fill:#000000;stroke-width:0" /><path
           id="path4933"
           d="m 612.03,436.43 0.02,0.07 0.02,0.06 0.03,0.12 0.03,0.12 0.03,0.11 0.03,0.11 0.03,0.09 0.03,0.1 0.02,0.09 0.03,0.08 0.03,0.08 0.03,0.07 0.03,0.07 0.03,0.06 0.03,0.06 0.03,0.06 0.03,0.05 0.03,0.05 0.04,0.04 0.03,0.04 0.03,0.04 0.04,0.04 0.04,0.03 0.04,0.03 0.04,0.03 0.04,0.02 0.04,0.03 0.04,0.02 0.05,0.02 0.05,0.01 0.05,0.02 0.05,0.01 0.06,0.02 c 0.45,0.11 2.09,0.11 3.14,0.11 5.03,0 7.26,-0.21 7.26,-4.1 0,-0.73 -0.18,-2.68 -0.39,-3.98 -0.04,-0.19 -0.16,-0.8 -0.16,-0.94 0,-0.3 0.16,-0.66 0.6,-0.66 0.56,0 0.65,0.41 0.75,1.16 l 1.34,8.66 c 0.06,0.2 0.11,0.7 0.11,0.86 0,0.54 -0.5,0.54 -1.34,0.54 h -27.66 c -1.2,0 -1.25,-0.06 -1.59,-1 l -2.99,-8.76 c -0.06,-0.11 -0.29,-0.8 -0.29,-0.91 0,-0.3 0.23,-0.55 0.59,-0.55 0.5,0 0.55,0.25 0.85,1.05 2.68,7.72 3.98,8.63 11.35,8.63 h 1.94 c 1.41,0 1.41,-0.21 1.41,-0.6 0,-0.31 -0.16,-0.9 -0.2,-1.04 l -6.68,-26.61 c -0.45,-1.85 -0.61,-2.39 -5.94,-2.39 -1.79,0 -2.09,0 -2.09,-0.96 0,-0.59 0.55,-0.59 0.84,-0.59 1.37,0 2.75,0.09 4.1,0.09 1.39,0 2.84,0.07 4.23,0.07 1.39,0 2.79,-0.07 4.14,-0.07 1.44,0 2.94,-0.09 4.33,-0.09 0.5,0 1.1,0 1.1,1 0,0.55 -0.4,0.55 -1.69,0.55 -1.25,0 -1.89,0 -3.19,0.09 -1.45,0.16 -1.84,0.3 -1.84,1.09 0,0.07 0,0.32 0.19,1.05 z"
           inkscape:connector-curvature="0"
           style="fill:#000000;stroke-width:0" /><path
           id="path4935"
           d="m 647.3,441.67 0.02,0.03 0.01,0.03 0.01,0.03 0.01,0.03 0.01,0.02 0.01,0.03 0.01,0.03 0.01,0.02 0.01,0.05 0.02,0.05 0.02,0.04 0.01,0.05 0.01,0.04 0.01,0.04 0.01,0.03 0.01,0.04 0.01,0.03 0.01,0.03 0.01,0.03 v 0.02 l 0.01,0.03 v 0.02 l 0.01,0.02 v 0.02 0.02 l 0.01,0.02 v 0.01 0.02 0.01 0.01 0.01 0.01 0.01 0.01 0.01 0 c 0,0.55 -0.45,0.99 -1,0.99 -0.34,0 -0.7,-0.14 -0.84,-0.44 l -17.3,-47.48 c -0.25,-0.64 -0.25,-0.85 -0.25,-0.89 0,-0.55 0.46,-1 1,-1 0.66,0 0.8,0.34 1.1,1.18 z"
           inkscape:connector-curvature="0"
           style="fill:#000000;stroke-width:0" /><path
           id="path4937"
           d="m 669.03,436.34 0.04,0.16 0.04,0.16 0.04,0.15 0.04,0.15 0.04,0.13 0.05,0.13 0.04,0.13 0.06,0.11 0.06,0.12 0.06,0.1 0.07,0.1 0.08,0.09 0.09,0.09 0.1,0.08 0.11,0.08 0.12,0.07 0.14,0.06 0.15,0.06 0.16,0.06 0.17,0.05 0.1,0.02 0.1,0.02 0.1,0.02 0.1,0.02 0.12,0.02 0.11,0.02 0.12,0.02 0.13,0.01 0.13,0.01 0.13,0.02 0.14,0.01 0.15,0.01 0.15,0.01 0.16,0.01 0.16,0.01 0.16,0.01 h 0.18 l 0.18,0.01 h 0.18 l 0.19,0.01 h 0.2 0.2 0.21 0.22 c 1.48,0 1.89,0 1.89,0.96 0,0.59 -0.55,0.59 -0.8,0.59 -1.65,0 -5.73,-0.16 -7.37,-0.16 -1.5,0 -5.14,0.16 -6.63,0.16 -0.36,0 -0.95,0 -0.95,-1 0,-0.55 0.45,-0.55 1.39,-0.55 0.11,0 1.05,0 1.91,-0.09 0.89,-0.11 1.34,-0.16 1.34,-0.8 0,-0.2 -0.06,-0.36 -0.2,-0.95 l -6.67,-26.75 c -0.5,-1.95 -0.62,-2.34 -4.55,-2.34 -0.85,0 -1.35,0 -1.35,-1 0,-0.55 0.46,-0.55 1.35,-0.55 h 23.08 c 1.18,0 1.23,0 1.54,0.84 l 3.93,10.77 c 0.2,0.55 0.2,0.64 0.2,0.7 0,0.19 -0.14,0.55 -0.6,0.55 -0.45,0 -0.5,-0.25 -0.84,-1.05 -1.7,-4.59 -3.89,-10.26 -12.51,-10.26 h -4.68 c -0.7,0 -0.79,0 -1.09,0.04 -0.5,0.05 -0.66,0.1 -0.66,0.5 0,0.14 0,0.25 0.25,1.14 z"
           inkscape:connector-curvature="0"
           style="fill:#000000;stroke-width:0" /></g>    </g>
  </g>
</svg>
