<?xml version="1.0" encoding="UTF-8" standalone="no"?>
<!-- Created with Inkscape (http://www.inkscape.org/) -->

<svg
   xmlns:dc="http://purl.org/dc/elements/1.1/"
   xmlns:cc="http://creativecommons.org/ns#"
   xmlns:rdf="http://www.w3.org/1999/02/22-rdf-syntax-ns#"
   xmlns:svg="http://www.w3.org/2000/svg"
   xmlns="http://www.w3.org/2000/svg"
   xmlns:sodipodi="http://sodipodi.sourceforge.net/DTD/sodipodi-0.dtd"
   xmlns:inkscape="http://www.inkscape.org/namespaces/inkscape"
   width="210mm"
   height="297mm"
   viewBox="0 0 210 297"
   version="1.1"
   id="svg1823"
   inkscape:version="0.91 r13725"
   sodipodi:docname="iir_direct_poly.svg"
   inkscape:export-filename="/home/gabriel/Documents/End-of-study-Project/Report/iir_direct_poly.pdf.png"
   inkscape:export-xdpi="300"
   inkscape:export-ydpi="300">
  <sodipodi:namedview
     id="base"
     pagecolor="#ffffff"
     bordercolor="#666666"
     borderopacity="1.0"
     inkscape:pageopacity="0.0"
     inkscape:pageshadow="2"
     inkscape:zoom="1.4"
     inkscape:cx="194.92918"
     inkscape:cy="816.49976"
     inkscape:document-units="mm"
     inkscape:current-layer="layer1"
     showgrid="true"
     inkscape:window-width="2495"
     inkscape:window-height="1416"
     inkscape:window-x="1985"
     inkscape:window-y="24"
     inkscape:window-maximized="1">
    <inkscape:grid
       id="grid2368"
       type="xygrid" />
    <sodipodi:guide
       id="guide8898"
       orientation="0,744.09449"
       position="0,0" />
    <sodipodi:guide
       id="guide8900"
       orientation="-1052.3622,0"
       position="210,0" />
    <sodipodi:guide
       id="guide8902"
       orientation="0,-744.09449"
       position="210,297.00001" />
    <sodipodi:guide
       id="guide8904"
       orientation="1052.3622,0"
       position="0,297.00001" />
  </sodipodi:namedview>
  <defs
     id="defs1817">
    <marker
       inkscape:stockid="Arrow2Lend"
       orient="auto"
       refY="0.0"
       refX="0.0"
       id="marker4837"
       style="overflow:visible;"
       inkscape:isstock="true">
      <path
         id="path4835"
         style="fill-rule:evenodd;stroke-width:0.625;stroke-linejoin:round;stroke:#000000;stroke-opacity:1;fill:#000000;fill-opacity:1"
         d="M 8.7185878,4.0337352 L -2.2072895,0.016013256 L 8.7185884,-4.0017078 C 6.9730900,-1.6296469 6.9831476,1.6157441 8.7185878,4.0337352 z "
         transform="scale(1.1) rotate(180) translate(1,0)" />
    </marker>
    <inkscape:path-effect
       only_selected="false"
       apply_with_weight="true"
       apply_no_weight="true"
       helper_size="0"
       steps="2"
       weight="33.333333"
       is_visible="true"
       id="path-effect4831"
       effect="bspline" />
    <inkscape:path-effect
       only_selected="false"
       apply_with_weight="true"
       apply_no_weight="true"
       helper_size="0"
       steps="2"
       weight="33.333333"
       is_visible="true"
       id="path-effect4827"
       effect="bspline" />
    <inkscape:path-effect
       effect="bspline"
       id="path-effect4821"
       is_visible="true"
       weight="33.333333"
       steps="2"
       helper_size="0"
       apply_no_weight="true"
       apply_with_weight="true"
       only_selected="false" />
    <inkscape:path-effect
       only_selected="false"
       apply_with_weight="true"
       apply_no_weight="true"
       helper_size="0"
       steps="2"
       weight="33.333333"
       is_visible="true"
       id="path-effect4815"
       effect="bspline" />
    <inkscape:path-effect
       effect="bspline"
       id="path-effect4797"
       is_visible="true"
       weight="33.333333"
       steps="2"
       helper_size="0"
       apply_no_weight="true"
       apply_with_weight="true"
       only_selected="false" />
    <marker
       inkscape:stockid="Arrow2Lend"
       orient="auto"
       refY="0.0"
       refX="0.0"
       id="marker3879"
       style="overflow:visible;"
       inkscape:isstock="true">
      <path
         id="path3877"
         style="fill-rule:evenodd;stroke-width:0.625;stroke-linejoin:round;stroke:#000000;stroke-opacity:1;fill:#000000;fill-opacity:1"
         d="M 8.7185878,4.0337352 L -2.2072895,0.016013256 L 8.7185884,-4.0017078 C 6.9730900,-1.6296469 6.9831476,1.6157441 8.7185878,4.0337352 z "
         transform="scale(1.1) rotate(180) translate(1,0)" />
    </marker>
    <inkscape:path-effect
       effect="bspline"
       id="path-effect3873"
       is_visible="true"
       weight="33.333333"
       steps="2"
       helper_size="0"
       apply_no_weight="true"
       apply_with_weight="true"
       only_selected="false" />
    <marker
       inkscape:stockid="Arrow2Lend"
       orient="auto"
       refY="0.0"
       refX="0.0"
       id="marker3495"
       style="overflow:visible;"
       inkscape:isstock="true">
      <path
         id="path3493"
         style="fill-rule:evenodd;stroke-width:0.625;stroke-linejoin:round;stroke:#000000;stroke-opacity:1;fill:#000000;fill-opacity:1"
         d="M 8.7185878,4.0337352 L -2.2072895,0.016013256 L 8.7185884,-4.0017078 C 6.9730900,-1.6296469 6.9831476,1.6157441 8.7185878,4.0337352 z "
         transform="scale(1.1) rotate(180) translate(1,0)" />
    </marker>
    <inkscape:path-effect
       effect="bspline"
       id="path-effect3491"
       is_visible="true"
       weight="33.333333"
       steps="2"
       helper_size="0"
       apply_no_weight="true"
       apply_with_weight="true"
       only_selected="false" />
    <marker
       inkscape:collect="always"
       inkscape:isstock="true"
       style="overflow:visible;"
       id="marker3319"
       refX="0.0"
       refY="0.0"
       orient="auto"
       inkscape:stockid="Arrow2Lend">
      <path
         transform="scale(1.1) rotate(180) translate(1,0)"
         d="M 8.7185878,4.0337352 L -2.2072895,0.016013256 L 8.7185884,-4.0017078 C 6.9730900,-1.6296469 6.9831476,1.6157441 8.7185878,4.0337352 z "
         style="fill-rule:evenodd;stroke-width:0.625;stroke-linejoin:round;stroke:#000000;stroke-opacity:1;fill:#000000;fill-opacity:1"
         id="path3317" />
    </marker>
    <inkscape:path-effect
       only_selected="false"
       apply_with_weight="true"
       apply_no_weight="true"
       helper_size="0"
       steps="2"
       weight="33.333333"
       is_visible="true"
       id="path-effect3313"
       effect="bspline" />
    <marker
       inkscape:collect="always"
       inkscape:stockid="Arrow2Lend"
       orient="auto"
       refY="0.0"
       refX="0.0"
       id="marker2901"
       style="overflow:visible;"
       inkscape:isstock="true">
      <path
         id="path2899"
         style="fill-rule:evenodd;stroke-width:0.625;stroke-linejoin:round;stroke:#000000;stroke-opacity:1;fill:#000000;fill-opacity:1"
         d="M 8.7185878,4.0337352 L -2.2072895,0.016013256 L 8.7185884,-4.0017078 C 6.9730900,-1.6296469 6.9831476,1.6157441 8.7185878,4.0337352 z "
         transform="scale(1.1) rotate(180) translate(1,0)" />
    </marker>
    <inkscape:path-effect
       effect="bspline"
       id="path-effect2897"
       is_visible="true"
       weight="33.333333"
       steps="2"
       helper_size="0"
       apply_no_weight="true"
       apply_with_weight="true"
       only_selected="false" />
    <marker
       inkscape:collect="always"
       inkscape:isstock="true"
       style="overflow:visible;"
       id="Arrow2Lend"
       refX="0.0"
       refY="0.0"
       orient="auto"
       inkscape:stockid="Arrow2Lend">
      <path
         transform="scale(1.1) rotate(180) translate(1,0)"
         d="M 8.7185878,4.0337352 L -2.2072895,0.016013256 L 8.7185884,-4.0017078 C 6.9730900,-1.6296469 6.9831476,1.6157441 8.7185878,4.0337352 z "
         style="fill-rule:evenodd;stroke-width:0.625;stroke-linejoin:round;stroke:#000000;stroke-opacity:1;fill:#000000;fill-opacity:1"
         id="path2395" />
    </marker>
    <inkscape:path-effect
       only_selected="false"
       apply_with_weight="true"
       apply_no_weight="true"
       helper_size="0"
       steps="2"
       weight="33.333333"
       is_visible="true"
       id="path-effect2372"
       effect="bspline" />
    <marker
       inkscape:stockid="Arrow2Lend"
       orient="auto"
       refY="0"
       refX="0"
       id="marker3879-5"
       style="overflow:visible"
       inkscape:isstock="true">
      <path
         id="path3877-3"
         style="fill:#000000;fill-opacity:1;fill-rule:evenodd;stroke:#000000;stroke-width:0.625;stroke-linejoin:round;stroke-opacity:1"
         d="M 8.7185878,4.0337352 -2.2072895,0.01601326 8.7185884,-4.0017078 c -1.7454984,2.3720609 -1.7354408,5.6174519 -6e-7,8.035443 z"
         transform="matrix(-1.1,0,0,-1.1,-1.1,0)"
         inkscape:connector-curvature="0" />
    </marker>
    <marker
       inkscape:stockid="Arrow2Lend"
       orient="auto"
       refY="0"
       refX="0"
       id="marker3495-5"
       style="overflow:visible"
       inkscape:isstock="true">
      <path
         id="path3493-6"
         style="fill:#000000;fill-opacity:1;fill-rule:evenodd;stroke:#000000;stroke-width:0.625;stroke-linejoin:round;stroke-opacity:1"
         d="M 8.7185878,4.0337352 -2.2072895,0.01601326 8.7185884,-4.0017078 c -1.7454984,2.3720609 -1.7354408,5.6174519 -6e-7,8.035443 z"
         transform="matrix(-1.1,0,0,-1.1,-1.1,0)"
         inkscape:connector-curvature="0" />
    </marker>
  </defs>
  <metadata
     id="metadata1820">
    <rdf:RDF>
      <cc:Work
         rdf:about="">
        <dc:format>image/svg+xml</dc:format>
        <dc:type
           rdf:resource="http://purl.org/dc/dcmitype/StillImage" />
        <dc:title></dc:title>
      </cc:Work>
    </rdf:RDF>
  </metadata>
  <g
     id="layer1"
     inkscape:groupmode="layer"
     inkscape:label="Layer 1">
    <path
       inkscape:original-d="m 15.875,32.416668 c 6.868037,-2.65e-4 13.934931,-2.65e-4 20.902083,0"
       inkscape:connector-curvature="0"
       id="path2370"
       d="m 15.875,32.416668 c 6.522254,0 13.233353,0 19.849732,0"
       style="fill:none;stroke:#000000;stroke-width:0.19367836;stroke-linecap:butt;stroke-linejoin:miter;stroke-miterlimit:4;stroke-dasharray:none;stroke-opacity:1;marker-end:url(#Arrow2Lend)"
       inkscape:export-xdpi="300"
       inkscape:export-ydpi="300" />
    <g
       transform="matrix(0.41990041,0,0,0.4179226,6.0510627,-7.6363953)"
       id="g2816"
       inkscape:export-xdpi="300"
       inkscape:export-ydpi="300">
      <g
         style="font-style:normal;font-variant:normal;font-weight:normal;font-stretch:normal;letter-spacing:normal;word-spacing:normal;text-anchor:start;fill:none;fill-opacity:1;fill-rule:evenodd;stroke:#000000;stroke-linecap:butt;stroke-linejoin:miter;stroke-miterlimit:10.43299961;stroke-dasharray:none;stroke-dashoffset:0;stroke-opacity:1"
         word-spacing="normal"
         letter-spacing="normal"
         font-size-adjust="none"
         font-stretch="normal"
         font-weight="normal"
         font-variant="normal"
         font-style="normal"
         stroke-miterlimit="10.433"
         xml:space="preserve"
         transform="matrix(0.3,0,0,-0.3,-52.5,222.75)"
         id="content"><path
           style="fill:#000000;stroke-width:0"
           inkscape:connector-curvature="0"
           id="path2813"
           d="m 474.16,436.34 0.04,0.16 0.04,0.16 0.04,0.15 0.04,0.15 0.04,0.13 0.05,0.13 0.05,0.13 0.05,0.11 0.06,0.12 0.06,0.1 0.08,0.1 0.08,0.09 0.09,0.09 0.1,0.08 0.11,0.08 0.12,0.07 0.13,0.06 0.15,0.06 0.16,0.06 0.18,0.05 0.09,0.02 0.1,0.02 0.1,0.02 0.11,0.02 0.11,0.02 0.11,0.02 0.12,0.02 0.13,0.01 0.13,0.01 0.14,0.02 0.14,0.01 0.14,0.01 0.15,0.01 0.16,0.01 0.16,0.01 0.17,0.01 h 0.17 l 0.18,0.01 h 0.18 l 0.19,0.01 h 0.2 0.2 0.21 0.22 c 1.49,0 1.89,0 1.89,0.96 0,0.59 -0.54,0.59 -0.79,0.59 -1.66,0 -5.74,-0.16 -7.38,-0.16 -1.5,0 -5.14,0.16 -6.62,0.16 -0.36,0 -0.96,0 -0.96,-1 0,-0.55 0.46,-0.55 1.39,-0.55 0.11,0 1.05,0 1.91,-0.09 0.89,-0.11 1.34,-0.16 1.34,-0.8 0,-0.2 -0.06,-0.36 -0.2,-0.95 l -6.67,-26.75 c -0.5,-1.95 -0.61,-2.34 -4.55,-2.34 -0.84,0 -1.34,0 -1.34,-1 0,-0.55 0.45,-0.55 1.34,-0.55 h 23.08 c 1.19,0 1.23,0 1.55,0.84 l 3.92,10.77 c 0.2,0.55 0.2,0.64 0.2,0.7 0,0.19 -0.14,0.55 -0.59,0.55 -0.46,0 -0.5,-0.25 -0.85,-1.05 -1.7,-4.59 -3.89,-10.26 -12.51,-10.26 h -4.67 c -0.71,0 -0.8,0 -1.1,0.04 -0.5,0.05 -0.65,0.1 -0.65,0.5 0,0.14 0,0.25 0.25,1.14 z" /></g>    </g>
    <g
       transform="matrix(0.35699176,0,0,0.42574641,7.6577899,-9.0041016)"
       id="g2850"
       inkscape:export-xdpi="300"
       inkscape:export-ydpi="300">
      <g
         style="font-style:normal;font-variant:normal;font-weight:normal;font-stretch:normal;letter-spacing:normal;word-spacing:normal;text-anchor:start;fill:none;fill-opacity:1;fill-rule:evenodd;stroke:#000000;stroke-linecap:butt;stroke-linejoin:miter;stroke-miterlimit:10.43299961;stroke-dasharray:none;stroke-dashoffset:0;stroke-opacity:1"
         id="g2848"
         transform="matrix(0.3,0,0,-0.3,-52.5,222.75)"
         xml:space="preserve"
         stroke-miterlimit="10.433"
         font-style="normal"
         font-variant="normal"
         font-weight="normal"
         font-stretch="normal"
         font-size-adjust="none"
         letter-spacing="normal"
         word-spacing="normal"><path
           style="fill:#000000;stroke-width:0"
           inkscape:connector-curvature="0"
           d="m 468.97,433.86 0.23,-0.36 0.23,-0.34 0.23,-0.32 0.24,-0.32 0.24,-0.3 0.24,-0.29 0.24,-0.29 0.25,-0.26 0.24,-0.26 0.25,-0.25 0.24,-0.24 0.25,-0.22 0.24,-0.21 0.24,-0.21 0.24,-0.19 0.23,-0.18 c 3.05,-2.3 6.08,-2.8 6.19,-2.8 0.59,0 0.59,0.55 0.59,0.96 0,0.79 -0.04,0.84 -1.14,1.18 -3.39,0.96 -5.33,2.75 -6.48,3.99 -2.53,2.75 -3.14,5.73 -3.44,7.33 -0.05,0.25 -0.25,0.45 -0.55,0.45 -0.45,0 -0.5,-0.3 -0.59,-0.91 -1.14,-5.53 -4.69,-9.4 -10.17,-10.95 -0.74,-0.25 -0.85,-0.25 -0.85,-1.09 0,-0.41 0,-0.96 0.6,-0.96 0.15,0 3.09,0.55 5.93,2.6 1.65,1.25 2.99,2.73 4.08,4.44 v -35.54 c 0,-0.89 0,-1.79 1,-1.79 1,0 1,0.9 1,1.79 z"
           id="path2846" /></g>    </g>
    <path
       style="fill:none;stroke:#000000;stroke-width:0.18931273;stroke-linecap:butt;stroke-linejoin:miter;stroke-miterlimit:4;stroke-dasharray:none;stroke-opacity:1;marker-end:url(#marker2901)"
       d="m 48.694098,32.416668 c 6.153642,0 12.485456,0 18.727903,0"
       id="path2895"
       inkscape:connector-curvature="0"
       inkscape:original-d="m 47.62502,32.416668 c 6.868037,-2.65e-4 13.934931,-2.65e-4 20.902083,0"
       inkscape:export-xdpi="300"
       inkscape:export-ydpi="300" />
    <path
       inkscape:original-d="m 79.375026,32.416668 c 6.868037,-2.65e-4 13.934931,-2.65e-4 20.902084,0"
       inkscape:connector-curvature="0"
       id="path3311"
       d="m 80.515376,32.416668 c 6.084012,0 12.34418,0 18.515993,0"
       style="fill:none;stroke:#000000;stroke-width:0.18823861;stroke-linecap:butt;stroke-linejoin:miter;stroke-miterlimit:4;stroke-dasharray:none;stroke-opacity:1;marker-end:url(#marker3319)"
       inkscape:export-xdpi="300"
       inkscape:export-ydpi="300" />
    <rect
       style="fill:none;fill-opacity:1;fill-rule:nonzero;stroke:#000000;stroke-width:0.24097489;stroke-linejoin:round;stroke-miterlimit:4;stroke-dasharray:none;stroke-dashoffset:0;stroke-opacity:1;paint-order:markers fill stroke"
       id="rect3315"
       width="12.680515"
       height="12.823057"
       x="99.49308"
       y="26.076403"
       ry="3.8516619e-06"
       inkscape:export-xdpi="300"
       inkscape:export-ydpi="300" />
    <path
       style="fill:none;stroke:#000000;stroke-width:0.1878868;stroke-linecap:butt;stroke-linejoin:miter;stroke-miterlimit:4;stroke-dasharray:none;stroke-opacity:1;marker-end:url(#marker3495)"
       d="m 112.12289,32.416668 c 6.06133,0 12.29816,0 18.44695,0"
       id="path3489"
       inkscape:connector-curvature="0"
       inkscape:original-d="m 111.12509,32.416668 c 6.86807,-2.65e-4 13.93501,-2.65e-4 20.90219,0"
       inkscape:export-xdpi="300"
       inkscape:export-ydpi="300" />
    <path
       style="fill:none;stroke:#000000;stroke-width:0.19661525;stroke-linecap:butt;stroke-linejoin:miter;stroke-miterlimit:4;stroke-dasharray:none;stroke-opacity:1;marker-end:url(#marker3879)"
       d="m 143.58795,32.416668 c 6.63755,0 13.46728,0 20.20062,0"
       id="path3871"
       inkscape:connector-curvature="0"
       inkscape:original-d="m 142.87523,32.416668 c 6.86805,-2.65e-4 13.93495,-2.65e-4 20.90212,0"
       inkscape:export-xdpi="300"
       inkscape:export-ydpi="300" />
    <g
       transform="matrix(0.3077112,0,0,0.36137321,43.515097,-2.6017198)"
       id="g4533"
       inkscape:export-xdpi="300"
       inkscape:export-ydpi="300">
      <g
         style="font-style:normal;font-variant:normal;font-weight:normal;font-stretch:normal;letter-spacing:normal;word-spacing:normal;text-anchor:start;fill:none;fill-opacity:1;fill-rule:evenodd;stroke:#000000;stroke-linecap:butt;stroke-linejoin:miter;stroke-miterlimit:10.43299961;stroke-dasharray:none;stroke-dashoffset:0;stroke-opacity:1"
         id="g4531"
         transform="matrix(0.3,0,0,-0.3,-52.5,222.75)"
         xml:space="preserve"
         stroke-miterlimit="10.433"
         font-style="normal"
         font-variant="normal"
         font-weight="normal"
         font-stretch="normal"
         font-size-adjust="none"
         letter-spacing="normal"
         word-spacing="normal"><path
           style="fill:#000000;stroke-width:0"
           inkscape:connector-curvature="0"
           d="m 463.49,410.09 -0.05,-0.18 -0.04,-0.17 -0.05,-0.16 -0.04,-0.15 -0.04,-0.15 -0.05,-0.13 -0.05,-0.13 -0.05,-0.12 -0.05,-0.11 -0.06,-0.11 -0.07,-0.1 -0.07,-0.09 -0.07,-0.09 -0.09,-0.07 -0.09,-0.08 -0.11,-0.06 -0.11,-0.07 -0.13,-0.05 -0.13,-0.05 -0.15,-0.05 -0.16,-0.04 -0.09,-0.02 -0.09,-0.01 -0.09,-0.02 -0.1,-0.02 -0.1,-0.01 -0.1,-0.01 -0.11,-0.01 -0.12,-0.02 -0.11,-0.01 -0.13,-0.01 h -0.12 l -0.13,-0.01 -0.14,-0.01 h -0.14 l -0.14,-0.01 h -0.15 l -0.16,-0.01 h -0.16 -0.16 -0.17 -0.18 -0.18 c -0.85,0 -1.35,0 -1.35,-1 0,-0.55 0.46,-0.55 1.35,-0.55 h 17.78 c 7.87,0 13.75,5.87 13.75,10.76 0,3.58 -2.89,6.47 -7.72,7.02 5.19,0.95 10.42,4.64 10.42,9.38 0,3.68 -3.3,6.87 -9.28,6.87 l -0.69,-1.55 c 4.38,0 5.42,-2.93 5.42,-5.12 0,-4.39 -4.28,-9.13 -10.35,-9.13 h -7.27 l -0.3,-1.09 h 9.41 c 4.78,0 5.73,-3.69 5.73,-5.83 0,-4.94 -4.43,-9.76 -10.31,-9.76 h -6.78 c -0.69,0 -0.8,0 -1.09,0.04 -0.5,0.05 -0.64,0.1 -0.64,0.5 0,0.14 0,0.25 0.25,1.14 l 3.43,13.91 0.3,1.09 3.08,12.36 c 0.45,1.74 0.54,1.89 2.7,1.89 h 6.42 l 0.69,1.55 h -16.73 c -0.94,0 -1.44,0 -1.44,-1 0,-0.55 0.44,-0.55 1.39,-0.55 0.09,0 1.05,0 1.89,-0.09 0.89,-0.11 1.34,-0.16 1.34,-0.8 0,-0.2 -0.04,-0.36 -0.2,-0.95 z"
           id="path4523" /><path
           style="fill:#000000;stroke-width:0"
           inkscape:connector-curvature="0"
           d="m 512.32,394.25 v 0.02 0.03 0.01 l -0.01,0.02 v 0.01 0.02 l -0.01,0.01 -0.01,0.02 v 0.02 l -0.01,0.02 -0.02,0.02 -0.01,0.03 -0.02,0.02 -0.02,0.03 -0.02,0.03 -0.02,0.03 -0.03,0.03 -0.03,0.04 -0.01,0.02 -0.02,0.02 -0.02,0.02 -0.01,0.02 -0.02,0.02 -0.02,0.03 -0.02,0.02 -0.03,0.02 -0.02,0.03 -0.02,0.02 -0.03,0.03 -0.02,0.03 -0.03,0.03 -0.03,0.03 -0.03,0.03 -0.02,0.03 -0.04,0.03 -0.03,0.03 -0.03,0.04 -0.03,0.03 -0.04,0.04 -0.04,0.03 -0.03,0.04 -0.04,0.04 c -6.22,6.28 -7.82,15.69 -7.82,23.31 0,8.67 1.89,17.35 8.02,23.56 0.64,0.61 0.64,0.71 0.64,0.86 0,0.35 -0.19,0.49 -0.48,0.49 -0.5,0 -4.99,-3.38 -7.93,-9.7 -2.54,-5.49 -3.14,-11.02 -3.14,-15.21 0,-3.89 0.55,-9.9 3.28,-15.54 2.99,-6.13 7.29,-9.36 7.79,-9.36 0.29,0 0.48,0.14 0.48,0.5 z"
           id="path4525" /><path
           style="fill:#000000;stroke-width:0"
           inkscape:connector-curvature="0"
           d="m 521.78,410.34 0.25,0.27 0.24,0.25 0.23,0.25 0.23,0.24 0.22,0.23 0.22,0.22 0.21,0.22 0.21,0.21 0.2,0.2 0.19,0.19 0.2,0.19 0.18,0.19 0.19,0.17 0.18,0.18 0.35,0.33 0.34,0.32 0.34,0.3 0.32,0.29 0.33,0.29 0.64,0.56 0.33,0.29 0.34,0.28 c 0,0.05 3.07,2.69 4.87,4.49 4.73,4.64 5.83,7.03 5.83,7.21 0,0.5 -0.45,0.5 -0.55,0.5 -0.34,0 -0.5,-0.09 -0.75,-0.54 -1.48,-2.39 -2.53,-3.19 -3.73,-3.19 -1.21,0 -1.8,0.75 -2.55,1.59 -0.94,1.16 -1.78,2.14 -3.44,2.14 -3.73,0 -6.01,-4.62 -6.01,-5.67 0,-0.25 0.14,-0.54 0.59,-0.54 0.45,0 0.55,0.25 0.64,0.54 0.95,2.3 3.85,2.35 4.23,2.35 1.05,0 2,-0.36 3.15,-0.75 2,-0.75 2.54,-0.75 3.84,-0.75 -1.8,-2.14 -5.99,-5.74 -6.92,-6.53 l -4.49,-4.18 c -3.39,-3.34 -5.14,-6.18 -5.14,-6.53 0,-0.5 0.5,-0.5 0.6,-0.5 0.4,0 0.5,0.1 0.79,0.64 1.16,1.75 2.64,3.1 4.24,3.1 1.15,0 1.65,-0.46 2.89,-1.89 0.86,-1.05 1.75,-1.85 3.19,-1.85 4.93,0 7.82,6.33 7.82,7.67 0,0.25 -0.2,0.5 -0.59,0.5 -0.45,0 -0.55,-0.29 -0.7,-0.65 -1.14,-3.24 -4.33,-4.17 -5.99,-4.17 -0.98,0 -1.89,0.29 -2.94,0.64 -1.68,0.64 -2.43,0.84 -3.48,0.84 -0.09,0 -0.89,0 -1.34,-0.14 z"
           id="path4527" /><path
           style="fill:#000000;stroke-width:0"
           inkscape:connector-curvature="0"
           d="m 554.86,418.65 v 0.37 l -0.01,0.39 -0.01,0.39 -0.01,0.41 -0.04,0.84 -0.06,0.88 -0.08,0.92 -0.11,0.95 -0.13,0.97 -0.17,1.01 -0.19,1.02 -0.23,1.03 -0.27,1.05 -0.31,1.06 -0.34,1.07 -0.4,1.07 -0.21,0.53 -0.22,0.53 -0.24,0.53 -0.25,0.53 c -2.99,6.12 -7.27,9.36 -7.77,9.36 -0.29,0 -0.5,-0.19 -0.5,-0.49 0,-0.15 0,-0.25 0.94,-1.15 4.89,-4.92 7.73,-12.85 7.73,-23.27 0,-8.51 -1.84,-17.28 -8.03,-23.56 -0.64,-0.59 -0.64,-0.7 -0.64,-0.84 0,-0.3 0.21,-0.5 0.5,-0.5 0.5,0 4.97,3.39 7.92,9.71 2.54,5.47 3.13,11 3.13,15.19 z"
           id="path4529" /></g>    </g>
    <g
       transform="matrix(0.36668015,0,0,0.42408696,105.02496,-8.1395772)"
       id="g4633"
       inkscape:export-xdpi="300"
       inkscape:export-ydpi="300">
      <g
         style="font-style:normal;font-variant:normal;font-weight:normal;font-stretch:normal;letter-spacing:normal;word-spacing:normal;text-anchor:start;fill:none;fill-opacity:1;fill-rule:evenodd;stroke:#000000;stroke-linecap:butt;stroke-linejoin:miter;stroke-miterlimit:10.43299961;stroke-dasharray:none;stroke-dashoffset:0;stroke-opacity:1"
         word-spacing="normal"
         letter-spacing="normal"
         font-size-adjust="none"
         font-stretch="normal"
         font-weight="normal"
         font-variant="normal"
         font-style="normal"
         stroke-miterlimit="10.433"
         xml:space="preserve"
         transform="matrix(0.3,0,0,-0.3,-52.5,222.75)"
         id="g4631"><path
           style="fill:#000000;stroke-width:0"
           inkscape:connector-curvature="0"
           id="path4629"
           d="m 501.66,436.39 0.04,0.16 0.04,0.16 0.04,0.15 0.04,0.14 0.04,0.14 0.04,0.13 0.04,0.12 0.05,0.11 0.05,0.11 0.05,0.11 0.07,0.09 0.06,0.09 0.08,0.09 0.08,0.08 0.09,0.07 0.09,0.07 0.11,0.06 0.12,0.06 0.13,0.05 0.14,0.05 0.15,0.04 0.09,0.02 0.08,0.02 0.09,0.02 0.09,0.02 0.1,0.01 0.1,0.02 0.1,0.01 0.11,0.01 0.11,0.02 0.12,0.01 0.12,0.01 h 0.12 l 0.13,0.01 0.13,0.01 0.14,0.01 h 0.14 0.15 l 0.15,0.01 h 0.16 0.16 0.17 0.17 c 1.14,0 1.6,0 1.6,1 0,0.55 -0.5,0.55 -1.35,0.55 h -6.58 c -1.29,0 -1.34,0 -1.93,-0.95 l -18.19,-28.39 -3.89,28.18 c -0.16,1.16 -0.25,1.16 -1.55,1.16 h -6.83 c -0.93,0 -1.48,0 -1.48,-0.95 0,-0.6 0.44,-0.6 1.44,-0.6 0.65,0 1.54,-0.04 2.14,-0.09 0.79,-0.11 1.09,-0.25 1.09,-0.8 0,-0.2 -0.05,-0.36 -0.19,-0.95 l -6.33,-25.36 c -0.5,-2 -1.34,-3.59 -5.39,-3.73 -0.25,0 -0.89,-0.05 -0.89,-0.96 0,-0.43 0.3,-0.59 0.71,-0.59 1.59,0 3.32,0.16 4.97,0.16 1.7,0 3.5,-0.16 5.14,-0.16 0.25,0 0.89,0 0.89,1 0,0.55 -0.55,0.55 -0.89,0.55 -2.85,0.04 -3.39,1.04 -3.39,2.18 0,0.35 0.04,0.6 0.2,1.14 l 6.76,27.16 h 0.07 l 4.28,-30.89 c 0.09,-0.59 0.14,-1.14 0.75,-1.14 0.54,0 0.84,0.55 1.09,0.89 l 20.13,31.55 h 0.04 l -7.12,-28.55 c -0.5,-1.95 -0.6,-2.34 -4.53,-2.34 -0.85,0 -1.39,0 -1.39,-0.96 0,-0.59 0.59,-0.59 0.75,-0.59 1.39,0 4.78,0.16 6.17,0.16 2.05,0 4.19,-0.16 6.23,-0.16 0.3,0 0.94,0 0.94,1 0,0.55 -0.45,0.55 -1.39,0.55 -1.84,0 -3.23,0 -3.23,0.89 0,0.2 0,0.29 0.25,1.2 z" /></g>    </g>
    <g
       transform="matrix(0.30059908,0,0,0.42634276,107.81408,-9.0954331)"
       id="g4739"
       inkscape:export-xdpi="300"
       inkscape:export-ydpi="300">
      <g
         style="font-style:normal;font-variant:normal;font-weight:normal;font-stretch:normal;letter-spacing:normal;word-spacing:normal;text-anchor:start;fill:none;fill-opacity:1;fill-rule:evenodd;stroke:#000000;stroke-linecap:butt;stroke-linejoin:miter;stroke-miterlimit:10.43299961;stroke-dasharray:none;stroke-dashoffset:0;stroke-opacity:1"
         id="g4737"
         transform="matrix(0.3,0,0,-0.3,-52.5,222.75)"
         xml:space="preserve"
         stroke-miterlimit="10.433"
         font-style="normal"
         font-variant="normal"
         font-weight="normal"
         font-stretch="normal"
         font-size-adjust="none"
         letter-spacing="normal"
         word-spacing="normal"><path
           style="fill:#000000;stroke-width:0"
           inkscape:connector-curvature="0"
           d="m 468.97,438.98 v 0.17 0.16 0.17 l -0.01,0.08 v 0.08 l -0.01,0.07 -0.01,0.08 -0.01,0.08 -0.01,0.07 -0.01,0.07 -0.02,0.07 -0.02,0.07 -0.02,0.06 -0.03,0.06 -0.02,0.06 -0.04,0.06 -0.03,0.05 -0.04,0.05 -0.04,0.05 -0.05,0.04 -0.05,0.04 -0.05,0.04 -0.03,0.01 -0.03,0.02 -0.03,0.01 -0.04,0.01 -0.03,0.02 -0.04,0.01 -0.03,0.01 h -0.04 l -0.04,0.01 -0.04,0.01 h -0.04 -0.05 l -0.04,0.01 h -0.05 c -1,0 -1,-0.91 -1,-1.8 v -35.52 c -1.18,1.9 -2.58,3.29 -3.83,4.24 -3.04,2.28 -6.07,2.78 -6.18,2.78 -0.6,0 -0.6,-0.55 -0.6,-0.94 0,-0.79 0.05,-0.86 1.16,-1.2 3.37,-0.94 5.33,-2.73 6.47,-3.98 2.55,-2.74 3.14,-5.74 3.44,-7.29 0.04,-0.23 0.2,-0.48 0.54,-0.48 0.46,0 0.5,0.34 0.6,0.8 1.11,5.62 4.68,9.51 10.17,11.04 0.75,0.25 0.84,0.25 0.84,1.11 0,0.39 0,0.94 -0.59,0.94 -0.16,0 -3.1,-0.55 -5.94,-2.59 -1.64,-1.24 -2.98,-2.74 -4.08,-4.43 z"
           id="path4735" /></g>    </g>
    <g
       transform="matrix(0.39733344,0,0,0.49559532,66.71414,-15.654229)"
       id="g8780"
       inkscape:export-xdpi="300"
       inkscape:export-ydpi="300">
      <g
         style="font-style:normal;font-variant:normal;font-weight:normal;font-stretch:normal;letter-spacing:normal;word-spacing:normal;text-anchor:start;fill:none;fill-opacity:1;fill-rule:evenodd;stroke:#000000;stroke-linecap:butt;stroke-linejoin:miter;stroke-miterlimit:10.43299961;stroke-dasharray:none;stroke-dashoffset:0;stroke-opacity:1"
         id="g8782"
         transform="matrix(0.3,0,0,-0.3,-52.5,222.75)"
         xml:space="preserve"
         stroke-miterlimit="10.433"
         font-style="normal"
         font-variant="normal"
         font-weight="normal"
         font-stretch="normal"
         font-size-adjust="none"
         letter-spacing="normal"
         word-spacing="normal"><path
           style="fill:#000000;stroke-width:0"
           inkscape:connector-curvature="0"
           d="m 504.03,447.92 0,0.04 0,0.04 0,0.05 0,0.04 0,0.03 0,0.04 0,0.04 0,0.03 -0.01,0.04 0,0.03 0,0.03 0,0.03 0,0.03 -0.01,0.03 0,0.03 0,0.02 -0.01,0.03 0,0.02 -0.01,0.03 0,0.02 -0.02,0.04 -0.01,0.04 -0.02,0.03 -0.02,0.03 -0.02,0.03 -0.02,0.03 -0.03,0.02 -0.03,0.02 -0.03,0.02 -0.04,0.01 -0.04,0.01 -0.05,0.02 -0.02,0 -0.02,0 -0.03,0.01 -0.03,0 -0.02,0.01 -0.03,0 -0.03,0 -0.03,0 -0.04,0 -0.03,0.01 -0.03,0 -0.04,0 -0.03,0 -0.04,0 -0.04,0 -0.04,0 -0.04,0 -0.05,0 -0.04,0 -0.05,0 c -2.23,-2.2 -5.39,-2.23 -6.82,-2.23 l 0,-1.25 c 0.84,0 3.14,0 5.04,0.97 l 0,-17.77 c 0,-1.16 0,-1.61 -3.48,-1.61 l -1.31,0 0,-1.25 c 0.62,0.03 4.9,0.14 6.2,0.14 1.08,0 5.47,-0.11 6.23,-0.14 l 0,1.25 -1.32,0 c -3.49,0 -3.49,0.45 -3.49,1.61 z"
           id="path8784" /><polyline
           style="fill:#000000;fill-rule:nonzero;stroke-width:0"
           points="462,418 543.6,418 543.6,420.04 462,420.04 "
           id="polyline8786" /><path
           style="fill:#000000;stroke-width:0"
           inkscape:connector-curvature="0"
           d="m 468.69,393.23 -0.11,-0.18 -0.12,-0.17 -0.11,-0.16 -0.11,-0.16 -0.12,-0.15 -0.11,-0.14 -0.11,-0.14 -0.12,-0.14 -0.11,-0.13 -0.12,-0.12 -0.12,-0.12 -0.12,-0.12 -0.12,-0.1 -0.12,-0.11 -0.13,-0.1 -0.13,-0.09 -0.13,-0.09 -0.13,-0.08 -0.14,-0.08 -0.13,-0.07 -0.15,-0.07 -0.14,-0.06 -0.15,-0.06 -0.15,-0.05 -0.16,-0.05 -0.16,-0.04 -0.17,-0.04 -0.17,-0.03 -0.17,-0.03 -0.18,-0.03 -0.19,-0.02 -0.19,-0.01 c -0.34,-0.03 -0.8,-0.03 -0.8,-0.74 0,-0.37 0.32,-0.51 0.49,-0.51 0.9,0 2.06,0.14 3,0.14 1.11,0 2.55,-0.14 3.59,-0.14 0.17,0 0.69,0 0.69,0.76 0,0.46 -0.45,0.49 -0.58,0.49 -0.28,0.05 -1.55,0.11 -1.55,1.05 0,0.42 0.36,1.01 0.54,1.32 l 2.78,4.32 9.97,0 -0.18,1.26 -8.95,0 7.31,11.39 1.64,-11.39 0.18,-1.26 0.84,-5.78 c -0.14,-0.35 -0.36,-0.91 -2.41,-0.91 -0.42,0 -0.9,0 -0.9,-0.77 0,-0.14 0.09,-0.48 0.54,-0.48 1.02,0 3.49,0.14 4.5,0.14 0.63,0 1.43,-0.03 2.07,-0.03 0.62,-0.05 1.36,-0.11 1.98,-0.11 0.45,0 0.69,0.28 0.69,0.73 0,0.52 -0.41,0.52 -0.97,0.52 -2.02,0 -2.09,0.28 -2.2,1.12 l -3.07,21.5 c -0.11,0.72 -0.17,0.97 -0.82,0.97 -0.68,0 -0.88,-0.31 -1.19,-0.79 z"
           id="path8788" /><path
           style="fill:#000000;stroke-width:0"
           inkscape:connector-curvature="0"
           d="m 503.89,415.18 -0.6,-0.45 -0.58,-0.46 -0.55,-0.47 -0.53,-0.49 -0.5,-0.5 -0.47,-0.51 -0.45,-0.53 -0.42,-0.53 -0.4,-0.54 -0.37,-0.55 -0.36,-0.56 -0.33,-0.56 -0.31,-0.57 -0.28,-0.57 -0.27,-0.58 -0.25,-0.58 -0.22,-0.58 -0.21,-0.58 -0.19,-0.59 -0.18,-0.58 -0.15,-0.58 -0.14,-0.58 -0.13,-0.57 -0.1,-0.57 -0.1,-0.57 -0.07,-0.56 -0.07,-0.55 -0.05,-0.55 -0.04,-0.53 -0.03,-0.53 -0.01,-0.52 -0.01,-0.5 c 0,-4.92 1.47,-12.55 8.37,-17.42 0.29,0 0.69,0 0.69,0.4 0,0.22 -0.09,0.28 -0.34,0.53 -4.64,4.19 -6.35,10.11 -6.35,16.46 0,9.4 3.6,14 6.46,16.58 0.14,0.14 0.23,0.25 0.23,0.42 0,0.42 -0.4,0.42 -0.69,0.42 z"
           id="path8790" /><path
           style="fill:#000000;stroke-width:0"
           inkscape:connector-curvature="0"
           d="m 512.98,392.1 0.16,0.17 0.17,0.16 0.16,0.17 0.17,0.17 0.18,0.17 0.1,0.09 0.1,0.09 0.1,0.1 0.1,0.1 0.11,0.1 0.12,0.11 0.12,0.11 0.13,0.11 0.14,0.12 0.14,0.13 0.15,0.13 0.16,0.13 0.17,0.15 0.18,0.15 0.19,0.15 0.2,0.17 0.21,0.17 0.22,0.18 0.23,0.19 0.24,0.2 0.26,0.2 0.27,0.22 c 0.74,0.59 3.34,2.69 4.36,3.66 2.13,2.09 3.45,3.87 3.45,4.29 0,0.41 -0.45,0.41 -0.59,0.41 -0.31,0 -0.42,-0.06 -0.59,-0.35 -1.08,-1.59 -1.82,-2.12 -2.64,-2.12 -0.43,0 -0.96,0.03 -2,1.05 -1.18,1.18 -1.94,1.42 -2.75,1.42 -2.79,0 -4.68,-3.03 -4.68,-4.06 0,-0.33 0.36,-0.43 0.6,-0.43 0.42,0 0.5,0.1 0.62,0.49 0.53,1.22 2.49,1.3 3.05,1.3 0.8,0 1.7,-0.22 2.19,-0.33 1.92,-0.41 2.15,-0.41 3.03,-0.41 -0.91,-0.95 -1.53,-1.58 -4.85,-4.22 -2.71,-2.15 -3.65,-3.03 -4.31,-3.73 -2.09,-2.05 -3.11,-3.58 -3.11,-3.91 0,-0.4 0.46,-0.4 0.6,-0.4 0.34,0 0.42,0.06 0.59,0.34 0.94,1.33 2.02,2.12 3.2,2.12 0.42,0 0.94,-0.03 1.88,-0.9 1.09,-1.05 1.78,-1.56 2.9,-1.56 3.72,0 6.07,4.21 6.07,5.39 0,0.42 -0.39,0.45 -0.6,0.45 -0.42,0 -0.5,-0.17 -0.62,-0.55 -0.67,-1.75 -2.72,-2.58 -4.44,-2.58 -0.8,0 -1.67,0.18 -2.53,0.38 -1.61,0.34 -1.89,0.34 -2.52,0.34 -0.07,0 -0.59,0 -0.79,-0.03 z"
           id="path8792" /><path
           style="fill:#000000;stroke-width:0"
           inkscape:connector-curvature="0"
           d="m 530.78,415.18 -0.03,0 -0.02,0 -0.03,0 -0.02,0 -0.03,0 -0.03,0 -0.03,0 -0.02,-0.01 -0.03,0 -0.03,0 -0.03,-0.01 -0.03,0 -0.02,-0.01 -0.03,-0.01 -0.03,0 -0.02,-0.01 -0.03,-0.01 -0.02,-0.02 -0.03,-0.01 -0.02,-0.01 -0.02,-0.02 -0.02,-0.02 -0.02,-0.02 -0.01,-0.01 -0.01,-0.01 0,-0.01 -0.01,-0.01 -0.01,-0.01 0,-0.02 -0.01,-0.01 -0.01,-0.01 0,-0.02 -0.01,-0.01 0,-0.02 0,-0.01 -0.01,-0.02 0,-0.02 0,-0.02 0,-0.01 0,-0.02 -0.01,-0.02 c 0,-0.17 0.12,-0.28 0.32,-0.53 3,-2.75 6.34,-7.46 6.34,-16.44 0,-7.28 -2.26,-12.8 -6.03,-16.2 -0.58,-0.6 -0.63,-0.63 -0.63,-0.82 0,-0.17 0.12,-0.4 0.46,-0.4 0.42,0 3.73,2.29 6.03,6.65 1.53,2.89 2.55,6.66 2.55,10.74 0,4.9 -1.47,12.53 -8.36,17.42 z"
           id="path8794" /></g>    </g>
    <rect
       style="fill:none;fill-opacity:1;fill-rule:nonzero;stroke:#000000;stroke-width:0.24097489;stroke-linejoin:round;stroke-miterlimit:4;stroke-dasharray:none;stroke-dashoffset:0;stroke-opacity:1;paint-order:markers fill stroke"
       id="rect3315-3"
       width="12.680516"
       height="12.823058"
       x="67.734108"
       y="25.934217"
       ry="3.8516619e-06"
       inkscape:export-xdpi="300"
       inkscape:export-ydpi="300" />
    <rect
       style="fill:none;fill-opacity:1;fill-rule:nonzero;stroke:#000000;stroke-width:0.24097489;stroke-linejoin:round;stroke-miterlimit:4;stroke-dasharray:none;stroke-dashoffset:0;stroke-opacity:1;paint-order:markers fill stroke"
       id="rect3315-3-6"
       width="12.680516"
       height="12.823058"
       x="130.96623"
       y="26.005131"
       ry="3.8516619e-06"
       inkscape:export-xdpi="300"
       inkscape:export-ydpi="300" />
    <rect
       style="fill:none;fill-opacity:1;fill-rule:nonzero;stroke:#000000;stroke-width:0.24097489;stroke-linejoin:round;stroke-miterlimit:4;stroke-dasharray:none;stroke-dashoffset:0;stroke-opacity:1;paint-order:markers fill stroke"
       id="rect3315-3-7"
       width="12.680516"
       height="12.823058"
       x="36.03281"
       y="26.046309"
       ry="3.8516619e-06"
       inkscape:export-xdpi="300"
       inkscape:export-ydpi="300" />
  </g>
</svg>
