<?xml version="1.0" encoding="UTF-8" standalone="no"?>
<!-- Created with Inkscape (http://www.inkscape.org/) -->

<svg
   xmlns:dc="http://purl.org/dc/elements/1.1/"
   xmlns:cc="http://creativecommons.org/ns#"
   xmlns:rdf="http://www.w3.org/1999/02/22-rdf-syntax-ns#"
   xmlns:svg="http://www.w3.org/2000/svg"
   xmlns="http://www.w3.org/2000/svg"
   xmlns:sodipodi="http://sodipodi.sourceforge.net/DTD/sodipodi-0.dtd"
   xmlns:inkscape="http://www.inkscape.org/namespaces/inkscape"
   version="1.1"
   id="svg2"
   xml:space="preserve"
   width="557.25494"
   height="170.9258"
   viewBox="0 0 557.25494 170.9258"
   sodipodi:docname="polyphase_direct_L.svg"
   inkscape:version="0.92.2 5c3e80d, 2017-08-06"><metadata
     id="metadata8"><rdf:RDF><cc:Work
         rdf:about=""><dc:format>image/svg+xml</dc:format><dc:type
           rdf:resource="http://purl.org/dc/dcmitype/StillImage" /><dc:title></dc:title></cc:Work></rdf:RDF></metadata><defs
     id="defs6"><inkscape:path-effect
       effect="bspline"
       id="path-effect3647"
       is_visible="true"
       weight="33.333333"
       steps="2"
       helper_size="0"
       apply_no_weight="true"
       apply_with_weight="true"
       only_selected="false" /><inkscape:path-effect
       effect="bspline"
       id="path-effect3391"
       is_visible="true"
       weight="33.333333"
       steps="2"
       helper_size="0"
       apply_no_weight="true"
       apply_with_weight="true"
       only_selected="false" /><marker
       inkscape:stockid="Arrow2Lend"
       orient="auto"
       refY="0.0"
       refX="0.0"
       id="marker1229"
       style="overflow:visible;"
       inkscape:isstock="true"><path
         id="path1227"
         style="fill-rule:evenodd;stroke-width:0.625;stroke-linejoin:round;stroke:#000000;stroke-opacity:1;fill:#000000;fill-opacity:1"
         d="M 8.7185878,4.0337352 L -2.2072895,0.016013256 L 8.7185884,-4.0017078 C 6.9730900,-1.6296469 6.9831476,1.6157441 8.7185878,4.0337352 z "
         transform="scale(1.1) rotate(180) translate(1,0)" /></marker><inkscape:path-effect
       effect="bspline"
       id="path-effect1225"
       is_visible="true"
       weight="33.333333"
       steps="2"
       helper_size="0"
       apply_no_weight="true"
       apply_with_weight="true"
       only_selected="false" /><marker
       inkscape:stockid="Arrow2Lend"
       orient="auto"
       refY="0.0"
       refX="0.0"
       id="Arrow2Lend"
       style="overflow:visible;"
       inkscape:isstock="true"><path
         id="path979"
         style="fill-rule:evenodd;stroke-width:0.625;stroke-linejoin:round;stroke:#000000;stroke-opacity:1;fill:#000000;fill-opacity:1"
         d="M 8.7185878,4.0337352 L -2.2072895,0.016013256 L 8.7185884,-4.0017078 C 6.9730900,-1.6296469 6.9831476,1.6157441 8.7185878,4.0337352 z "
         transform="scale(1.1) rotate(180) translate(1,0)" /></marker><inkscape:path-effect
       effect="bspline"
       id="path-effect1228"
       is_visible="true"
       weight="33.333333"
       steps="2"
       helper_size="0"
       apply_no_weight="true"
       apply_with_weight="true"
       only_selected="false" /></defs><sodipodi:namedview
     pagecolor="#ffffff"
     bordercolor="#666666"
     borderopacity="1"
     objecttolerance="10"
     gridtolerance="10"
     guidetolerance="10"
     inkscape:pageopacity="0"
     inkscape:pageshadow="2"
     inkscape:window-width="1440"
     inkscape:window-height="799"
     id="namedview4"
     showgrid="true"
     inkscape:zoom="1.9591982"
     inkscape:cx="263.06923"
     inkscape:cy="82.774601"
     inkscape:window-x="0"
     inkscape:window-y="1"
     inkscape:window-maximized="1"
     inkscape:current-layer="g10"><inkscape:grid
       type="xygrid"
       id="grid1085" /></sodipodi:namedview><g
     id="g10"
     inkscape:groupmode="layer"
     inkscape:label="polyphase_direct_L"
     transform="matrix(1.3333333,0,0,-1.3333333,0,170.9258)"><g
       transform="matrix(1,0,0,-1,0,128.19435)"
       id="g14"><path
         inkscape:connector-curvature="0"
         id="path16"
         style="fill:none;stroke:#000000;stroke-width:0.56692898;stroke-linecap:butt;stroke-linejoin:miter;stroke-miterlimit:4;stroke-dasharray:none;stroke-opacity:1"
         d="m 32.809,15.348 c 15,0 30,0 45,0" /></g><g
       transform="matrix(1,0,0,-1,0,225.69435)"
       id="g18"><path
         inkscape:connector-curvature="0"
         id="path20"
         style="fill:none;stroke:#000000;stroke-width:0.56692898;stroke-linecap:butt;stroke-linejoin:miter;stroke-miterlimit:4;stroke-dasharray:none;stroke-opacity:1"
         d="m 355.309,112.848 c 10,0 20,0 30,0" /></g><g
       transform="matrix(-1,0,0,1,0,225.69435)"
       id="g22"><path
         inkscape:connector-curvature="0"
         id="path24"
         style="fill:#000000;fill-opacity:1;fill-rule:evenodd;stroke:#000000;stroke-width:0.38976401;stroke-linecap:butt;stroke-linejoin:round;stroke-miterlimit:4;stroke-dasharray:none;stroke-opacity:1"
         d="m -379.246,-110.332 -6.813,-2.504 6.813,-2.508 c -1.09,1.481 -1.082,3.504 0,5.012 z" /></g><g
       transform="matrix(1,0,0,-1,0,128.19435)"
       id="g26"><path
         inkscape:connector-curvature="0"
         id="path28"
         style="fill:none;stroke:#000000;stroke-width:0.56692898;stroke-linecap:butt;stroke-linejoin:miter;stroke-miterlimit:4;stroke-dasharray:none;stroke-opacity:1"
         d="m 77.809,15.348 c 15,0 30,0 45,0" /></g><g
       transform="matrix(-1,0,0,1,0,128.19435)"
       id="g30"><path
         inkscape:connector-curvature="0"
         id="path32"
         style="fill:#000000;fill-opacity:1;fill-rule:evenodd;stroke:#000000;stroke-width:0.38976401;stroke-linecap:butt;stroke-linejoin:round;stroke-miterlimit:4;stroke-dasharray:none;stroke-opacity:1"
         d="m -116.746,-12.832 -6.813,-2.504 6.813,-2.508 c -1.09,1.481 -1.082,3.504 0,5.012 z" /></g><g
       transform="matrix(1,0,0,-1,0,128.19435)"
       id="g34"><path
         inkscape:connector-curvature="0"
         id="path36"
         style="fill:none;stroke:#000000;stroke-width:0.56692898;stroke-linecap:butt;stroke-linejoin:miter;stroke-miterlimit:4;stroke-dasharray:none;stroke-opacity:1"
         d="m 220.309,0.348 h 30 v 30 h -30 z" /></g><path
       inkscape:connector-curvature="0"
       id="path38"
       style="fill:#000000;fill-opacity:1;fill-rule:evenodd;stroke:none"
       d="m 239.059,117.347 0.011,0.054 0.012,0.051 0.016,0.051 0.011,0.051 0.047,0.129 0.02,0.035 0.019,0.039 0.02,0.035 0.082,0.094 0.035,0.023 0.035,0.028 0.039,0.023 0.094,0.039 0.055,0.02 0.062,0.019 0.028,0.004 0.035,0.008 0.031,0.008 0.039,0.007 0.035,0.004 0.078,0.016 h 0.043 l 0.043,0.004 0.047,0.008 0.094,0.008 0.051,0.003 h 0.054 l 0.051,0.004 0.059,0.004 h 0.054 l 0.063,0.004 h 0.058 l 0.063,0.004 h 0.277 c 0.5,0 0.633,0 0.633,0.316 0,0.196 -0.18,0.196 -0.262,0.196 -0.558,0 -1.921,-0.051 -2.468,-0.051 -0.5,0 -1.719,0.051 -2.211,0.051 -0.121,0 -0.321,0 -0.321,-0.332 0,-0.18 0.153,-0.18 0.461,-0.18 0.039,0 0.352,0 0.641,-0.031 0.297,-0.035 0.449,-0.051 0.449,-0.266 0,-0.066 -0.023,-0.117 -0.07,-0.312 l -2.227,-8.875 c -0.168,-0.645 -0.203,-0.774 -1.523,-0.774 -0.277,0 -0.445,0 -0.445,-0.332 0,-0.183 0.148,-0.183 0.445,-0.183 h 7.715 c 0.398,0 0.41,0 0.519,0.281 l 1.309,3.57 c 0.066,0.184 0.066,0.211 0.066,0.231 0,0.062 -0.047,0.183 -0.195,0.183 -0.156,0 -0.168,-0.082 -0.285,-0.347 -0.567,-1.524 -1.301,-3.403 -4.18,-3.403 h -1.562 c -0.239,0 -0.266,0 -0.368,0.012 -0.168,0.016 -0.218,0.035 -0.218,0.168 0,0.047 0,0.082 0.086,0.375 z" /><path
       inkscape:connector-curvature="0"
       id="path40"
       style="fill:#000000;fill-opacity:1;fill-rule:evenodd;stroke:none"
       d="m 227.059,118.097 0.066,-0.129 0.066,-0.125 0.067,-0.117 0.066,-0.114 0.071,-0.109 0.07,-0.106 0.066,-0.105 0.074,-0.094 0.067,-0.093 0.074,-0.09 0.07,-0.09 0.141,-0.156 0.066,-0.075 0.071,-0.07 0.066,-0.062 c 0.879,-0.836 1.754,-1.016 1.785,-1.016 0.168,0 0.168,0.199 0.168,0.348 0,0.285 -0.011,0.304 -0.328,0.425 -0.976,0.348 -1.535,1 -1.867,1.45 -0.727,0.996 -0.902,2.074 -0.992,2.656 -0.012,0.09 -0.071,0.164 -0.156,0.164 -0.129,0 -0.145,-0.109 -0.172,-0.332 -0.328,-2.004 -1.352,-3.406 -2.93,-3.969 -0.211,-0.09 -0.246,-0.09 -0.246,-0.394 0,-0.149 0,-0.348 0.176,-0.348 0.043,0 0.89,0.199 1.707,0.941 0.476,0.453 0.863,0.989 1.175,1.61 V 105.21 c 0,-0.32 0,-0.648 0.29,-0.648 0.289,0 0.289,0.328 0.289,0.648 z" /><g
       transform="matrix(1,0,0,-1,0,128.19435)"
       id="g42"><path
         inkscape:connector-curvature="0"
         id="path44"
         style="fill:none;stroke:#000000;stroke-width:0.55979699;stroke-linecap:butt;stroke-linejoin:miter;stroke-miterlimit:4;stroke-dasharray:none;stroke-opacity:1"
         d="m 190.309,15.348 c 9.75,0 19.5,0 29.25,0" /></g><g
       transform="matrix(-1,0,0,1,0,128.19435)"
       id="g46"><path
         inkscape:connector-curvature="0"
         id="path48"
         style="fill:#000000;fill-opacity:1;fill-rule:evenodd;stroke:#000000;stroke-width:0.38486001;stroke-linecap:butt;stroke-linejoin:round;stroke-miterlimit:4;stroke-dasharray:none;stroke-opacity:1"
         d="m -213.574,-12.863 -6.727,-2.473 6.727,-2.477 c -1.074,1.461 -1.067,3.461 0,4.95 z" /></g><g
       transform="matrix(1,0,0,-1,0,128.19435)"
       id="g50"><path
         inkscape:connector-curvature="0"
         id="path52"
         style="fill:none;stroke:#000000;stroke-width:0.56692898;stroke-linecap:butt;stroke-linejoin:miter;stroke-miterlimit:4;stroke-dasharray:none;stroke-opacity:1"
         d="m 77.809,15.348 c 0,12.5 0,25 0,37.5" /></g><g
       transform="matrix(1,0,0,-1,0,225.69435)"
       id="g54"><path
         inkscape:connector-curvature="0"
         id="path56"
         style="fill:none;stroke:#000000;stroke-width:0.56692898;stroke-linecap:butt;stroke-linejoin:miter;stroke-miterlimit:4;stroke-dasharray:none;stroke-opacity:1"
         d="m 324.984,97.848 h 30 v 30 h -30 z" /></g><path
       inkscape:connector-curvature="0"
       id="path58"
       style="fill:#000000;fill-opacity:1;fill-rule:evenodd;stroke:none"
       d="m 331.598,119.733 v 0.168 l -0.004,0.028 v 0.027 l -0.004,0.027 v 0.028 l -0.004,0.027 -0.012,0.07 -0.008,0.024 -0.004,0.019 -0.011,0.024 -0.004,0.019 -0.012,0.02 -0.012,0.016 -0.011,0.019 -0.012,0.016 -0.016,0.015 -0.015,0.012 -0.016,0.016 h -0.008 l -0.007,0.007 -0.024,0.008 -0.008,0.008 -0.011,0.004 h -0.024 l -0.023,0.008 h -0.028 l -0.011,0.004 h -0.016 c -0.309,0 -0.309,-0.309 -0.309,-0.614 v -12.136 c -0.359,0.648 -0.785,1.125 -1.168,1.449 -0.929,0.777 -1.855,0.949 -1.89,0.949 -0.184,0 -0.184,-0.187 -0.184,-0.32 0,-0.27 0.016,-0.293 0.356,-0.41 1.031,-0.321 1.629,-0.934 1.976,-1.36 0.781,-0.937 0.961,-1.961 1.051,-2.492 0.016,-0.078 0.063,-0.164 0.168,-0.164 0.141,0 0.152,0.117 0.184,0.273 0.339,1.922 1.429,3.25 3.109,3.774 0.226,0.086 0.254,0.086 0.254,0.379 0,0.133 0,0.32 -0.18,0.32 -0.047,0 -0.945,-0.187 -1.816,-0.883 -0.5,-0.425 -0.91,-0.937 -1.246,-1.515 z" /><path
       inkscape:connector-curvature="0"
       id="path60"
       style="fill:#000000;fill-opacity:1;fill-rule:evenodd;stroke:none"
       d="m 349.734,117.476 0.016,0.054 0.012,0.055 0.011,0.051 0.024,0.094 0.015,0.042 0.012,0.043 0.016,0.036 0.015,0.039 0.016,0.035 0.039,0.062 0.024,0.028 0.027,0.027 0.055,0.047 0.035,0.023 0.035,0.02 0.086,0.031 0.047,0.016 0.027,0.008 0.024,0.003 0.054,0.016 0.094,0.012 0.035,0.004 0.035,0.008 0.035,0.003 0.039,0.004 h 0.079 l 0.039,0.004 0.043,0.004 h 0.089 l 0.047,0.004 h 0.203 c 0.356,0 0.497,0 0.497,0.336 0,0.187 -0.153,0.187 -0.418,0.187 h -2.039 c -0.403,0 -0.418,0 -0.602,-0.32 l -5.641,-9.578 -1.207,9.508 c -0.05,0.39 -0.078,0.39 -0.48,0.39 h -2.117 c -0.289,0 -0.461,0 -0.461,-0.32 0,-0.203 0.136,-0.203 0.445,-0.203 0.203,0 0.481,-0.012 0.664,-0.031 0.246,-0.035 0.34,-0.082 0.34,-0.27 0,-0.066 -0.016,-0.121 -0.059,-0.32 l -1.964,-8.555 c -0.157,-0.676 -0.415,-1.211 -1.672,-1.258 -0.078,0 -0.278,-0.019 -0.278,-0.324 0,-0.144 0.094,-0.199 0.223,-0.199 0.492,0 1.027,0.055 1.539,0.055 0.527,0 1.086,-0.055 1.598,-0.055 0.074,0 0.273,0 0.273,0.336 0,0.187 -0.168,0.187 -0.273,0.187 -0.887,0.012 -1.055,0.352 -1.055,0.735 0,0.117 0.016,0.203 0.063,0.387 l 2.097,9.16 h 0.024 l 1.328,-10.422 c 0.027,-0.199 0.043,-0.383 0.23,-0.383 0.168,0 0.262,0.184 0.34,0.301 l 6.242,10.644 h 0.012 l -2.207,-9.632 c -0.156,-0.661 -0.188,-0.79 -1.406,-0.79 -0.262,0 -0.43,0 -0.43,-0.324 0,-0.199 0.184,-0.199 0.23,-0.199 0.434,0 1.485,0.055 1.914,0.055 0.637,0 1.301,-0.055 1.934,-0.055 0.094,0 0.293,0 0.293,0.336 0,0.187 -0.141,0.187 -0.434,0.187 -0.57,0 -1,0 -1,0.301 0,0.067 0,0.098 0.079,0.403 z" /><g
       transform="matrix(1,0,0,-1,0,128.19435)"
       id="g62"><path
         inkscape:connector-curvature="0"
         id="path64"
         style="fill:none;stroke:#000000;stroke-width:0.56692898;stroke-linecap:butt;stroke-linejoin:miter;stroke-miterlimit:4;stroke-dasharray:none;stroke-opacity:1"
         d="m 77.809,52.848 c 15,0 30,0 45,0" /></g><g
       transform="matrix(-1,0,0,1,0,128.19435)"
       id="g66"><path
         inkscape:connector-curvature="0"
         id="path68"
         style="fill:#000000;fill-opacity:1;fill-rule:evenodd;stroke:#000000;stroke-width:0.38976401;stroke-linecap:butt;stroke-linejoin:round;stroke-miterlimit:4;stroke-dasharray:none;stroke-opacity:1"
         d="m -116.746,-50.332 -6.813,-2.504 6.813,-2.508 c -1.09,1.481 -1.082,3.504 0,5.012 z" /></g><path
       inkscape:connector-curvature="0"
       id="path74"
       style="fill:#000000;fill-opacity:1;fill-rule:evenodd;stroke:none"
       d="m 293.238,38.933 v 0.078 l -0.008,0.047 v 0.023 l -0.015,0.078 -0.004,0.016 -0.008,0.019 -0.004,0.016 -0.004,0.012 -0.007,0.015 -0.008,0.012 -0.004,0.012 -0.008,0.011 -0.004,0.012 -0.008,0.012 -0.015,0.016 -0.008,0.003 -0.016,0.016 -0.012,0.004 -0.015,0.008 h -0.008 l -0.008,0.004 h -0.015 c -0.055,0 -0.176,-0.055 -0.188,-0.367 -0.055,-0.95 -0.969,-1.512 -1.82,-1.512 -0.762,0 -1.422,0.422 -2.106,0.906 -0.711,0.492 -1.414,0.988 -2.269,0.988 -1.223,0 -2.196,-0.976 -2.196,-2.242 0,-0.301 0.11,-0.41 0.188,-0.41 0.133,0 0.184,0.258 0.184,0.316 0.066,1.153 1.14,1.567 1.824,1.567 0.762,0 1.418,-0.426 2.101,-0.91 0.707,-0.493 1.418,-0.989 2.274,-0.989 1.215,0 2.187,0.981 2.187,2.239 z" /><path
       inkscape:connector-curvature="0"
       id="path76"
       style="fill:#000000;fill-opacity:1;fill-rule:evenodd;stroke:none"
       d="m 293.238,35.722 v 0.086 l -0.004,0.015 v 0.016 l -0.004,0.012 v 0.031 l -0.003,0.012 -0.004,0.015 -0.004,0.012 v 0.012 l -0.008,0.023 v 0.008 l -0.008,0.023 v 0.008 l -0.004,0.008 -0.004,0.012 -0.015,0.031 -0.008,0.012 -0.008,0.015 -0.008,0.012 -0.008,0.008 -0.007,0.012 -0.008,0.003 -0.016,0.016 -0.015,0.008 -0.004,0.004 -0.016,0.008 h -0.023 v 0.003 c -0.055,0 -0.176,-0.07 -0.188,-0.371 -0.055,-0.949 -0.969,-1.511 -1.82,-1.511 -0.762,0 -1.422,0.425 -2.106,0.906 -0.711,0.492 -1.414,0.988 -2.269,0.988 -1.223,0 -2.196,-0.972 -2.196,-2.238 0,-0.305 0.11,-0.414 0.188,-0.414 0.133,0 0.184,0.262 0.184,0.316 0.066,1.157 1.14,1.571 1.824,1.571 0.762,0 1.418,-0.43 2.101,-0.911 0.707,-0.496 1.418,-0.988 2.274,-0.988 1.246,0 2.187,1.016 2.187,2.227 z" /><path
       inkscape:connector-curvature="0"
       id="path78"
       style="fill:#000000;fill-opacity:1;fill-rule:evenodd;stroke:none"
       d="m 158.25,51.153004 v 0.082 l -0.008,0.039 -0.007,0.043 -0.008,0.035 -0.024,0.078 -0.015,0.035 -0.016,0.039 -0.019,0.035 -0.016,0.032 -0.023,0.035 -0.02,0.031 -0.055,0.063 -0.023,0.027 -0.031,0.027 -0.028,0.024 -0.031,0.027 -0.027,0.02 -0.035,0.023 -0.071,0.039 -0.07,0.031 -0.117,0.035 -0.039,0.004 -0.039,0.008 -0.039,0.004 h -0.043 c -0.442,0 -0.809,-0.371 -0.809,-0.816 0,-0.446 0.367,-0.817 0.809,-0.817 0.441,0 0.804,0.371 0.804,0.817 z" /><path
       inkscape:connector-curvature="0"
       id="path80"
       style="fill:#000000;fill-opacity:1;fill-rule:evenodd;stroke:none"
       d="m 158.25,45.000004 v 0.086 l -0.015,0.078 -0.008,0.043 -0.012,0.035 -0.012,0.04 -0.015,0.035 -0.016,0.039 -0.019,0.031 -0.016,0.035 -0.023,0.035 -0.02,0.032 -0.027,0.027 -0.028,0.031 -0.023,0.028 -0.031,0.031 -0.028,0.023 -0.031,0.024 -0.027,0.027 -0.106,0.059 -0.035,0.015 -0.035,0.012 -0.039,0.016 -0.039,0.011 -0.078,0.016 -0.078,0.008 h -0.043 c -0.442,0 -0.809,-0.371 -0.809,-0.817 0,-0.441 0.367,-0.812 0.809,-0.812 0.441,0 0.804,0.371 0.804,0.812 z" /><path
       inkscape:connector-curvature="0"
       id="path82"
       style="fill:#000000;fill-opacity:1;fill-rule:evenodd;stroke:none"
       d="m 158.25,38.852004 v 0.082 l -0.008,0.043 -0.007,0.039 -0.008,0.035 -0.012,0.043 -0.012,0.035 -0.015,0.039 -0.016,0.035 -0.019,0.036 -0.016,0.035 -0.023,0.031 -0.02,0.031 -0.055,0.063 -0.023,0.027 -0.031,0.027 -0.028,0.028 -0.031,0.023 -0.027,0.02 -0.035,0.023 -0.071,0.039 -0.07,0.031 -0.117,0.036 -0.039,0.004 -0.039,0.007 -0.039,0.004 h -0.043 c -0.442,0 -0.809,-0.371 -0.809,-0.816 0,-0.445 0.367,-0.817 0.809,-0.817 0.441,0 0.804,0.372 0.804,0.817 z" /><g
       transform="matrix(1,0,0,-0.6182724,0,108.02081)"
       id="g92"><path
         inkscape:connector-curvature="0"
         id="path94"
         style="fill:none;stroke:#000000;stroke-width:0.56692898;stroke-linecap:butt;stroke-linejoin:miter;stroke-miterlimit:4;stroke-dasharray:none;stroke-opacity:1"
         d="m 77.809,52.848 c 0,20 0,40 0,60" /></g><g
       transform="matrix(1,0,0,-1,0,128.19435)"
       id="g96"><path
         inkscape:connector-curvature="0"
         id="path98"
         style="fill:none;stroke:#000000;stroke-width:0.56692898;stroke-linecap:butt;stroke-linejoin:miter;stroke-miterlimit:4;stroke-dasharray:none;stroke-opacity:1"
         d="m 77.809,112.848 c 15,0 30,0 45,0" /></g><g
       transform="matrix(-1,0,0,1,0,128.19435)"
       id="g100"><path
         inkscape:connector-curvature="0"
         id="path102"
         style="fill:#000000;fill-opacity:1;fill-rule:evenodd;stroke:#000000;stroke-width:0.38976401;stroke-linecap:butt;stroke-linejoin:round;stroke-miterlimit:4;stroke-dasharray:none;stroke-opacity:1"
         d="m -116.746,-110.332 -6.813,-2.504 6.813,-2.508 c -1.09,1.481 -1.082,3.504 0,5.012 z" /></g><g
       transform="matrix(1,0,0,-1,0,128.19435)"
       id="g104"><path
         inkscape:connector-curvature="0"
         id="path106"
         style="fill:none;stroke:#000000;stroke-width:0.69434398;stroke-linecap:butt;stroke-linejoin:miter;stroke-miterlimit:4;stroke-dasharray:none;stroke-opacity:1"
         d="m 122.809,0.348 h 67.5 v 30 h -67.5 z" /></g><g
       transform="matrix(1,0,0,-1,0,128.19435)"
       id="g108"><path
         inkscape:connector-curvature="0"
         id="path110"
         style="fill:none;stroke:#000000;stroke-width:0.69434398;stroke-linecap:butt;stroke-linejoin:miter;stroke-miterlimit:4;stroke-dasharray:none;stroke-opacity:1"
         d="m 124.309,37.848 h 67.5 v 30 h -67.5 z" /></g><g
       transform="matrix(1,0,0,-1,0,128.19435)"
       id="g112"><path
         inkscape:connector-curvature="0"
         id="path114"
         style="fill:none;stroke:#000000;stroke-width:0.69434398;stroke-linecap:butt;stroke-linejoin:miter;stroke-miterlimit:4;stroke-dasharray:none;stroke-opacity:1"
         d="m 124.309,97.848 h 67.5 v 30 h -67.5 z" /></g><path
       inkscape:connector-curvature="0"
       id="path116"
       style="fill:#000000;fill-opacity:1;fill-rule:evenodd;stroke:none"
       d="m 236.809,51.499 v 0.039 l -0.004,0.043 -0.008,0.039 -0.004,0.039 -0.035,0.117 -0.016,0.036 -0.015,0.039 -0.016,0.031 -0.02,0.035 -0.023,0.035 -0.02,0.031 -0.023,0.028 -0.055,0.062 -0.027,0.028 -0.027,0.023 -0.063,0.047 -0.035,0.019 -0.031,0.024 -0.071,0.035 -0.039,0.016 -0.039,0.011 -0.035,0.012 -0.039,0.008 -0.043,0.008 -0.078,0.008 H 236 c -0.441,0 -0.809,-0.372 -0.809,-0.813 0,-0.445 0.368,-0.816 0.809,-0.816 0.445,0 0.809,0.371 0.809,0.816 z" /><path
       inkscape:connector-curvature="0"
       id="path118"
       style="fill:#000000;fill-opacity:1;fill-rule:evenodd;stroke:none"
       d="m 236.809,45.347 v 0.043 l -0.004,0.039 -0.008,0.043 -0.004,0.039 -0.023,0.078 -0.012,0.035 -0.016,0.039 -0.031,0.07 -0.02,0.036 -0.023,0.031 -0.02,0.031 -0.023,0.031 -0.027,0.032 -0.082,0.082 -0.063,0.046 -0.035,0.024 -0.102,0.051 -0.039,0.015 -0.039,0.012 -0.035,0.012 -0.039,0.011 -0.043,0.004 -0.039,0.008 -0.039,0.004 H 236 c -0.441,0 -0.809,-0.371 -0.809,-0.816 0,-0.446 0.368,-0.817 0.809,-0.817 0.445,0 0.809,0.371 0.809,0.817 z" /><path
       inkscape:connector-curvature="0"
       id="path120"
       style="fill:#000000;fill-opacity:1;fill-rule:evenodd;stroke:none"
       d="m 236.809,39.198 v 0.039 l -0.004,0.043 -0.008,0.039 -0.004,0.043 -0.012,0.035 -0.023,0.079 -0.016,0.035 -0.015,0.039 -0.016,0.035 -0.02,0.031 -0.023,0.035 -0.02,0.032 -0.023,0.031 -0.027,0.031 -0.055,0.055 -0.027,0.023 -0.032,0.028 -0.031,0.019 -0.035,0.024 -0.031,0.019 -0.071,0.035 -0.039,0.016 -0.039,0.012 -0.035,0.011 -0.039,0.008 -0.043,0.008 -0.039,0.008 H 236 c -0.441,0 -0.809,-0.367 -0.809,-0.813 0,-0.445 0.368,-0.816 0.809,-0.816 0.445,0 0.809,0.371 0.809,0.816 z" /><g
       transform="matrix(1,0,0,-1,0,128.19435)"
       id="g122"><path
         inkscape:connector-curvature="0"
         id="path124"
         style="fill:none;stroke:#000000;stroke-width:0.56692898;stroke-linecap:butt;stroke-linejoin:miter;stroke-miterlimit:4;stroke-dasharray:none;stroke-opacity:1"
         d="m 250.309,52.848 c 10,0 20,0 30,0" /></g><g
       transform="matrix(-1,0,0,1,0,128.19435)"
       id="g126"><path
         inkscape:connector-curvature="0"
         id="path128"
         style="fill:#000000;fill-opacity:1;fill-rule:evenodd;stroke:#000000;stroke-width:0.38976401;stroke-linecap:butt;stroke-linejoin:round;stroke-miterlimit:4;stroke-dasharray:none;stroke-opacity:1"
         d="m -274.246,-50.332 -6.813,-2.504 6.813,-2.508 c -1.09,1.481 -1.082,3.504 0,5.012 z" /></g><g
       transform="matrix(1.3063669,0,0,-1,-76.686394,128.19435)"
       id="g130"><path
         inkscape:connector-curvature="0"
         id="path132"
         style="fill:none;stroke:#000000;stroke-width:0.56692898;stroke-linecap:butt;stroke-linejoin:miter;stroke-miterlimit:4;stroke-dasharray:none;stroke-opacity:1"
         d="m 250.309,112.848 c 10,0 20,0 30,0" /></g><g
       transform="matrix(-1,0,0,1,0,225.69435)"
       id="g134"><path
         inkscape:connector-curvature="0"
         id="path136"
         style="fill:#000000;fill-opacity:1;fill-rule:evenodd;stroke:#000000;stroke-width:0.38976401;stroke-linecap:butt;stroke-linejoin:round;stroke-miterlimit:4;stroke-dasharray:none;stroke-opacity:1"
         d="m -274.246,-110.332 -6.813,-2.504 6.813,-2.508 c -1.09,1.481 -1.082,3.504 0,5.012 z" /></g><g
       transform="matrix(1,0,0,-1,0,128.19435)"
       id="g138"><path
         inkscape:connector-curvature="0"
         id="path140"
         style="fill:none;stroke:#000000;stroke-width:0.56692898;stroke-linecap:butt;stroke-linejoin:miter;stroke-miterlimit:4;stroke-dasharray:none;stroke-opacity:1"
         d="m 296.379,52.82 c 0,4.141 -3.359,7.5 -7.5,7.5 -4.141,0 -7.5,-3.359 -7.5,-7.5 0,-4.14 3.359,-7.5 7.5,-7.5 4.141,0 7.5,3.36 7.5,7.5 z" /></g><path
       inkscape:connector-curvature="0"
       id="path142"
       style="fill:#000000;fill-opacity:1;fill-rule:evenodd;stroke:none"
       d="m 289.309,75.007 h 2.379 c 0.117,0 0.281,0 0.281,0.168 0,0.172 -0.164,0.172 -0.281,0.172 h -2.379 v 2.386 c 0,0.114 0,0.278 -0.172,0.278 -0.168,0 -0.168,-0.164 -0.168,-0.278 v -2.386 h -2.387 c -0.125,0 -0.281,0 -0.281,-0.172 0,-0.168 0.156,-0.168 0.281,-0.168 h 2.387 v -2.383 c 0,-0.121 0,-0.281 0.168,-0.281 0.172,0 0.172,0.16 0.172,0.281 z" /><g
       transform="matrix(1,0,0,-1,0,225.69435)"
       id="g144"><path
         inkscape:connector-curvature="0"
         id="path146"
         style="fill:none;stroke:#000000;stroke-width:0.56692898;stroke-linecap:butt;stroke-linejoin:miter;stroke-miterlimit:4;stroke-dasharray:none;stroke-opacity:1"
         d="m 296.379,112.82 c 0,4.141 -3.359,7.5 -7.5,7.5 -4.141,0 -7.5,-3.359 -7.5,-7.5 0,-4.14 3.359,-7.5 7.5,-7.5 4.141,0 7.5,3.36 7.5,7.5 z" /></g><path
       inkscape:connector-curvature="0"
       id="path148"
       style="fill:#000000;fill-opacity:1;fill-rule:evenodd;stroke:none"
       d="m 289.309,112.507 h 2.379 c 0.117,0 0.281,0 0.281,0.168 0,0.172 -0.164,0.172 -0.281,0.172 h -2.379 v 2.386 c 0,0.114 0,0.278 -0.172,0.278 -0.168,0 -0.168,-0.164 -0.168,-0.278 v -2.386 h -2.387 c -0.125,0 -0.281,0 -0.281,-0.172 0,-0.168 0.156,-0.168 0.281,-0.168 h 2.387 v -2.383 c 0,-0.121 0,-0.281 0.168,-0.281 0.172,0 0.172,0.16 0.172,0.281 z" /><g
       transform="matrix(1,0,0,-1.8571424,0,209.25338)"
       id="g162"><path
         inkscape:connector-curvature="0"
         id="path164"
         style="fill:none;stroke:#000000;stroke-width:0.56692898;stroke-linecap:butt;stroke-linejoin:miter;stroke-miterlimit:4;stroke-dasharray:none;stroke-opacity:1"
         d="m 289.309,94.098 c 0,3.5 0,7 0,10.5" /></g><g
       transform="matrix(1,0,0,-1,0,225.69435)"
       id="g170"><path
         inkscape:connector-curvature="0"
         id="path172"
         style="fill:none;stroke:#000000;stroke-width:0.54525501;stroke-linecap:butt;stroke-linejoin:miter;stroke-miterlimit:4;stroke-dasharray:none;stroke-opacity:1"
         d="m 296.059,112.848 c 9.25,0 18.5,0 27.75,0" /></g><g
       transform="matrix(-1,0,0,1,0,225.69435)"
       id="g174"><path
         inkscape:connector-curvature="0"
         id="path176"
         style="fill:#000000;fill-opacity:1;fill-rule:evenodd;stroke:#000000;stroke-width:0.374863;stroke-linecap:butt;stroke-linejoin:round;stroke-miterlimit:4;stroke-dasharray:none;stroke-opacity:1"
         d="m -317.977,-110.43 -6.554,-2.406 6.554,-2.41 c -1.046,1.422 -1.043,3.367 0,4.816 z" /></g><path
       inkscape:connector-curvature="0"
       id="path178"
       style="fill:#000000;fill-opacity:1;fill-rule:evenodd;stroke:none"
       d="m 4.887,113.706 0.008,0.043 0.015,0.051 0.012,0.055 0.012,0.062 0.019,0.063 0.02,0.07 0.019,0.074 0.047,0.148 0.031,0.083 0.032,0.085 0.031,0.079 0.035,0.086 0.039,0.082 0.043,0.085 0.043,0.083 0.051,0.082 0.047,0.078 0.054,0.078 0.117,0.148 0.063,0.067 0.066,0.066 0.071,0.059 0.074,0.054 0.082,0.047 0.039,0.024 0.043,0.019 0.043,0.016 0.043,0.019 0.043,0.016 0.094,0.023 0.05,0.012 0.047,0.004 0.051,0.008 0.051,0.004 h 0.051 c 0.082,0 0.465,0 0.797,-0.215 -0.446,-0.086 -0.766,-0.504 -0.766,-0.902 0,-0.266 0.176,-0.59 0.605,-0.59 0.356,0 0.868,0.3 0.868,0.972 0,0.871 -0.946,1.102 -1.489,1.102 -0.929,0 -1.492,-0.887 -1.683,-1.27 -0.403,1.102 -1.266,1.27 -1.727,1.27 -1.668,0 -2.582,-2.156 -2.582,-2.578 0,-0.168 0.16,-0.168 0.195,-0.168 0.125,0 0.176,0.039 0.207,0.183 0.543,1.774 1.602,2.196 2.145,2.196 0.305,0 0.863,-0.149 0.863,-1.117 0,-0.52 -0.269,-1.645 -0.863,-3.985 -0.258,-1.039 -0.816,-1.738 -1.523,-1.738 -0.094,0 -0.461,0 -0.797,0.219 0.402,0.078 0.754,0.429 0.754,0.902 0,0.449 -0.352,0.582 -0.594,0.582 -0.481,0 -0.883,-0.434 -0.883,-0.973 0,-0.765 0.805,-1.101 1.504,-1.101 1.062,0 1.633,1.172 1.684,1.269 0.191,-0.617 0.769,-1.269 1.726,-1.269 1.652,0 2.57,2.156 2.57,2.574 0,0.168 -0.144,0.168 -0.195,0.168 -0.144,0 -0.18,-0.066 -0.207,-0.18 -0.527,-1.789 -1.617,-2.191 -2.133,-2.191 -0.625,0 -0.883,0.531 -0.883,1.101 0,0.372 0.098,0.739 0.278,1.473 z" /><path
       inkscape:connector-curvature="0"
       id="path180"
       style="fill:#000000;fill-opacity:1;fill-rule:evenodd;stroke:none"
       d="m 12.762,104.472 v 0.664 h -1.551 v 15.394 h 1.551 v 0.668 h -2.196 v -16.726 z" /><path
       inkscape:connector-curvature="0"
       id="path182"
       style="fill:#000000;fill-opacity:1;fill-rule:evenodd;stroke:none"
       d="m 14.523,109.64 -0.003,-0.024 -0.008,-0.027 v -0.024 l -0.008,-0.027 -0.012,-0.051 -0.035,-0.164 -0.012,-0.051 -0.011,-0.054 -0.008,-0.028 -0.008,-0.046 -0.008,-0.024 -0.008,-0.047 -0.007,-0.039 -0.004,-0.023 -0.004,-0.016 v -0.015 l -0.004,-0.016 v -0.012 l -0.004,-0.015 v -0.016 c 0,-0.297 0.226,-0.453 0.461,-0.453 0.199,0 0.484,0.133 0.594,0.469 0.023,0.035 0.211,0.816 0.308,1.238 l 0.352,1.504 c 0.094,0.371 0.187,0.734 0.269,1.125 0.067,0.281 0.196,0.765 0.211,0.832 0.242,0.519 1.09,2.043 2.606,2.043 0.726,0 0.871,-0.617 0.871,-1.168 0,-1.043 -0.789,-3.18 -1.047,-3.899 -0.137,-0.382 -0.152,-0.59 -0.152,-0.773 0,-0.781 0.554,-1.371 1.308,-1.371 1.504,0 2.102,2.441 2.102,2.574 0,0.168 -0.149,0.168 -0.196,0.168 -0.16,0 -0.16,-0.047 -0.238,-0.301 -0.324,-1.137 -0.851,-2.07 -1.637,-2.07 -0.269,0 -0.382,0.168 -0.382,0.551 0,0.418 0.144,0.82 0.285,1.187 0.308,0.887 0.98,2.723 0.98,3.68 0,1.121 -0.687,1.789 -1.844,1.789 -1.441,0 -2.226,-1.07 -2.496,-1.453 -0.078,0.937 -0.738,1.453 -1.476,1.453 -0.735,0 -1.039,-0.649 -1.199,-0.949 -0.258,-0.575 -0.485,-1.559 -0.485,-1.629 0,-0.168 0.16,-0.168 0.196,-0.168 0.164,0 0.179,0.023 0.273,0.39 0.269,1.184 0.594,1.989 1.172,1.989 0.316,0 0.496,-0.215 0.496,-0.766 0,-0.351 -0.051,-0.543 -0.254,-1.406 z" /><path
       inkscape:connector-curvature="0"
       id="path184"
       style="fill:#000000;fill-opacity:1;fill-rule:evenodd;stroke:none"
       d="M 25.262,121.198 H 23.07 v -0.668 h 1.551 V 105.136 H 23.07 v -0.664 h 2.192 z" /><path
       inkscape:connector-curvature="0"
       id="path186"
       style="fill:#000000;fill-opacity:1;fill-rule:evenodd;stroke:none"
       d="m 400.164,115.855 0.004,0.015 0.004,0.008 0.012,0.059 0.004,0.015 0.007,0.012 0.004,0.019 0.004,0.012 v 0.027 l 0.004,0.012 0.004,0.016 0.004,0.008 v 0.011 l 0.004,0.008 v 0.012 l 0.004,0.008 v 0.011 l 0.004,0.016 v 0.109 c 0,0.301 -0.227,0.45 -0.477,0.45 -0.164,0 -0.43,-0.102 -0.578,-0.348 -0.035,-0.086 -0.168,-0.59 -0.231,-0.895 -0.117,-0.425 -0.23,-0.871 -0.328,-1.316 l -0.746,-2.973 c -0.062,-0.246 -0.773,-1.398 -1.863,-1.398 -0.84,0 -1.027,0.719 -1.027,1.332 0,0.758 0.285,1.785 0.843,3.234 0.266,0.68 0.332,0.86 0.332,1.192 0,0.738 -0.527,1.347 -1.355,1.347 -1.57,0 -2.18,-2.386 -2.18,-2.539 0,-0.164 0.168,-0.164 0.203,-0.164 0.168,0 0.18,0.035 0.262,0.301 0.449,1.551 1.106,2.043 1.668,2.043 0.133,0 0.414,0 0.414,-0.527 0,-0.414 -0.168,-0.836 -0.281,-1.157 -0.66,-1.75 -0.961,-2.687 -0.961,-3.468 0,-1.465 1.043,-1.961 2.012,-1.961 0.652,0 1.207,0.281 1.668,0.742 -0.211,-0.856 -0.407,-1.664 -1.071,-2.543 -0.429,-0.559 -1.058,-1.039 -1.816,-1.039 -0.227,0 -0.973,0.051 -1.254,0.695 0.266,0 0.484,0 0.707,0.199 0.168,0.145 0.332,0.364 0.332,0.676 0,0.512 -0.445,0.578 -0.609,0.578 -0.379,0 -0.926,-0.265 -0.926,-1.074 0,-0.828 0.73,-1.437 1.75,-1.437 1.703,0 3.398,1.507 3.867,3.371 z" /><path
       inkscape:connector-curvature="0"
       id="path188"
       style="fill:#000000;fill-opacity:1;fill-rule:evenodd;stroke:none"
       d="m 405.055,106.101 h -1.602 v 15.183 h 1.602 v 0.66 h -2.262 v -16.5 h 2.262 z" /><path
       inkscape:connector-curvature="0"
       id="path190"
       style="fill:#000000;fill-opacity:1;fill-rule:evenodd;stroke:none"
       d="m 406.871,110.542 -0.004,-0.023 -0.008,-0.028 -0.004,-0.019 -0.003,-0.028 -0.016,-0.054 -0.008,-0.051 -0.016,-0.055 -0.011,-0.054 -0.012,-0.051 -0.012,-0.055 -0.007,-0.023 -0.008,-0.047 -0.008,-0.024 -0.008,-0.047 -0.016,-0.078 -0.003,-0.015 -0.004,-0.012 v -0.043 c 0,-0.297 0.23,-0.449 0.476,-0.449 0.199,0 0.496,0.129 0.61,0.461 0.023,0.035 0.218,0.808 0.316,1.222 l 0.363,1.485 c 0.098,0.363 0.196,0.726 0.278,1.109 0.07,0.277 0.203,0.754 0.218,0.82 0.246,0.516 1.121,2.016 2.688,2.016 0.742,0 0.894,-0.609 0.894,-1.152 0,-1.028 -0.812,-3.137 -1.078,-3.848 -0.144,-0.375 -0.16,-0.578 -0.16,-0.762 0,-0.769 0.574,-1.351 1.352,-1.351 1.55,0 2.164,2.41 2.164,2.543 0,0.164 -0.153,0.164 -0.203,0.164 -0.161,0 -0.161,-0.051 -0.243,-0.297 -0.332,-1.121 -0.875,-2.043 -1.687,-2.043 -0.277,0 -0.395,0.164 -0.395,0.543 0,0.414 0.153,0.809 0.293,1.172 0.321,0.875 1.012,2.687 1.012,3.629 0,1.105 -0.707,1.761 -1.902,1.761 -1.485,0 -2.293,-1.05 -2.571,-1.429 -0.082,0.926 -0.761,1.429 -1.519,1.429 -0.758,0 -1.074,-0.636 -1.238,-0.933 -0.266,-0.567 -0.496,-1.535 -0.496,-1.606 0,-0.164 0.164,-0.164 0.199,-0.164 0.168,0 0.183,0.02 0.281,0.383 0.281,1.168 0.609,1.961 1.203,1.961 0.328,0 0.516,-0.211 0.516,-0.754 0,-0.348 -0.051,-0.535 -0.262,-1.39 z" /><path
       inkscape:connector-curvature="0"
       id="path192"
       style="fill:#000000;fill-opacity:1;fill-rule:evenodd;stroke:none"
       d="m 415.68,121.944 v -0.66 h 1.597 v -15.183 h -1.597 v -0.657 h 2.261 v 16.5 z" /><path
       inkscape:connector-curvature="0"
       id="path194"
       style="fill:#000000;fill-opacity:1;fill-rule:evenodd;stroke:none"
       d="m 298.527,61.069 0.063,0.075 0.062,0.07 0.063,0.066 0.058,0.067 0.059,0.062 0.055,0.063 0.054,0.058 0.051,0.059 0.051,0.055 0.051,0.05 0.051,0.055 0.046,0.051 0.36,0.359 0.086,0.078 0.246,0.235 0.172,0.156 c 0,0.012 0.789,0.738 1.254,1.23 1.214,1.278 1.496,1.934 1.496,1.981 0,0.137 -0.117,0.137 -0.141,0.137 -0.09,0 -0.129,-0.024 -0.191,-0.149 -0.383,-0.656 -0.653,-0.875 -0.961,-0.875 -0.309,0 -0.461,0.207 -0.653,0.438 -0.242,0.32 -0.457,0.586 -0.886,0.586 -0.957,0 -1.547,-1.266 -1.547,-1.555 0,-0.07 0.039,-0.149 0.156,-0.149 0.113,0 0.137,0.067 0.164,0.149 0.242,0.633 0.988,0.644 1.086,0.644 0.27,0 0.516,-0.097 0.809,-0.207 0.511,-0.203 0.656,-0.203 0.988,-0.203 -0.461,-0.59 -1.539,-1.578 -1.777,-1.793 l -1.157,-1.148 c -0.871,-0.918 -1.32,-1.699 -1.32,-1.793 0,-0.141 0.129,-0.141 0.152,-0.141 0.106,0 0.129,0.028 0.207,0.176 0.297,0.481 0.676,0.852 1.09,0.852 0.293,0 0.422,-0.125 0.742,-0.516 0.219,-0.289 0.45,-0.512 0.817,-0.512 1.269,0 2.012,1.739 2.012,2.11 0,0.066 -0.051,0.136 -0.153,0.136 -0.117,0 -0.14,-0.082 -0.18,-0.179 -0.292,-0.891 -1.113,-1.145 -1.539,-1.145 -0.25,0 -0.484,0.078 -0.753,0.176 -0.434,0.176 -0.625,0.23 -0.895,0.23 -0.027,0 -0.23,0 -0.348,-0.039 z" /><path
       inkscape:connector-curvature="0"
       id="path196"
       style="fill:#000000;fill-opacity:1;fill-rule:evenodd;stroke:none"
       d="m 309.996,67.038 h 0.102 l 0.015,0.004 h 0.012 l 0.031,0.008 h 0.016 l 0.016,0.004 0.011,0.004 0.016,0.004 0.015,0.007 0.024,0.008 0.016,0.008 0.007,0.012 0.012,0.008 0.02,0.019 0.003,0.008 0.004,0.004 0.008,0.015 0.004,0.004 0.016,0.032 v 0.015 l 0.004,0.008 0.004,0.012 v 0.05 c 0,0.235 -0.204,0.235 -0.356,0.235 h -5.336 c -0.148,0 -0.359,0 -0.359,-0.227 0,-0.242 0.203,-0.242 0.359,-0.242 z" /><path
       inkscape:connector-curvature="0"
       id="path198"
       style="fill:#000000;fill-opacity:1;fill-rule:evenodd;stroke:none"
       d="m 314.32,70.96 v 0.129 l -0.004,0.012 v 0.007 l -0.004,0.004 v 0.028 l -0.007,0.011 v 0.012 l -0.008,0.008 -0.008,0.016 -0.016,0.015 -0.023,0.012 -0.012,0.004 h -0.011 l -0.012,0.004 -0.008,0.004 h -0.016 l -0.003,0.004 h -0.137 c -0.574,-0.602 -1.387,-0.61 -1.754,-0.61 v -0.344 c 0.219,0 0.805,0 1.297,0.262 v -4.875 c 0,-0.32 0,-0.445 -0.895,-0.445 h -0.336 v -0.34 c 0.16,0.008 1.258,0.035 1.594,0.035 0.277,0 1.406,-0.027 1.602,-0.035 v 0.34 h -0.344 c -0.895,0 -0.895,0.125 -0.895,0.445 z" /><g
       transform="matrix(1,0,0,-1,0,128.19435)"
       id="g200"><path
         inkscape:connector-curvature="0"
         id="path202"
         style="fill:none;stroke:#000000;stroke-width:0.56692898;stroke-linecap:butt;stroke-linejoin:miter;stroke-miterlimit:4;stroke-dasharray:none;stroke-opacity:1"
         d="m 220.309,37.848 h 30 v 30 h -30 z" /></g><path
       inkscape:connector-curvature="0"
       id="path204"
       style="fill:#000000;fill-opacity:1;fill-rule:evenodd;stroke:none"
       d="m 239.059,79.847 0.011,0.054 0.012,0.051 0.016,0.051 0.011,0.051 0.047,0.129 0.02,0.035 0.019,0.039 0.02,0.035 0.082,0.094 0.035,0.023 0.035,0.028 0.039,0.023 0.094,0.039 0.055,0.02 0.062,0.019 0.028,0.004 0.035,0.008 0.031,0.008 0.039,0.007 0.035,0.004 0.078,0.016 h 0.043 l 0.043,0.004 0.047,0.008 0.094,0.008 0.051,0.003 h 0.054 l 0.051,0.004 0.059,0.004 h 0.054 l 0.063,0.004 h 0.058 l 0.063,0.004 h 0.277 c 0.5,0 0.633,0 0.633,0.316 0,0.196 -0.18,0.196 -0.262,0.196 -0.558,0 -1.921,-0.051 -2.468,-0.051 -0.5,0 -1.719,0.051 -2.211,0.051 -0.121,0 -0.321,0 -0.321,-0.332 0,-0.18 0.153,-0.18 0.461,-0.18 0.039,0 0.352,0 0.641,-0.031 0.297,-0.035 0.449,-0.051 0.449,-0.266 0,-0.066 -0.023,-0.117 -0.07,-0.312 l -2.227,-8.875 c -0.168,-0.645 -0.203,-0.774 -1.523,-0.774 -0.277,0 -0.445,0 -0.445,-0.332 0,-0.183 0.148,-0.183 0.445,-0.183 h 7.715 c 0.398,0 0.41,0 0.519,0.281 l 1.309,3.57 c 0.066,0.184 0.066,0.211 0.066,0.231 0,0.062 -0.047,0.183 -0.195,0.183 -0.156,0 -0.168,-0.082 -0.285,-0.347 -0.567,-1.524 -1.301,-3.403 -4.18,-3.403 h -1.562 c -0.239,0 -0.266,0 -0.368,0.012 -0.168,0.016 -0.218,0.035 -0.218,0.168 0,0.047 0,0.082 0.086,0.375 z" /><path
       inkscape:connector-curvature="0"
       id="path206"
       style="fill:#000000;fill-opacity:1;fill-rule:evenodd;stroke:none"
       d="m 227.059,80.597 0.066,-0.129 0.066,-0.125 0.067,-0.117 0.066,-0.114 0.071,-0.109 0.07,-0.106 0.066,-0.105 0.074,-0.094 0.067,-0.093 0.074,-0.09 0.07,-0.09 0.141,-0.156 0.066,-0.075 0.071,-0.07 0.066,-0.062 c 0.879,-0.836 1.754,-1.016 1.785,-1.016 0.168,0 0.168,0.199 0.168,0.348 0,0.285 -0.011,0.304 -0.328,0.425 -0.976,0.348 -1.535,1 -1.867,1.45 -0.727,0.996 -0.902,2.074 -0.992,2.656 -0.012,0.09 -0.071,0.164 -0.156,0.164 -0.129,0 -0.145,-0.109 -0.172,-0.332 -0.328,-2.004 -1.352,-3.406 -2.93,-3.969 -0.211,-0.09 -0.246,-0.09 -0.246,-0.394 0,-0.149 0,-0.348 0.176,-0.348 0.043,0 0.89,0.199 1.707,0.941 0.476,0.453 0.863,0.989 1.175,1.61 V 67.71 c 0,-0.32 0,-0.648 0.29,-0.648 0.289,0 0.289,0.328 0.289,0.648 z" /><g
       transform="matrix(0.9678289,0,0,-1,7.0634553,128.19435)"
       id="g208"><path
         inkscape:connector-curvature="0"
         id="path210"
         style="fill:none;stroke:#000000;stroke-width:0.55979699;stroke-linecap:butt;stroke-linejoin:miter;stroke-miterlimit:4;stroke-dasharray:none;stroke-opacity:1"
         d="m 190.309,52.848 c 9.75,0 19.5,0 29.25,0" /></g><g
       transform="matrix(-1,0,0,1,0,128.19435)"
       id="g212"><path
         inkscape:connector-curvature="0"
         id="path214"
         style="fill:#000000;fill-opacity:1;fill-rule:evenodd;stroke:#000000;stroke-width:0.38486001;stroke-linecap:butt;stroke-linejoin:round;stroke-miterlimit:4;stroke-dasharray:none;stroke-opacity:1"
         d="m -213.574,-50.363 -6.727,-2.473 6.727,-2.477 c -1.074,1.461 -1.067,3.461 0,4.95 z" /></g><g
       transform="matrix(1,0,0,-1,0,128.19435)"
       id="g216"><path
         inkscape:connector-curvature="0"
         id="path218"
         style="fill:none;stroke:#000000;stroke-width:0.56692898;stroke-linecap:butt;stroke-linejoin:miter;stroke-miterlimit:4;stroke-dasharray:none;stroke-opacity:1"
         d="m 220.309,97.848 h 30 v 30 h -30 z" /></g><path
       inkscape:connector-curvature="0"
       id="path220"
       style="fill:#000000;fill-opacity:1;fill-rule:evenodd;stroke:none"
       d="m 239.059,19.847 0.011,0.054 0.012,0.051 0.016,0.051 0.011,0.051 0.047,0.129 0.02,0.035 0.019,0.039 0.02,0.035 0.082,0.094 0.035,0.023 0.035,0.028 0.039,0.023 0.094,0.039 0.055,0.02 0.062,0.019 0.028,0.004 0.035,0.008 0.031,0.008 0.039,0.007 0.035,0.004 0.078,0.016 h 0.043 l 0.043,0.004 0.047,0.008 0.094,0.008 0.051,0.003 h 0.054 l 0.051,0.004 0.059,0.004 h 0.054 l 0.063,0.004 h 0.058 l 0.063,0.004 h 0.277 c 0.5,0 0.633,0 0.633,0.316 0,0.196 -0.18,0.196 -0.262,0.196 -0.558,0 -1.921,-0.051 -2.468,-0.051 -0.5,0 -1.719,0.051 -2.211,0.051 -0.121,0 -0.321,0 -0.321,-0.332 0,-0.18 0.153,-0.18 0.461,-0.18 0.039,0 0.352,0 0.641,-0.031 0.297,-0.035 0.449,-0.051 0.449,-0.266 0,-0.066 -0.023,-0.117 -0.07,-0.312 l -2.227,-8.875 c -0.168,-0.645 -0.203,-0.774 -1.523,-0.774 -0.277,0 -0.445,0 -0.445,-0.332 0,-0.183 0.148,-0.183 0.445,-0.183 h 7.715 c 0.398,0 0.41,0 0.519,0.277 l 1.309,3.574 c 0.066,0.184 0.066,0.211 0.066,0.231 0,0.062 -0.047,0.183 -0.195,0.183 -0.156,0 -0.168,-0.082 -0.285,-0.347 -0.567,-1.524 -1.301,-3.403 -4.18,-3.403 h -1.562 c -0.239,0 -0.266,0 -0.368,0.012 -0.168,0.016 -0.218,0.035 -0.218,0.168 0,0.047 0,0.082 0.086,0.375 z" /><path
       inkscape:connector-curvature="0"
       id="path222"
       style="fill:#000000;fill-opacity:1;fill-rule:evenodd;stroke:none"
       d="m 227.059,20.597 0.066,-0.129 0.066,-0.125 0.067,-0.117 0.066,-0.114 0.071,-0.109 0.07,-0.106 0.066,-0.105 0.074,-0.094 0.067,-0.093 0.074,-0.09 0.07,-0.09 0.141,-0.156 0.066,-0.075 0.071,-0.07 0.066,-0.062 c 0.879,-0.836 1.754,-1.016 1.785,-1.016 0.168,0 0.168,0.199 0.168,0.348 0,0.285 -0.011,0.304 -0.328,0.425 -0.976,0.348 -1.535,1 -1.867,1.45 -0.727,0.996 -0.902,2.074 -0.992,2.656 -0.012,0.09 -0.071,0.164 -0.156,0.164 -0.129,0 -0.145,-0.109 -0.172,-0.332 -0.328,-2.004 -1.352,-3.406 -2.93,-3.969 -0.211,-0.09 -0.246,-0.09 -0.246,-0.394 0,-0.149 0,-0.348 0.176,-0.348 0.043,0 0.89,0.199 1.707,0.941 0.476,0.453 0.863,0.989 1.175,1.61 V 7.71 c 0,-0.32 0,-0.648 0.29,-0.648 0.289,0 0.289,0.328 0.289,0.648 z" /><g
       transform="matrix(0.9421879,0,0,-1,12.693169,128.19435)"
       id="g224"><path
         inkscape:connector-curvature="0"
         id="path226"
         style="fill:none;stroke:#000000;stroke-width:0.55979699;stroke-linecap:butt;stroke-linejoin:miter;stroke-miterlimit:4;stroke-dasharray:none;stroke-opacity:1"
         d="m 190.309,112.848 c 9.75,0 19.5,0 29.25,0" /></g><g
       transform="matrix(-1,0,0,1,0,128.19435)"
       id="g228"><path
         inkscape:connector-curvature="0"
         id="path230"
         style="fill:#000000;fill-opacity:1;fill-rule:evenodd;stroke:#000000;stroke-width:0.38486001;stroke-linecap:butt;stroke-linejoin:round;stroke-miterlimit:4;stroke-dasharray:none;stroke-opacity:1"
         d="m -213.574,-110.363 -6.727,-2.473 6.727,-2.477 c -1.074,1.461 -1.067,3.461 0,4.95 z" /></g><path
       inkscape:connector-curvature="0"
       id="path240"
       style="fill:#000000;fill-opacity:1;fill-rule:evenodd;stroke:none"
       d="m 298.527,98.569 0.063,0.075 0.062,0.07 0.063,0.066 0.058,0.067 0.059,0.062 0.055,0.063 0.054,0.058 0.051,0.059 0.051,0.055 0.051,0.05 0.051,0.055 0.046,0.051 0.36,0.359 0.086,0.078 0.246,0.235 0.172,0.156 c 0,0.012 0.789,0.738 1.254,1.23 1.214,1.278 1.496,1.934 1.496,1.981 0,0.137 -0.117,0.137 -0.141,0.137 -0.09,0 -0.129,-0.024 -0.191,-0.149 -0.383,-0.656 -0.653,-0.875 -0.961,-0.875 -0.309,0 -0.461,0.207 -0.653,0.438 -0.242,0.32 -0.457,0.586 -0.886,0.586 -0.957,0 -1.547,-1.266 -1.547,-1.555 0,-0.07 0.039,-0.149 0.156,-0.149 0.113,0 0.137,0.067 0.164,0.149 0.242,0.633 0.988,0.644 1.086,0.644 0.27,0 0.516,-0.097 0.809,-0.207 0.511,-0.203 0.656,-0.203 0.988,-0.203 -0.461,-0.59 -1.539,-1.578 -1.777,-1.793 l -1.157,-1.148 c -0.871,-0.918 -1.32,-1.699 -1.32,-1.793 0,-0.141 0.129,-0.141 0.152,-0.141 0.106,0 0.129,0.028 0.207,0.176 0.297,0.481 0.676,0.852 1.09,0.852 0.293,0 0.422,-0.125 0.742,-0.516 0.219,-0.289 0.45,-0.512 0.817,-0.512 1.269,0 2.012,1.739 2.012,2.11 0,0.066 -0.051,0.136 -0.153,0.136 -0.117,0 -0.14,-0.082 -0.18,-0.179 -0.292,-0.891 -1.113,-1.145 -1.539,-1.145 -0.25,0 -0.484,0.078 -0.753,0.176 -0.434,0.176 -0.625,0.23 -0.895,0.23 -0.027,0 -0.23,0 -0.348,-0.039 z" /><path
       inkscape:connector-curvature="0"
       id="path242"
       style="fill:#000000;fill-opacity:1;fill-rule:evenodd;stroke:none"
       d="m 309.996,104.538 h 0.027 l 0.028,0.004 h 0.074 l 0.031,0.008 h 0.016 l 0.016,0.004 0.011,0.004 0.016,0.004 0.015,0.007 0.024,0.008 0.016,0.008 0.007,0.012 0.012,0.008 0.02,0.019 0.003,0.008 0.004,0.004 0.008,0.015 0.004,0.004 0.016,0.032 v 0.015 l 0.004,0.008 0.004,0.012 v 0.05 c 0,0.235 -0.204,0.235 -0.356,0.235 h -5.336 c -0.148,0 -0.359,0 -0.359,-0.227 0,-0.242 0.203,-0.242 0.359,-0.242 z" /><path
       inkscape:connector-curvature="0"
       id="path244"
       style="fill:#000000;fill-opacity:1;fill-rule:evenodd;stroke:none"
       d="m 314.32,108.46 v 0.129 l -0.004,0.012 v 0.007 l -0.004,0.004 v 0.028 l -0.007,0.011 v 0.012 l -0.008,0.008 -0.008,0.016 -0.016,0.015 -0.023,0.012 -0.012,0.004 h -0.011 l -0.012,0.004 -0.008,0.004 h -0.016 l -0.003,0.004 h -0.137 c -0.574,-0.602 -1.387,-0.61 -1.754,-0.61 v -0.344 c 0.219,0 0.805,0 1.297,0.262 v -4.875 c 0,-0.32 0,-0.445 -0.895,-0.445 h -0.336 v -0.34 c 0.16,0.008 1.258,0.035 1.594,0.035 0.277,0 1.406,-0.027 1.602,-0.035 v 0.34 h -0.344 c -0.895,0 -0.895,0.125 -0.895,0.445 z" /><path
       inkscape:connector-curvature="0"
       id="path246"
       style="fill:#000000;fill-opacity:1;fill-rule:evenodd;stroke:none"
       d="m 147.652,112.878 0.266,0.07 0.137,0.047 0.133,0.047 0.136,0.047 0.137,0.058 0.133,0.059 0.133,0.063 0.128,0.07 0.133,0.07 0.129,0.074 0.125,0.079 0.242,0.171 0.118,0.09 0.113,0.094 0.109,0.098 0.102,0.101 0.101,0.106 0.094,0.109 0.09,0.109 0.156,0.235 0.071,0.121 0.062,0.125 0.055,0.129 0.05,0.133 0.04,0.132 0.031,0.137 0.023,0.141 0.016,0.144 0.004,0.145 c 0,1.34 -1.254,2.336 -3.082,2.336 h -3.973 c -0.281,0 -0.406,0 -0.406,-0.313 0,-0.172 0.125,-0.172 0.39,-0.172 0.028,0 0.293,0 0.528,-0.027 0.25,-0.035 0.379,-0.051 0.379,-0.25 0,-0.062 -0.012,-0.113 -0.059,-0.297 l -1.867,-8.359 c -0.141,-0.61 -0.164,-0.731 -1.27,-0.731 -0.254,0 -0.375,0 -0.375,-0.312 0,-0.172 0.168,-0.172 0.192,-0.172 0.394,0 1.371,0.051 1.762,0.051 0.39,0 1.378,-0.051 1.769,-0.051 0.113,0 0.281,0 0.281,0.312 0,0.172 -0.129,0.172 -0.39,0.172 -0.516,0 -0.91,0 -0.91,0.278 0,0.09 0.031,0.168 0.042,0.261 l 0.922,4.125 h 1.66 l -0.011,0.348 h -1.567 l 0.911,4.063 c 0.082,0.371 0.121,0.527 0.39,0.578 0.125,0.011 0.57,0.011 0.848,0.011 0.992,0 2.543,0 2.543,-1.539 0,-0.527 -0.223,-1.605 -0.77,-2.211 -0.359,-0.402 -1.097,-0.902 -2.355,-0.902 l 0.011,-0.348 c 1.27,0 1.52,-0.867 1.52,-1.414 0,-0.234 -0.109,-0.714 -0.195,-1.074 -0.098,-0.437 -0.219,-1.012 -0.219,-1.324 0,-1.676 1.668,-1.676 1.852,-1.676 1.187,0 1.671,1.57 1.671,1.789 0,0.184 -0.152,0.184 -0.164,0.184 -0.129,0 -0.152,-0.113 -0.179,-0.219 -0.352,-1.152 -0.953,-1.414 -1.274,-1.414 -0.461,0 -0.558,0.34 -0.558,0.953 0,0.477 0.086,1.27 0.14,1.77 0.028,0.218 0.059,0.515 0.059,0.734 0,1.195 -0.938,1.68 -1.313,1.836 z" /><path
       inkscape:connector-curvature="0"
       id="path248"
       style="fill:#000000;fill-opacity:1;fill-rule:evenodd;stroke:none"
       d="m 156.031,108.73 v 0.222 l -0.004,0.215 -0.023,0.406 -0.016,0.192 -0.019,0.187 -0.024,0.18 -0.031,0.176 -0.035,0.172 -0.043,0.164 -0.047,0.16 -0.055,0.156 -0.058,0.152 -0.067,0.149 -0.074,0.148 -0.039,0.071 -0.043,0.074 c -0.301,0.504 -0.902,0.937 -1.687,0.937 v -0.308 c 0.527,0 1.035,-0.356 1.211,-0.989 0.16,-0.589 0.168,-1.371 0.168,-2.324 0,-0.801 0,-1.609 -0.129,-2.293 -0.196,-0.988 -0.856,-1.23 -1.25,-1.23 -0.446,0 -1.043,0.293 -1.239,1.187 -0.136,0.641 -0.136,1.535 -0.136,2.336 0,0.797 0,1.629 0.144,2.223 0.207,0.859 0.832,1.09 1.231,1.09 v 0.308 c -2.262,0 -2.262,-2.972 -2.262,-3.761 0,-0.782 0,-3.688 2.262,-3.688 2.265,0 2.265,2.906 2.265,3.688 z" /><path
       inkscape:connector-curvature="0"
       id="path250"
       style="fill:#000000;fill-opacity:1;fill-rule:evenodd;stroke:none"
       d="m 161.898,103.851 v 0.007 l -0.003,0.008 v 0.012 l -0.004,0.008 v 0.008 l -0.004,0.007 -0.004,0.004 -0.004,0.008 v 0.008 l -0.008,0.008 -0.004,0.008 -0.008,0.011 -0.004,0.008 -0.015,0.024 -0.008,0.003 v 0.008 l -0.02,0.02 -0.003,0.008 -0.012,0.011 -0.004,0.012 -0.012,0.004 -0.004,0.012 -0.007,0.007 -0.008,0.012 -0.016,0.016 -0.008,0.012 -0.008,0.007 -0.007,0.012 -0.032,0.031 -0.007,0.012 -0.024,0.023 c -1.742,1.965 -2.187,4.903 -2.187,7.286 0,2.707 0.527,5.421 2.242,7.359 0.183,0.191 0.183,0.223 0.183,0.27 0,0.109 -0.054,0.152 -0.136,0.152 -0.141,0 -1.395,-1.055 -2.219,-3.031 -0.715,-1.715 -0.879,-3.442 -0.879,-4.75 0,-1.215 0.152,-3.094 0.918,-4.856 0.836,-1.918 2.039,-2.926 2.18,-2.926 0.082,0 0.136,0.043 0.136,0.157 z" /><path
       inkscape:connector-curvature="0"
       id="path252"
       style="fill:#000000;fill-opacity:1;fill-rule:evenodd;stroke:none"
       d="m 164.543,108.878 0.07,0.086 0.067,0.078 0.07,0.078 0.062,0.074 0.126,0.141 0.058,0.066 0.055,0.067 0.054,0.062 0.059,0.059 0.051,0.062 0.055,0.059 0.05,0.051 0.051,0.058 0.102,0.102 0.093,0.101 0.274,0.274 0.183,0.176 0.09,0.09 0.094,0.089 c 0,0.016 0.863,0.84 1.367,1.403 1.324,1.449 1.629,2.195 1.629,2.254 0,0.156 -0.125,0.156 -0.152,0.156 -0.098,0 -0.137,-0.031 -0.207,-0.172 -0.418,-0.746 -0.711,-0.996 -1.047,-0.996 -0.34,0 -0.504,0.234 -0.715,0.496 -0.262,0.363 -0.5,0.672 -0.961,0.672 -1.047,0 -1.687,-1.445 -1.687,-1.774 0,-0.078 0.039,-0.168 0.168,-0.168 0.128,0 0.152,0.079 0.179,0.168 0.266,0.719 1.074,0.735 1.184,0.735 0.297,0 0.562,-0.113 0.879,-0.235 0.562,-0.234 0.715,-0.234 1.078,-0.234 -0.504,-0.668 -1.676,-1.793 -1.938,-2.039 l -1.254,-1.309 c -0.949,-1.043 -1.441,-1.929 -1.441,-2.039 0,-0.156 0.141,-0.156 0.164,-0.156 0.117,0 0.141,0.031 0.227,0.199 0.324,0.547 0.738,0.969 1.183,0.969 0.325,0 0.465,-0.144 0.809,-0.59 0.242,-0.328 0.492,-0.578 0.894,-0.578 1.383,0 2.192,1.977 2.192,2.395 0,0.078 -0.055,0.156 -0.164,0.156 -0.129,0 -0.156,-0.09 -0.199,-0.203 -0.321,-1.012 -1.211,-1.301 -1.676,-1.301 -0.278,0 -0.528,0.09 -0.824,0.199 -0.473,0.199 -0.68,0.262 -0.973,0.262 -0.027,0 -0.25,0 -0.379,-0.043 z" /><path
       inkscape:connector-curvature="0"
       id="path254"
       style="fill:#000000;fill-opacity:1;fill-rule:evenodd;stroke:none"
       d="m 173.809,111.476 v 0.238 l -0.004,0.121 -0.004,0.129 -0.012,0.262 -0.016,0.273 -0.023,0.289 -0.031,0.297 -0.039,0.301 -0.043,0.316 -0.055,0.32 -0.066,0.321 -0.075,0.328 -0.086,0.332 -0.097,0.336 -0.11,0.332 -0.058,0.164 -0.063,0.168 -0.07,0.164 -0.066,0.168 c -0.836,1.91 -2.036,2.922 -2.176,2.922 -0.082,0 -0.141,-0.059 -0.141,-0.152 0,-0.047 0,-0.079 0.266,-0.36 1.367,-1.535 2.164,-4.015 2.164,-7.269 0,-2.661 -0.516,-5.399 -2.25,-7.364 -0.18,-0.183 -0.18,-0.218 -0.18,-0.261 0,-0.094 0.059,-0.157 0.141,-0.157 0.14,0 1.39,1.059 2.219,3.036 0.707,1.707 0.875,3.437 0.875,4.746 z" /><path
       inkscape:connector-curvature="0"
       id="path256"
       style="fill:#000000;fill-opacity:1;fill-rule:evenodd;stroke:none"
       d="m 148.109,75.792 0.145,0.035 0.148,0.039 0.145,0.047 0.148,0.047 0.153,0.051 0.144,0.058 0.149,0.063 0.144,0.066 0.145,0.071 0.144,0.074 0.141,0.078 0.14,0.082 0.129,0.086 0.133,0.094 0.129,0.093 0.125,0.098 0.117,0.098 0.117,0.105 0.11,0.11 0.101,0.113 0.098,0.113 0.09,0.121 0.086,0.125 0.078,0.125 0.066,0.129 0.063,0.133 0.051,0.137 0.047,0.14 0.031,0.145 0.027,0.144 0.016,0.149 0.004,0.152 c 0,1.391 -1.375,2.426 -3.379,2.426 h -4.364 c -0.308,0 -0.445,0 -0.445,-0.324 0,-0.18 0.137,-0.18 0.43,-0.18 0.031,0 0.324,0 0.582,-0.027 0.273,-0.036 0.414,-0.055 0.414,-0.262 0,-0.063 -0.016,-0.117 -0.066,-0.309 l -2.047,-8.679 c -0.157,-0.633 -0.184,-0.762 -1.395,-0.762 -0.277,0 -0.41,0 -0.41,-0.324 0,-0.18 0.18,-0.18 0.207,-0.18 0.434,0 1.504,0.055 1.934,0.055 0.429,0 1.515,-0.055 1.941,-0.055 0.129,0 0.309,0 0.309,0.328 0,0.176 -0.137,0.176 -0.426,0.176 -0.567,0 -1,0 -1,0.289 0,0.094 0.035,0.176 0.051,0.273 l 1.007,4.286 h 1.825 l -0.016,0.359 h -1.719 l 1,4.219 c 0.09,0.386 0.133,0.55 0.426,0.601 0.141,0.012 0.629,0.012 0.934,0.012 1.089,0 2.789,0 2.789,-1.598 0,-0.55 -0.246,-1.668 -0.848,-2.297 -0.391,-0.418 -1.203,-0.937 -2.582,-0.937 l 0.016,-0.359 c 1.39,0 1.664,-0.903 1.664,-1.473 0,-0.242 -0.117,-0.738 -0.211,-1.113 -0.11,-0.453 -0.242,-1.051 -0.242,-1.375 0,-1.743 1.832,-1.743 2.035,-1.743 1.297,0 1.832,1.633 1.832,1.86 0,0.191 -0.168,0.191 -0.18,0.191 -0.141,0 -0.172,-0.117 -0.199,-0.226 -0.387,-1.2 -1.043,-1.473 -1.399,-1.473 -0.503,0 -0.609,0.355 -0.609,0.992 0,0.496 0.094,1.321 0.152,1.84 0.032,0.227 0.067,0.531 0.067,0.758 0,1.246 -1.031,1.746 -1.442,1.91 z" /><path
       inkscape:connector-curvature="0"
       id="path258"
       style="fill:#000000;fill-opacity:1;fill-rule:evenodd;stroke:none"
       d="m 155.363,75.069 v 0.118 l -0.004,0.007 v 0.032 l -0.004,0.007 v 0.032 l -0.003,0.011 v 0.008 l -0.008,0.024 -0.008,0.011 -0.008,0.008 -0.004,0.012 -0.015,0.016 -0.012,0.003 -0.008,0.008 -0.023,0.008 -0.016,0.004 h -0.012 l -0.011,0.004 h -0.008 l -0.008,0.004 h -0.035 l -0.012,0.004 h -0.121 c -0.688,-0.715 -1.66,-0.723 -2.098,-0.723 v -0.406 c 0.258,0 0.965,0 1.547,0.312 v -5.765 c 0,-0.375 0,-0.524 -1.066,-0.524 h -0.403 v -0.406 c 0.188,0.012 1.504,0.047 1.903,0.047 0.332,0 1.683,-0.035 1.914,-0.047 v 0.406 h -0.402 c -1.075,0 -1.075,0.149 -1.075,0.524 z" /><path
       inkscape:connector-curvature="0"
       id="path260"
       style="fill:#000000;fill-opacity:1;fill-rule:evenodd;stroke:none"
       d="m 163.738,66.417 v 0.004 l -0.004,0.012 v 0.023 l -0.004,0.004 -0.007,0.016 v 0.004 l -0.004,0.011 -0.008,0.004 -0.004,0.012 -0.008,0.008 -0.008,0.011 -0.007,0.008 -0.008,0.016 -0.008,0.004 -0.008,0.015 -0.008,0.004 -0.004,0.008 -0.007,0.008 -0.004,0.008 -0.032,0.031 -0.007,0.012 -0.004,0.007 -0.039,0.04 -0.008,0.011 -0.024,0.024 -0.007,0.011 -0.012,0.008 -0.012,0.016 -0.015,0.012 c -1.911,2.039 -2.399,5.093 -2.399,7.566 0,2.812 0.582,5.629 2.461,7.645 0.199,0.199 0.199,0.23 0.199,0.281 0,0.113 -0.058,0.16 -0.148,0.16 -0.156,0 -1.531,-1.098 -2.434,-3.149 -0.785,-1.785 -0.965,-3.578 -0.965,-4.937 0,-1.262 0.168,-3.215 1.008,-5.043 0.918,-1.992 2.235,-3.039 2.391,-3.039 0.09,0 0.148,0.047 0.148,0.164 z" /><path
       inkscape:connector-curvature="0"
       id="path262"
       style="fill:#000000;fill-opacity:1;fill-rule:evenodd;stroke:none"
       d="m 166.645,71.636 0.074,0.09 0.074,0.082 0.074,0.078 0.071,0.078 0.066,0.074 0.07,0.074 0.063,0.071 0.125,0.132 0.117,0.125 0.059,0.059 0.054,0.059 0.059,0.058 0.109,0.106 0.106,0.105 0.101,0.094 0.102,0.098 0.097,0.093 0.2,0.18 0.203,0.188 c 0,0.015 0.945,0.871 1.5,1.457 1.453,1.503 1.785,2.281 1.785,2.339 0,0.161 -0.137,0.161 -0.164,0.161 -0.11,0 -0.152,-0.028 -0.231,-0.176 -0.457,-0.774 -0.777,-1.035 -1.148,-1.035 -0.371,0 -0.551,0.246 -0.781,0.515 -0.289,0.379 -0.551,0.696 -1.059,0.696 -1.148,0 -1.848,-1.5 -1.848,-1.84 0,-0.082 0.043,-0.176 0.184,-0.176 0.141,0 0.168,0.082 0.195,0.176 0.293,0.746 1.184,0.761 1.301,0.761 0.324,0 0.613,-0.117 0.965,-0.242 0.613,-0.242 0.785,-0.242 1.184,-0.242 -0.555,-0.695 -1.84,-1.863 -2.129,-2.121 l -1.375,-1.356 c -1.043,-1.085 -1.582,-2.007 -1.582,-2.121 0,-0.16 0.156,-0.16 0.183,-0.16 0.125,0 0.153,0.031 0.246,0.207 0.356,0.567 0.809,1.008 1.297,1.008 0.36,0 0.512,-0.152 0.891,-0.617 0.262,-0.34 0.535,-0.598 0.98,-0.598 1.516,0 2.403,2.055 2.403,2.489 0,0.082 -0.059,0.164 -0.18,0.164 -0.141,0 -0.168,-0.098 -0.219,-0.211 -0.351,-1.055 -1.328,-1.356 -1.836,-1.356 -0.304,0 -0.582,0.094 -0.902,0.207 -0.52,0.207 -0.75,0.274 -1.07,0.274 -0.032,0 -0.274,0 -0.414,-0.047 z" /><path
       inkscape:connector-curvature="0"
       id="path264"
       style="fill:#000000;fill-opacity:1;fill-rule:evenodd;stroke:none"
       d="m 176.809,74.335 v 0.246 l -0.004,0.125 -0.004,0.137 -0.012,0.269 -0.019,0.285 -0.028,0.301 -0.031,0.309 -0.043,0.312 -0.047,0.328 -0.062,0.333 -0.071,0.335 -0.082,0.34 -0.094,0.344 -0.109,0.348 -0.117,0.347 -0.066,0.172 -0.071,0.172 -0.148,0.344 c -0.918,1.984 -2.231,3.039 -2.387,3.039 -0.09,0 -0.152,-0.063 -0.152,-0.16 0,-0.051 0,-0.082 0.289,-0.375 1.5,-1.594 2.375,-4.168 2.375,-7.551 0,-2.762 -0.567,-5.609 -2.469,-7.648 -0.195,-0.192 -0.195,-0.227 -0.195,-0.27 0,-0.098 0.062,-0.164 0.152,-0.164 0.156,0 1.527,1.102 2.434,3.152 0.777,1.774 0.961,3.571 0.961,4.93 z" /><path
       inkscape:connector-curvature="0"
       id="path266"
       style="fill:#000000;fill-opacity:1;fill-rule:evenodd;stroke:none"
       d="m 137.992,15.405 0.141,0.039 0.137,0.039 0.14,0.047 0.141,0.051 0.144,0.051 0.141,0.062 0.137,0.063 0.14,0.066 0.137,0.074 0.137,0.079 0.133,0.078 0.132,0.086 0.125,0.09 0.125,0.093 0.121,0.098 0.118,0.101 0.113,0.102 0.109,0.109 0.106,0.114 0.097,0.117 0.09,0.117 0.086,0.125 0.082,0.125 0.074,0.133 0.063,0.133 0.059,0.136 0.05,0.141 0.043,0.145 0.032,0.148 0.023,0.148 0.016,0.157 0.004,0.156 c 0,1.434 -1.305,2.5 -3.208,2.5 h -4.144 c -0.293,0 -0.422,0 -0.422,-0.332 0,-0.184 0.129,-0.184 0.406,-0.184 0.032,0 0.309,0 0.551,-0.031 0.262,-0.039 0.395,-0.055 0.395,-0.269 0,-0.067 -0.016,-0.122 -0.059,-0.317 l -1.949,-8.961 c -0.145,-0.652 -0.172,-0.781 -1.32,-0.781 -0.266,0 -0.391,0 -0.391,-0.336 0,-0.184 0.172,-0.184 0.199,-0.184 0.41,0 1.426,0.051 1.832,0.051 0.406,0 1.442,-0.051 1.848,-0.051 0.117,0 0.289,0 0.289,0.332 0,0.188 -0.129,0.188 -0.406,0.188 -0.536,0 -0.946,0 -0.946,0.297 0,0.097 0.032,0.18 0.047,0.281 l 0.957,4.422 h 1.731 l -0.012,0.371 h -1.633 l 0.949,4.356 c 0.082,0.398 0.125,0.562 0.407,0.617 0.129,0.015 0.593,0.015 0.882,0.015 1.036,0 2.649,0 2.649,-1.652 0,-0.566 -0.235,-1.719 -0.801,-2.367 -0.375,-0.434 -1.144,-0.969 -2.453,-0.969 l 0.012,-0.371 c 1.324,0 1.582,-0.934 1.582,-1.52 0,-0.25 -0.114,-0.761 -0.2,-1.152 -0.105,-0.465 -0.23,-1.082 -0.23,-1.414 0,-1.801 1.738,-1.801 1.93,-1.801 1.234,0 1.742,1.688 1.742,1.922 0,0.195 -0.16,0.195 -0.172,0.195 -0.133,0 -0.16,-0.121 -0.191,-0.234 -0.364,-1.234 -0.989,-1.516 -1.325,-1.516 -0.476,0 -0.578,0.364 -0.578,1.02 0,0.512 0.086,1.363 0.145,1.898 0.031,0.235 0.062,0.551 0.062,0.786 0,1.281 -0.98,1.8 -1.371,1.968 z" /><path
       inkscape:connector-curvature="0"
       id="path268"
       style="fill:#000000;fill-opacity:1;fill-rule:evenodd;stroke:none"
       d="m 145.668,14.253 0.016,0.078 0.011,0.031 0.004,0.035 0.008,0.036 0.047,0.109 0.023,0.047 0.02,0.019 0.015,0.02 0.024,0.019 0.019,0.02 0.028,0.016 0.055,0.027 0.031,0.012 0.035,0.011 0.019,0.008 h 0.02 l 0.019,0.008 0.024,0.004 0.019,0.004 0.024,0.004 0.027,0.004 0.024,0.004 h 0.023 l 0.027,0.003 0.032,0.004 0.027,0.004 0.031,0.004 h 0.032 l 0.031,0.004 h 0.179 l 0.036,0.004 h 0.125 c 0.316,0 0.418,0 0.418,0.254 0,0.016 -0.008,0.164 -0.176,0.164 -0.231,0 -0.504,-0.02 -0.75,-0.035 -0.254,-0.012 -0.555,-0.012 -0.813,-0.012 -0.211,0 -0.488,0.012 -0.699,0.012 -0.219,0 -0.461,0.035 -0.664,0.035 -0.059,0 -0.211,0 -0.211,-0.258 0,-0.16 0.121,-0.16 0.324,-0.16 0.012,0 0.203,0 0.383,-0.027 0.215,-0.02 0.238,-0.047 0.238,-0.16 0,-0.024 0,-0.079 -0.039,-0.258 l -1.355,-6.196 c -0.094,-0.398 -0.113,-0.492 -0.895,-0.492 -0.172,0 -0.304,0 -0.304,-0.246 0,-0.172 0.125,-0.172 0.304,-0.172 h 5.114 c 0.254,0 0.265,0.008 0.347,0.235 0.106,0.312 0.867,2.574 0.867,2.668 0,0.039 -0.023,0.168 -0.175,0.168 -0.125,0 -0.141,-0.059 -0.207,-0.247 -0.379,-1.105 -0.832,-2.406 -2.696,-2.406 h -1.144 c -0.317,0 -0.324,0.016 -0.324,0.121 0,0.008 0,0.067 0.039,0.242 z" /><path
       inkscape:connector-curvature="0"
       id="path270"
       style="fill:#000000;fill-opacity:1;fill-rule:evenodd;stroke:none"
       d="m 157.023,9.878 h 0.102 l 0.016,0.004 h 0.019 l 0.012,0.004 h 0.019 l 0.016,0.004 0.02,0.004 0.046,0.011 0.063,0.032 0.012,0.011 0.007,0.012 0.036,0.035 0.004,0.012 0.003,0.008 0.004,0.004 0.008,0.023 0.004,0.004 0.004,0.012 0.004,0.007 v 0.012 l 0.004,0.012 v 0.023 l 0.004,0.012 v 0.035 c 0,0.289 -0.231,0.289 -0.407,0.289 h -6.054 c -0.168,0 -0.407,0 -0.407,-0.277 0,-0.293 0.231,-0.293 0.407,-0.293 z" /><path
       inkscape:connector-curvature="0"
       id="path272"
       style="fill:#000000;fill-opacity:1;fill-rule:evenodd;stroke:none"
       d="m 161.938,14.663 v 0.102 l -0.004,0.015 v 0.039 l -0.004,0.012 v 0.008 l -0.004,0.008 v 0.035 l -0.008,0.012 -0.008,0.023 -0.008,0.012 -0.004,0.008 -0.007,0.011 -0.008,0.004 -0.008,0.008 -0.012,0.008 -0.008,0.004 -0.011,0.004 -0.016,0.004 h -0.016 l -0.003,0.003 h -0.012 l -0.008,0.004 h -0.035 l -0.008,0.004 h -0.117 c -0.649,-0.738 -1.574,-0.746 -1.992,-0.746 v -0.422 c 0.246,0 0.918,0 1.472,0.328 V 8.198 c 0,-0.386 0,-0.539 -1.015,-0.539 h -0.383 V 7.241 c 0.184,0.008 1.43,0.047 1.809,0.047 0.316,0 1.597,-0.039 1.82,-0.047 v 0.418 h -0.391 c -1.011,0 -1.011,0.153 -1.011,0.539 z" /><path
       inkscape:connector-curvature="0"
       id="path274"
       style="fill:#000000;fill-opacity:1;fill-rule:evenodd;stroke:none"
       d="m 169.887,5.73 v 0.031 l -0.004,0.008 v 0.007 l -0.008,0.016 -0.004,0.004 -0.004,0.012 -0.008,0.015 -0.007,0.012 -0.008,0.008 -0.016,0.023 -0.008,0.016 -0.008,0.004 -0.003,0.008 -0.008,0.007 -0.004,0.008 -0.008,0.008 -0.004,0.008 -0.015,0.015 -0.004,0.012 -0.012,0.008 -0.008,0.012 -0.004,0.008 -0.008,0.011 -0.019,0.02 -0.008,0.011 -0.012,0.012 -0.007,0.012 -0.036,0.035 -0.011,0.016 c -1.813,2.101 -2.278,5.254 -2.278,7.804 0,2.907 0.551,5.813 2.336,7.891 0.188,0.207 0.188,0.238 0.188,0.289 0,0.117 -0.051,0.164 -0.141,0.164 -0.144,0 -1.453,-1.133 -2.308,-3.25 -0.747,-1.836 -0.918,-3.691 -0.918,-5.094 0,-1.3 0.156,-3.316 0.957,-5.203 0.871,-2.054 2.125,-3.136 2.269,-3.136 0.09,0 0.141,0.046 0.141,0.168 z" /><path
       inkscape:connector-curvature="0"
       id="path276"
       style="fill:#000000;fill-opacity:1;fill-rule:evenodd;stroke:none"
       d="m 172.648,11.12 0.071,0.09 0.07,0.082 0.07,0.086 0.133,0.156 0.063,0.074 0.058,0.075 0.063,0.07 0.058,0.066 0.059,0.063 0.055,0.062 0.054,0.067 0.055,0.054 0.051,0.063 0.101,0.109 0.102,0.106 0.098,0.101 0.097,0.098 0.094,0.098 0.188,0.187 0.093,0.098 0.098,0.094 c 0,0.015 0.902,0.898 1.422,1.503 1.383,1.555 1.703,2.356 1.703,2.415 0,0.168 -0.133,0.168 -0.16,0.168 -0.102,0 -0.149,-0.032 -0.219,-0.18 -0.434,-0.801 -0.738,-1.07 -1.09,-1.07 -0.351,0 -0.523,0.25 -0.742,0.531 -0.273,0.39 -0.52,0.719 -1.004,0.719 -1.09,0 -1.754,-1.547 -1.754,-1.899 0,-0.086 0.039,-0.184 0.172,-0.184 0.133,0 0.16,0.086 0.188,0.184 0.277,0.77 1.121,0.785 1.234,0.785 0.309,0 0.586,-0.121 0.918,-0.25 0.582,-0.25 0.742,-0.25 1.121,-0.25 -0.523,-0.719 -1.746,-1.926 -2.02,-2.187 l -1.308,-1.403 c -0.988,-1.117 -1.5,-2.07 -1.5,-2.187 0,-0.164 0.144,-0.164 0.172,-0.164 0.121,0 0.148,0.031 0.234,0.211 0.336,0.586 0.77,1.039 1.234,1.039 0.34,0 0.485,-0.153 0.844,-0.633 0.25,-0.352 0.512,-0.617 0.93,-0.617 1.441,0 2.285,2.117 2.285,2.566 0,0.086 -0.062,0.168 -0.176,0.168 -0.129,0 -0.156,-0.097 -0.203,-0.219 -0.332,-1.082 -1.265,-1.394 -1.746,-1.394 -0.289,0 -0.551,0.098 -0.855,0.215 -0.497,0.215 -0.715,0.281 -1.02,0.281 -0.027,0 -0.262,0 -0.391,-0.047 z" /><path
       inkscape:connector-curvature="0"
       id="path278"
       style="fill:#000000;fill-opacity:1;fill-rule:evenodd;stroke:none"
       d="m 182.301,13.901 v 0.254 l -0.004,0.133 -0.004,0.137 -0.012,0.281 -0.019,0.293 -0.024,0.309 -0.027,0.32 -0.043,0.324 -0.047,0.336 -0.059,0.344 -0.066,0.344 -0.078,0.351 -0.086,0.356 -0.105,0.359 -0.114,0.359 -0.062,0.176 -0.067,0.18 -0.066,0.176 -0.074,0.175 c -0.871,2.051 -2.117,3.137 -2.266,3.137 -0.086,0 -0.144,-0.062 -0.144,-0.164 0,-0.051 0,-0.082 0.269,-0.387 1.43,-1.644 2.258,-4.3 2.258,-7.793 0,-2.847 -0.539,-5.785 -2.34,-7.89 -0.187,-0.196 -0.187,-0.235 -0.187,-0.281 0,-0.102 0.058,-0.168 0.144,-0.168 0.149,0 1.449,1.136 2.313,3.253 0.738,1.832 0.91,3.684 0.91,5.086 z" /><path
       d="m 81.754002,39.094004 v 0.078 l -0.008,0.047 v 0.023 l -0.015,0.078 -0.004,0.016 -0.008,0.019 -0.004,0.016 -0.004,0.012 -0.007,0.015 -0.008,0.012 -0.004,0.012 -0.008,0.011 -0.004,0.012 -0.008,0.012 -0.015,0.016 -0.008,0.003 -0.016,0.016 -0.012,0.004 -0.015,0.008 h -0.008 l -0.008,0.004 h -0.015 c -0.055,0 -0.176,-0.055 -0.188,-0.367 -0.055,-0.95 -0.969,-1.512 -1.82,-1.512 -0.762,0 -1.422,0.422 -2.106,0.906 -0.711,0.492 -1.414,0.988 -2.269,0.988 -1.223,0 -2.196,-0.976 -2.196,-2.242 0,-0.301 0.11,-0.41 0.188,-0.41 0.133,0 0.184,0.258 0.184,0.316 0.066,1.153 1.14,1.567 1.824,1.567 0.762,0 1.418,-0.426 2.101,-0.91 0.707,-0.493 1.418,-0.989 2.274,-0.989 1.215,0 2.187,0.981 2.187,2.239 z"
       style="fill:#000000;fill-opacity:1;fill-rule:evenodd;stroke:none"
       id="path1222"
       inkscape:connector-curvature="0" /><path
       d="m 81.754002,35.883004 v 0.086 l -0.004,0.015 v 0.016 l -0.004,0.012 v 0.031 l -0.003,0.012 -0.004,0.015 -0.004,0.012 v 0.012 l -0.008,0.023 v 0.008 l -0.008,0.023 v 0.008 l -0.004,0.008 -0.004,0.012 -0.015,0.031 -0.008,0.012 -0.008,0.015 -0.008,0.012 -0.008,0.008 -0.007,0.012 -0.008,0.003 -0.016,0.016 -0.015,0.008 -0.004,0.004 -0.016,0.008 h -0.023 v 0.003 c -0.055,0 -0.176,-0.07 -0.188,-0.371 -0.055,-0.949 -0.969,-1.511 -1.82,-1.511 -0.762,0 -1.422,0.425 -2.106,0.906 -0.711,0.492 -1.414,0.988 -2.269,0.988 -1.223,0 -2.196,-0.972 -2.196,-2.238 0,-0.305 0.11,-0.414 0.188,-0.414 0.133,0 0.184,0.262 0.184,0.316 0.066,1.157 1.14,1.571 1.824,1.571 0.762,0 1.418,-0.43 2.101,-0.911 0.707,-0.496 1.418,-0.988 2.274,-0.988 1.246,0 2.187,1.016 2.187,2.227 z"
       style="fill:#000000;fill-opacity:1;fill-rule:evenodd;stroke:none"
       id="path1224"
       inkscape:connector-curvature="0" /><path
       style="fill:none;stroke:#000000;stroke-width:0.58834845;stroke-linecap:butt;stroke-linejoin:miter;stroke-miterlimit:4;stroke-dasharray:none;stroke-opacity:1"
       d="m 78.000002,34.499998 c 0,-6.249273 0,-12.499273 0,-18.749995"
       id="path1226"
       inkscape:connector-curvature="0"
       inkscape:path-effect="#path-effect1228"
       inkscape:original-d="m 78.000002,34.499998 c 7.5e-4,-6.249273 7.5e-4,-12.499273 0,-18.749995" /><path
       style="fill:none;stroke:#000000;stroke-width:0.56692915;stroke-linecap:butt;stroke-linejoin:miter;stroke-miterlimit:4;stroke-dasharray:none;stroke-opacity:1;marker-end:url(#marker1229)"
       d="m 289.50001,37.499998 c 0,9.750723 0,19.500727 0,29.250006"
       id="path1223"
       inkscape:connector-curvature="0"
       inkscape:path-effect="#path-effect1225"
       inkscape:original-d="m 289.50001,37.499998 c 7.5e-4,9.750723 7.5e-4,19.500727 0,29.250006" /><path
       style="fill:none;stroke:#000000;stroke-width:0.56692915;stroke-linecap:butt;stroke-linejoin:miter;stroke-miterlimit:4;stroke-dasharray:none;stroke-opacity:1;marker-end:url(#Arrow2Lend)"
       d="m 289.50001,83.250001 c 0,7.049187 0,14.097668 0,21.145449"
       id="path3389"
       inkscape:connector-curvature="0"
       inkscape:path-effect="#path-effect3391"
       inkscape:original-d="m 289.50001,83.250001 c 7.5e-4,7.049187 7.5e-4,14.097668 0,21.145449" /><path
       style="fill:none;stroke:#000000;stroke-width:0.72457552px;stroke-linecap:butt;stroke-linejoin:miter;stroke-opacity:1"
       d="m 279.00001,112.85835 c -9.61059,-3.3e-4 -19.22189,-6.7e-4 -28.83388,-0.001"
       id="path3645"
       inkscape:connector-curvature="0"
       inkscape:path-effect="#path-effect3647"
       inkscape:original-d="m 279.00001,112.85835 c -9.61059,3.2e-4 -19.22189,-1e-4 -28.83388,-0.001" /></g></svg>